<?xml version="1.0" encoding="UTF-8" standalone="yes"?><svg xmlns="http://www.w3.org/2000/svg" xmlns:xlink="http://www.w3.org/1999/xlink" height="1481px" style="width:2752px;height:1481px;" version="1.1" viewBox="0 0 2752 1481" width="2752px"><defs><filter height="300%" id="f1" width="300%" x="-1" y="-1"><feGaussianBlur result="blurOut" stdDeviation="2.0"/><feColorMatrix in="blurOut" result="blurOut2" type="matrix" values="0 0 0 0 0 0 0 0 0 0 0 0 0 0 0 0 0 0 .4 0"/><feOffset dx="4.0" dy="4.0" in="blurOut2" result="blurOut3"/><feBlend in="SourceGraphic" in2="blurOut3" mode="normal"/></filter></defs><g><text fill="#000000" font-family="sans-serif" font-size="18" font-weight="bold" lengthAdjust="spacingAndGlyphs" textLength="150" x="1227.5" y="19.2393">Class diagram of</text><text fill="#000000" font-family="sans-serif" font-size="18" font-weight="bold" lengthAdjust="spacingAndGlyphs" text-decoration="underline" textLength="100" x="1382.5" y="19.2393">FourSchlag</text><line style="stroke: #000000; stroke-width: 1.0;" x1="1382.5" x2="1482.5" y1="21.2393" y2="21.2393"/><text fill="#000000" font-family="sans-serif" font-size="18" font-weight="bold" lengthAdjust="spacingAndGlyphs" textLength="64" x="1487.5" y="19.2393">project</text><text fill="#000000" font-family="sans-serif" font-size="18" font-style="italic" lengthAdjust="spacingAndGlyphs" textLength="95" x="1067.5" y="43.752">Description:</text><text fill="#000000" font-family="sans-serif" font-size="18" lengthAdjust="spacingAndGlyphs" textLength="353" x="1167.5" y="43.752">Reduced package / class dependencies of</text><text fill="#000000" font-family="sans-serif" font-size="18" font-style="italic" lengthAdjust="spacingAndGlyphs" textLength="46" x="1525.5" y="43.752">SALES</text><text fill="#000000" font-family="sans-serif" font-size="18" lengthAdjust="spacingAndGlyphs" textLength="135" x="1576.5" y="43.752">KPI calculations</text><text fill="#000000" font-family="sans-serif" font-size="18" font-style="italic" lengthAdjust="spacingAndGlyphs" textLength="64" x="1260.5" y="68.2646">Version:</text><text fill="#000000" font-family="sans-serif" font-size="18" lengthAdjust="spacingAndGlyphs" textLength="0" x="1329.5" y="68.2646"/><text fill="#000000" font-family="sans-serif" font-size="18" font-weight="bold" lengthAdjust="spacingAndGlyphs" textLength="57" x="1329.5" y="68.2646">DRAFT</text><text fill="#000000" font-family="sans-serif" font-size="18" lengthAdjust="spacingAndGlyphs" textLength="132" x="1386.5" y="68.2646">, 23th Nov 2016</text><text fill="#000000" font-family="sans-serif" font-size="18" font-style="italic" lengthAdjust="spacingAndGlyphs" textLength="58" x="1292.5" y="92.7773">Author:</text><text fill="#000000" font-family="sans-serif" font-size="18" lengthAdjust="spacingAndGlyphs" textLength="131" x="1355.5" y="92.7773">Steffen Wagner</text><polygon fill="#FFFFFF" filter="url(#f1)" points="22,122.0508,101,122.0508,108,147.1162,2745,147.1162,2745,1474.0508,22,1474.0508,22,122.0508" style="stroke: #000000; stroke-width: 2.0;"/><line style="stroke: #000000; stroke-width: 2.0;" x1="22" x2="108" y1="147.1162" y2="147.1162"/><text fill="#000000" font-family="sans-serif" font-size="14" font-weight="bold" lengthAdjust="spacingAndGlyphs" textLength="73" x="26" y="139.0146">fourschlag</text><polygon fill="#FFFFFF" filter="url(#f1)" points="2002,168.0508,2060,168.0508,2067,193.1162,2721,193.1162,2721,1450.0508,2002,1450.0508,2002,168.0508" style="stroke: #000000; stroke-width: 2.0;"/><line style="stroke: #000000; stroke-width: 2.0;" x1="2002" x2="2067" y1="193.1162" y2="193.1162"/><text fill="#000000" font-family="sans-serif" font-size="14" font-weight="bold" lengthAdjust="spacingAndGlyphs" textLength="52" x="2006" y="185.0146">entities</text><polygon fill="#FFFFFF" filter="url(#f1)" points="2040.5,870.0508,2112.5,870.0508,2119.5,895.1162,2224.5,895.1162,2224.5,1304.0508,2040.5,1304.0508,2040.5,870.0508" style="stroke: #000000; stroke-width: 2.0;"/><line style="stroke: #000000; stroke-width: 2.0;" x1="2040.5" x2="2119.5" y1="895.1162" y2="895.1162"/><text fill="#000000" font-family="sans-serif" font-size="14" font-weight="bold" lengthAdjust="spacingAndGlyphs" textLength="66" x="2044.5" y="887.0146">accessors</text><polygon fill="#FFFFFF" filter="url(#f1)" points="2026,214.0508,2070,214.0508,2077,239.1162,2474.5,239.1162,2474.5,731.0508,2026,731.0508,2026,214.0508" style="stroke: #000000; stroke-width: 2.0;"/><line style="stroke: #000000; stroke-width: 2.0;" x1="2026" x2="2077" y1="239.1162" y2="239.1162"/><text fill="#000000" font-family="sans-serif" font-size="14" font-weight="bold" lengthAdjust="spacingAndGlyphs" textLength="38" x="2030" y="231.0146">types</text><polygon fill="#FFFFFF" filter="url(#f1)" points="2292,755.0508,2340,755.0508,2347,780.1162,2697,780.1162,2697,1272.0508,2292,1272.0508,2292,755.0508" style="stroke: #000000; stroke-width: 2.0;"/><line style="stroke: #000000; stroke-width: 2.0;" x1="2292" x2="2347" y1="780.1162" y2="780.1162"/><text fill="#000000" font-family="sans-serif" font-size="14" font-weight="bold" lengthAdjust="spacingAndGlyphs" textLength="42" x="2296" y="772.0146">tables</text><polygon fill="#FFFFFF" filter="url(#f1)" points="46,563.0508,107,563.0508,114,588.1162,1947,588.1162,1947,1450.0508,46,1450.0508,46,563.0508" style="stroke: #000000; stroke-width: 2.0;"/><line style="stroke: #000000; stroke-width: 2.0;" x1="46" x2="114" y1="588.1162" y2="588.1162"/><text fill="#000000" font-family="sans-serif" font-size="14" font-weight="bold" lengthAdjust="spacingAndGlyphs" textLength="55" x="50" y="580.0146">services</text><polygon fill="#FFFFFF" filter="url(#f1)" points="384,849.0508,421,849.0508,428,874.1162,1923,874.1162,1923,1214.0508,384,1214.0508,384,849.0508" style="stroke: #000000; stroke-width: 2.0;"/><line style="stroke: #000000; stroke-width: 2.0;" x1="384" x2="428" y1="874.1162" y2="874.1162"/><text fill="#000000" font-family="sans-serif" font-size="14" font-weight="bold" lengthAdjust="spacingAndGlyphs" textLength="31" x="388" y="866.0146">data</text><polygon fill="#FFFFFF" filter="url(#f1)" points="711.5,975.0508,777.5,975.0508,784.5,1000.1162,1899,1000.1162,1899,1190.0508,711.5,1190.0508,711.5,975.0508" style="stroke: #000000; stroke-width: 2.0;"/><line style="stroke: #000000; stroke-width: 2.0;" x1="711.5" x2="784.5" y1="1000.1162" y2="1000.1162"/><text fill="#000000" font-family="sans-serif" font-size="14" font-weight="bold" lengthAdjust="spacingAndGlyphs" textLength="60" x="715.5" y="992.0146">requests</text><polygon fill="#FFFFFF" filter="url(#f1)" points="711.5,609.0508,735.5,609.0508,742.5,634.1162,1260.5,634.1162,1260.5,825.0508,711.5,825.0508,711.5,609.0508" style="stroke: #000000; stroke-width: 2.0;"/><line style="stroke: #000000; stroke-width: 2.0;" x1="711.5" x2="742.5" y1="634.1162" y2="634.1162"/><text fill="#000000" font-family="sans-serif" font-size="14" font-weight="bold" lengthAdjust="spacingAndGlyphs" textLength="18" x="715.5" y="626.0146">db</text><polygon fill="#FFFFFF" filter="url(#f1)" points="70,1238.0508,105,1238.0508,112,1263.1162,631.5,1263.1162,631.5,1426.0508,70,1426.0508,70,1238.0508" style="stroke: #000000; stroke-width: 2.0;"/><line style="stroke: #000000; stroke-width: 2.0;" x1="70" x2="112" y1="1263.1162" y2="1263.1162"/><text fill="#000000" font-family="sans-serif" font-size="14" font-weight="bold" lengthAdjust="spacingAndGlyphs" textLength="29" x="74" y="1255.0146">web</text><polygon fill="#FFFFFF" filter="url(#f1)" points="424.5,1284.0508,449.5,1284.0508,456.5,1309.1162,607.5,1309.1162,607.5,1402.0508,424.5,1402.0508,424.5,1284.0508" style="stroke: #000000; stroke-width: 2.0;"/><line style="stroke: #000000; stroke-width: 2.0;" x1="424.5" x2="456.5" y1="1309.1162" y2="1309.1162"/><text fill="#000000" font-family="sans-serif" font-size="14" font-weight="bold" lengthAdjust="spacingAndGlyphs" textLength="19" x="428.5" y="1301.0146">ws</text><rect fill="#FEFECE" filter="url(#f1)" height="48" style="stroke: #A80036; stroke-width: 1.5;" width="137" x="2064" y="1240.0508"/><ellipse cx="2079" cy="1256.0508" fill="#B4A7E5" rx="11" ry="11" style="stroke: #A80036; stroke-width: 1.0;"/><path d="M2075.2969,1250.3477 L2082.9063,1250.3477 L2082.9063,1252.2383 L2080.3281,1252.2383 L2080.3281,1259.6602 L2082.9063,1259.6602 L2082.9063,1261.5508 L2075.2969,1261.5508 L2075.2969,1259.6602 L2077.8906,1259.6602 L2077.8906,1252.2383 L2075.2969,1252.2383 L2075.2969,1250.3477 Z "/><text fill="#000000" font-family="sans-serif" font-size="12" font-style="italic" lengthAdjust="spacingAndGlyphs" textLength="105" x="2093" y="1260.7061">ActualSalesAccessor</text><line style="stroke: #A80036; stroke-width: 1.5;" x1="2065" x2="2200" y1="1272.0508" y2="1272.0508"/><line style="stroke: #A80036; stroke-width: 1.5;" x1="2065" x2="2200" y1="1280.0508" y2="1280.0508"/><rect fill="#FEFECE" filter="url(#f1)" height="48" style="stroke: #A80036; stroke-width: 1.5;" width="152" x="2056.5" y="1157.0508"/><ellipse cx="2071.5" cy="1173.0508" fill="#B4A7E5" rx="11" ry="11" style="stroke: #A80036; stroke-width: 1.0;"/><path d="M2067.7969,1167.3477 L2075.4063,1167.3477 L2075.4063,1169.2383 L2072.8281,1169.2383 L2072.8281,1176.6602 L2075.4063,1176.6602 L2075.4063,1178.5508 L2067.7969,1178.5508 L2067.7969,1176.6602 L2070.3906,1176.6602 L2070.3906,1169.2383 L2067.7969,1169.2383 L2067.7969,1167.3477 Z "/><text fill="#000000" font-family="sans-serif" font-size="12" font-style="italic" lengthAdjust="spacingAndGlyphs" textLength="120" x="2085.5" y="1177.7061">ExchangeRateAccessor</text><line style="stroke: #A80036; stroke-width: 1.5;" x1="2057.5" x2="2207.5" y1="1189.0508" y2="1189.0508"/><line style="stroke: #A80036; stroke-width: 1.5;" x1="2057.5" x2="2207.5" y1="1197.0508" y2="1197.0508"/><rect fill="#FEFECE" filter="url(#f1)" height="48" style="stroke: #A80036; stroke-width: 1.5;" width="149" x="2058" y="1074.0508"/><ellipse cx="2073" cy="1090.0508" fill="#B4A7E5" rx="11" ry="11" style="stroke: #A80036; stroke-width: 1.0;"/><path d="M2069.2969,1084.3477 L2076.9063,1084.3477 L2076.9063,1086.2383 L2074.3281,1086.2383 L2074.3281,1093.6602 L2076.9063,1093.6602 L2076.9063,1095.5508 L2069.2969,1095.5508 L2069.2969,1093.6602 L2071.8906,1093.6602 L2071.8906,1086.2383 L2069.2969,1086.2383 L2069.2969,1084.3477 Z "/><text fill="#000000" font-family="sans-serif" font-size="12" font-style="italic" lengthAdjust="spacingAndGlyphs" textLength="117" x="2087" y="1094.7061">ForecastSalesAccessor</text><line style="stroke: #A80036; stroke-width: 1.5;" x1="2059" x2="2206" y1="1106.0508" y2="1106.0508"/><line style="stroke: #A80036; stroke-width: 1.5;" x1="2059" x2="2206" y1="1114.0508" y2="1114.0508"/><rect fill="#FEFECE" filter="url(#f1)" height="48" style="stroke: #A80036; stroke-width: 1.5;" width="147" x="2059" y="991.0508"/><ellipse cx="2074" cy="1007.0508" fill="#B4A7E5" rx="11" ry="11" style="stroke: #A80036; stroke-width: 1.0;"/><path d="M2070.2969,1001.3477 L2077.9063,1001.3477 L2077.9063,1003.2383 L2075.3281,1003.2383 L2075.3281,1010.6602 L2077.9063,1010.6602 L2077.9063,1012.5508 L2070.2969,1012.5508 L2070.2969,1010.6602 L2072.8906,1010.6602 L2072.8906,1003.2383 L2070.2969,1003.2383 L2070.2969,1001.3477 Z "/><text fill="#000000" font-family="sans-serif" font-size="12" font-style="italic" lengthAdjust="spacingAndGlyphs" textLength="115" x="2088" y="1011.7061">OrgStructureAccessor</text><line style="stroke: #A80036; stroke-width: 1.5;" x1="2060" x2="2205" y1="1023.0508" y2="1023.0508"/><line style="stroke: #A80036; stroke-width: 1.5;" x1="2060" x2="2205" y1="1031.0508" y2="1031.0508"/><rect fill="#FEFECE" filter="url(#f1)" height="48" style="stroke: #A80036; stroke-width: 1.5;" width="114" x="2075.5" y="908.0508"/><ellipse cx="2090.5" cy="924.0508" fill="#B4A7E5" rx="11" ry="11" style="stroke: #A80036; stroke-width: 1.0;"/><path d="M2086.7969,918.3477 L2094.4063,918.3477 L2094.4063,920.2383 L2091.8281,920.2383 L2091.8281,927.6602 L2094.4063,927.6602 L2094.4063,929.5508 L2086.7969,929.5508 L2086.7969,927.6602 L2089.3906,927.6602 L2089.3906,920.2383 L2086.7969,920.2383 L2086.7969,918.3477 Z "/><text fill="#000000" font-family="sans-serif" font-size="12" font-style="italic" lengthAdjust="spacingAndGlyphs" textLength="82" x="2104.5" y="928.7061">RegionAccessor</text><line style="stroke: #A80036; stroke-width: 1.5;" x1="2076.5" x2="2188.5" y1="940.0508" y2="940.0508"/><line style="stroke: #A80036; stroke-width: 1.5;" x1="2076.5" x2="2188.5" y1="948.0508" y2="948.0508"/><rect fill="#FEFECE" filter="url(#f1)" height="48" style="stroke: #A80036; stroke-width: 1.5;" width="98" x="2083.5" y="335.0508"/><ellipse cx="2098.5" cy="351.0508" fill="#EB937F" rx="11" ry="11" style="stroke: #A80036; stroke-width: 1.0;"/><path d="M2094.6406,356.5508 L2094.6406,345.3477 L2102.6719,345.3477 L2102.6719,347.2383 L2097.0938,347.2383 L2097.0938,349.9414 L2102.1719,349.9414 L2102.1719,351.832 L2097.0938,351.832 L2097.0938,354.6602 L2103.0156,354.6602 L2103.0156,356.5508 L2094.6406,356.5508 Z "/><text fill="#000000" font-family="sans-serif" font-size="12" lengthAdjust="spacingAndGlyphs" textLength="66" x="2112.5" y="355.7061">DataSource</text><line style="stroke: #A80036; stroke-width: 1.5;" x1="2084.5" x2="2180.5" y1="367.0508" y2="367.0508"/><line style="stroke: #A80036; stroke-width: 1.5;" x1="2084.5" x2="2180.5" y1="375.0508" y2="375.0508"/><rect fill="#FEFECE" filter="url(#f1)" height="48" style="stroke: #A80036; stroke-width: 1.5;" width="88" x="2088.5" y="252.0508"/><ellipse cx="2103.5" cy="268.0508" fill="#EB937F" rx="11" ry="11" style="stroke: #A80036; stroke-width: 1.0;"/><path d="M2099.6406,273.5508 L2099.6406,262.3477 L2107.6719,262.3477 L2107.6719,264.2383 L2102.0938,264.2383 L2102.0938,266.9414 L2107.1719,266.9414 L2107.1719,268.832 L2102.0938,268.832 L2102.0938,271.6602 L2108.0156,271.6602 L2108.0156,273.5508 L2099.6406,273.5508 Z "/><text fill="#000000" font-family="sans-serif" font-size="12" lengthAdjust="spacingAndGlyphs" textLength="56" x="2117.5" y="272.7061">EntryType</text><line style="stroke: #A80036; stroke-width: 1.5;" x1="2089.5" x2="2175.5" y1="284.0508" y2="284.0508"/><line style="stroke: #A80036; stroke-width: 1.5;" x1="2089.5" x2="2175.5" y1="292.0508" y2="292.0508"/><rect fill="#FEFECE" filter="url(#f1)" height="48" style="stroke: #A80036; stroke-width: 1.5;" width="181" x="2042" y="667.0508"/><ellipse cx="2057" cy="683.0508" fill="#EB937F" rx="11" ry="11" style="stroke: #A80036; stroke-width: 1.0;"/><path d="M2053.1406,688.5508 L2053.1406,677.3477 L2061.1719,677.3477 L2061.1719,679.2383 L2055.5938,679.2383 L2055.5938,681.9414 L2060.6719,681.9414 L2060.6719,683.832 L2055.5938,683.832 L2055.5938,686.6602 L2061.5156,686.6602 L2061.5156,688.5508 L2053.1406,688.5508 Z "/><text fill="#000000" font-family="sans-serif" font-size="12" lengthAdjust="spacingAndGlyphs" textLength="149" x="2071" y="687.7061">KeyPerformanceIndicators</text><line style="stroke: #A80036; stroke-width: 1.5;" x1="2043" x2="2222" y1="699.0508" y2="699.0508"/><line style="stroke: #A80036; stroke-width: 1.5;" x1="2043" x2="2222" y1="707.0508" y2="707.0508"/><rect fill="#FEFECE" filter="url(#f1)" height="48" style="stroke: #A80036; stroke-width: 1.5;" width="124" x="2070.5" y="501.0508"/><ellipse cx="2085.5" cy="517.0508" fill="#ADD1B2" rx="11" ry="11" style="stroke: #A80036; stroke-width: 1.0;"/><path d="M2083.4063,516.8945 Q2083.4063,518.7695 2083.9844,519.7773 Q2084.5625,520.7852 2085.7188,520.7852 Q2087.0625,520.7852 2087.7188,518.7695 L2089.9844,519.1914 Q2088.875,522.7227 2085.7031,522.7227 Q2083.3594,522.7227 2082.1406,521.2383 Q2080.9219,519.7539 2080.9219,516.8945 Q2080.9219,511.1758 2085.625,511.1758 Q2087.1719,511.1758 2088.2109,511.9883 Q2089.25,512.8008 2089.75,514.4102 L2087.4844,514.957 Q2087.25,514.082 2086.7656,513.5898 Q2086.2813,513.0977 2085.6563,513.0977 Q2083.4063,513.0977 2083.4063,516.8945 Z "/><text fill="#000000" font-family="sans-serif" font-size="12" lengthAdjust="spacingAndGlyphs" textLength="92" x="2099.5" y="521.7061">OutputDataType</text><line style="stroke: #A80036; stroke-width: 1.5;" x1="2071.5" x2="2193.5" y1="533.0508" y2="533.0508"/><line style="stroke: #A80036; stroke-width: 1.5;" x1="2071.5" x2="2193.5" y1="541.0508" y2="541.0508"/><rect fill="#FEFECE" filter="url(#f1)" height="48" style="stroke: #A80036; stroke-width: 1.5;" width="68" x="2098.5" y="418.0508"/><ellipse cx="2113.5" cy="434.0508" fill="#ADD1B2" rx="11" ry="11" style="stroke: #A80036; stroke-width: 1.0;"/><path d="M2111.4063,433.8945 Q2111.4063,435.7695 2111.9844,436.7773 Q2112.5625,437.7852 2113.7188,437.7852 Q2115.0625,437.7852 2115.7188,435.7695 L2117.9844,436.1914 Q2116.875,439.7227 2113.7031,439.7227 Q2111.3594,439.7227 2110.1406,438.2383 Q2108.9219,436.7539 2108.9219,433.8945 Q2108.9219,428.1758 2113.625,428.1758 Q2115.1719,428.1758 2116.2109,428.9883 Q2117.25,429.8008 2117.75,431.4102 L2115.4844,431.957 Q2115.25,431.082 2114.7656,430.5898 Q2114.2813,430.0977 2113.6563,430.0977 Q2111.4063,430.0977 2111.4063,433.8945 Z "/><text fill="#000000" font-family="sans-serif" font-size="12" lengthAdjust="spacingAndGlyphs" textLength="36" x="2127.5" y="438.7061">Period</text><line style="stroke: #A80036; stroke-width: 1.5;" x1="2099.5" x2="2165.5" y1="450.0508" y2="450.0508"/><line style="stroke: #A80036; stroke-width: 1.5;" x1="2099.5" x2="2165.5" y1="458.0508" y2="458.0508"/><rect fill="#FEFECE" filter="url(#f1)" height="48" style="stroke: #A80036; stroke-width: 1.5;" width="89" x="2088" y="584.0508"/><ellipse cx="2103" cy="600.0508" fill="#EB937F" rx="11" ry="11" style="stroke: #A80036; stroke-width: 1.0;"/><path d="M2099.1406,605.5508 L2099.1406,594.3477 L2107.1719,594.3477 L2107.1719,596.2383 L2101.5938,596.2383 L2101.5938,598.9414 L2106.6719,598.9414 L2106.6719,600.832 L2101.5938,600.832 L2101.5938,603.6602 L2107.5156,603.6602 L2107.5156,605.5508 L2099.1406,605.5508 Z "/><text fill="#000000" font-family="sans-serif" font-size="12" lengthAdjust="spacingAndGlyphs" textLength="57" x="2117" y="604.7061">SalesType</text><line style="stroke: #A80036; stroke-width: 1.5;" x1="2089" x2="2176" y1="616.0508" y2="616.0508"/><line style="stroke: #A80036; stroke-width: 1.5;" x1="2089" x2="2176" y1="624.0508" y2="624.0508"/><rect fill="#FEFECE" filter="url(#f1)" height="48" style="stroke: #A80036; stroke-width: 1.5;" width="130" x="2328.5" y="335.0508"/><ellipse cx="2343.5" cy="351.0508" fill="#ADD1B2" rx="11" ry="11" style="stroke: #A80036; stroke-width: 1.0;"/><path d="M2341.4063,350.8945 Q2341.4063,352.7695 2341.9844,353.7773 Q2342.5625,354.7852 2343.7188,354.7852 Q2345.0625,354.7852 2345.7188,352.7695 L2347.9844,353.1914 Q2346.875,356.7227 2343.7031,356.7227 Q2341.3594,356.7227 2340.1406,355.2383 Q2338.9219,353.7539 2338.9219,350.8945 Q2338.9219,345.1758 2343.625,345.1758 Q2345.1719,345.1758 2346.2109,345.9883 Q2347.25,346.8008 2347.75,348.4102 L2345.4844,348.957 Q2345.25,348.082 2344.7656,347.5898 Q2344.2813,347.0977 2343.6563,347.0977 Q2341.4063,347.0977 2341.4063,350.8945 Z "/><text fill="#000000" font-family="sans-serif" font-size="12" lengthAdjust="spacingAndGlyphs" textLength="98" x="2357.5" y="355.7061">ZeroMonthPeriod</text><line style="stroke: #A80036; stroke-width: 1.5;" x1="2329.5" x2="2457.5" y1="367.0508" y2="367.0508"/><line style="stroke: #A80036; stroke-width: 1.5;" x1="2329.5" x2="2457.5" y1="375.0508" y2="375.0508"/><rect fill="#FEFECE" filter="url(#f1)" height="48" style="stroke: #A80036; stroke-width: 1.5;" width="158" x="2314.5" y="793.0508"/><ellipse cx="2329.5" cy="809.0508" fill="#ADD1B2" rx="11" ry="11" style="stroke: #A80036; stroke-width: 1.0;"/><path d="M2327.4063,808.8945 Q2327.4063,810.7695 2327.9844,811.7773 Q2328.5625,812.7852 2329.7188,812.7852 Q2331.0625,812.7852 2331.7188,810.7695 L2333.9844,811.1914 Q2332.875,814.7227 2329.7031,814.7227 Q2327.3594,814.7227 2326.1406,813.2383 Q2324.9219,811.7539 2324.9219,808.8945 Q2324.9219,803.1758 2329.625,803.1758 Q2331.1719,803.1758 2332.2109,803.9883 Q2333.25,804.8008 2333.75,806.4102 L2331.4844,806.957 Q2331.25,806.082 2330.7656,805.5898 Q2330.2813,805.0977 2329.6563,805.0977 Q2327.4063,805.0977 2327.4063,808.8945 Z "/><text fill="#000000" font-family="sans-serif" font-size="12" lengthAdjust="spacingAndGlyphs" textLength="126" x="2343.5" y="813.7061">ActualFixedCostsEntity</text><line style="stroke: #A80036; stroke-width: 1.5;" x1="2315.5" x2="2471.5" y1="825.0508" y2="825.0508"/><line style="stroke: #A80036; stroke-width: 1.5;" x1="2315.5" x2="2471.5" y1="833.0508" y2="833.0508"/><rect fill="#FEFECE" filter="url(#f1)" height="48" style="stroke: #A80036; stroke-width: 1.5;" width="128" x="2546.5" y="1208.0508"/><ellipse cx="2561.5" cy="1224.0508" fill="#ADD1B2" rx="11" ry="11" style="stroke: #A80036; stroke-width: 1.0;"/><path d="M2559.4063,1223.8945 Q2559.4063,1225.7695 2559.9844,1226.7773 Q2560.5625,1227.7852 2561.7188,1227.7852 Q2563.0625,1227.7852 2563.7188,1225.7695 L2565.9844,1226.1914 Q2564.875,1229.7227 2561.7031,1229.7227 Q2559.3594,1229.7227 2558.1406,1228.2383 Q2556.9219,1226.7539 2556.9219,1223.8945 Q2556.9219,1218.1758 2561.625,1218.1758 Q2563.1719,1218.1758 2564.2109,1218.9883 Q2565.25,1219.8008 2565.75,1221.4102 L2563.4844,1221.957 Q2563.25,1221.082 2562.7656,1220.5898 Q2562.2813,1220.0977 2561.6563,1220.0977 Q2559.4063,1220.0977 2559.4063,1223.8945 Z "/><text fill="#000000" font-family="sans-serif" font-size="12" lengthAdjust="spacingAndGlyphs" textLength="96" x="2575.5" y="1228.7061">ActualSalesEntity</text><line style="stroke: #A80036; stroke-width: 1.5;" x1="2547.5" x2="2673.5" y1="1240.0508" y2="1240.0508"/><line style="stroke: #A80036; stroke-width: 1.5;" x1="2547.5" x2="2673.5" y1="1248.0508" y2="1248.0508"/><rect fill="#FEFECE" filter="url(#f1)" height="48" style="stroke: #A80036; stroke-width: 1.5;" width="142" x="2322.5" y="1125.0508"/><ellipse cx="2337.5" cy="1141.0508" fill="#ADD1B2" rx="11" ry="11" style="stroke: #A80036; stroke-width: 1.0;"/><path d="M2335.4063,1140.8945 Q2335.4063,1142.7695 2335.9844,1143.7773 Q2336.5625,1144.7852 2337.7188,1144.7852 Q2339.0625,1144.7852 2339.7188,1142.7695 L2341.9844,1143.1914 Q2340.875,1146.7227 2337.7031,1146.7227 Q2335.3594,1146.7227 2334.1406,1145.2383 Q2332.9219,1143.7539 2332.9219,1140.8945 Q2332.9219,1135.1758 2337.625,1135.1758 Q2339.1719,1135.1758 2340.2109,1135.9883 Q2341.25,1136.8008 2341.75,1138.4102 L2339.4844,1138.957 Q2339.25,1138.082 2338.7656,1137.5898 Q2338.2813,1137.0977 2337.6563,1137.0977 Q2335.4063,1137.0977 2335.4063,1140.8945 Z "/><text fill="#000000" font-family="sans-serif" font-size="12" lengthAdjust="spacingAndGlyphs" textLength="110" x="2351.5" y="1145.7061">ExchangeRateEntity</text><line style="stroke: #A80036; stroke-width: 1.5;" x1="2323.5" x2="2463.5" y1="1157.0508" y2="1157.0508"/><line style="stroke: #A80036; stroke-width: 1.5;" x1="2323.5" x2="2463.5" y1="1165.0508" y2="1165.0508"/><rect fill="#FEFECE" filter="url(#f1)" height="48" style="stroke: #A80036; stroke-width: 1.5;" width="171" x="2308" y="959.0508"/><ellipse cx="2323" cy="975.0508" fill="#ADD1B2" rx="11" ry="11" style="stroke: #A80036; stroke-width: 1.0;"/><path d="M2320.9063,974.8945 Q2320.9063,976.7695 2321.4844,977.7773 Q2322.0625,978.7852 2323.2188,978.7852 Q2324.5625,978.7852 2325.2188,976.7695 L2327.4844,977.1914 Q2326.375,980.7227 2323.2031,980.7227 Q2320.8594,980.7227 2319.6406,979.2383 Q2318.4219,977.7539 2318.4219,974.8945 Q2318.4219,969.1758 2323.125,969.1758 Q2324.6719,969.1758 2325.7109,969.9883 Q2326.75,970.8008 2327.25,972.4102 L2324.9844,972.957 Q2324.75,972.082 2324.2656,971.5898 Q2323.7813,971.0977 2323.1563,971.0977 Q2320.9063,971.0977 2320.9063,974.8945 Z "/><text fill="#000000" font-family="sans-serif" font-size="12" lengthAdjust="spacingAndGlyphs" textLength="139" x="2337" y="979.7061">ForecastFixedCostsEntity</text><line style="stroke: #A80036; stroke-width: 1.5;" x1="2309" x2="2478" y1="991.0508" y2="991.0508"/><line style="stroke: #A80036; stroke-width: 1.5;" x1="2309" x2="2478" y1="999.0508" y2="999.0508"/><rect fill="#FEFECE" filter="url(#f1)" height="48" style="stroke: #A80036; stroke-width: 1.5;" width="141" x="2540" y="1125.0508"/><ellipse cx="2555" cy="1141.0508" fill="#ADD1B2" rx="11" ry="11" style="stroke: #A80036; stroke-width: 1.0;"/><path d="M2552.9063,1140.8945 Q2552.9063,1142.7695 2553.4844,1143.7773 Q2554.0625,1144.7852 2555.2188,1144.7852 Q2556.5625,1144.7852 2557.2188,1142.7695 L2559.4844,1143.1914 Q2558.375,1146.7227 2555.2031,1146.7227 Q2552.8594,1146.7227 2551.6406,1145.2383 Q2550.4219,1143.7539 2550.4219,1140.8945 Q2550.4219,1135.1758 2555.125,1135.1758 Q2556.6719,1135.1758 2557.7109,1135.9883 Q2558.75,1136.8008 2559.25,1138.4102 L2556.9844,1138.957 Q2556.75,1138.082 2556.2656,1137.5898 Q2555.7813,1137.0977 2555.1563,1137.0977 Q2552.9063,1137.0977 2552.9063,1140.8945 Z "/><text fill="#000000" font-family="sans-serif" font-size="12" lengthAdjust="spacingAndGlyphs" textLength="109" x="2569" y="1145.7061">ForecastSalesEntity</text><line style="stroke: #A80036; stroke-width: 1.5;" x1="2541" x2="2680" y1="1157.0508" y2="1157.0508"/><line style="stroke: #A80036; stroke-width: 1.5;" x1="2541" x2="2680" y1="1165.0508" y2="1165.0508"/><rect fill="#FEFECE" filter="url(#f1)" height="48" style="stroke: #A80036; stroke-width: 1.5;" width="136" x="2325.5" y="1042.0508"/><ellipse cx="2340.5" cy="1058.0508" fill="#ADD1B2" rx="11" ry="11" style="stroke: #A80036; stroke-width: 1.0;"/><path d="M2338.4063,1057.8945 Q2338.4063,1059.7695 2338.9844,1060.7773 Q2339.5625,1061.7852 2340.7188,1061.7852 Q2342.0625,1061.7852 2342.7188,1059.7695 L2344.9844,1060.1914 Q2343.875,1063.7227 2340.7031,1063.7227 Q2338.3594,1063.7227 2337.1406,1062.2383 Q2335.9219,1060.7539 2335.9219,1057.8945 Q2335.9219,1052.1758 2340.625,1052.1758 Q2342.1719,1052.1758 2343.2109,1052.9883 Q2344.25,1053.8008 2344.75,1055.4102 L2342.4844,1055.957 Q2342.25,1055.082 2341.7656,1054.5898 Q2341.2813,1054.0977 2340.6563,1054.0977 Q2338.4063,1054.0977 2338.4063,1057.8945 Z "/><text fill="#000000" font-family="sans-serif" font-size="12" lengthAdjust="spacingAndGlyphs" textLength="104" x="2354.5" y="1062.7061">OrgStructureEntity</text><line style="stroke: #A80036; stroke-width: 1.5;" x1="2326.5" x2="2460.5" y1="1074.0508" y2="1074.0508"/><line style="stroke: #A80036; stroke-width: 1.5;" x1="2326.5" x2="2460.5" y1="1082.0508" y2="1082.0508"/><rect fill="#FEFECE" filter="url(#f1)" height="48" style="stroke: #A80036; stroke-width: 1.5;" width="101" x="2343" y="876.0508"/><ellipse cx="2358" cy="892.0508" fill="#ADD1B2" rx="11" ry="11" style="stroke: #A80036; stroke-width: 1.0;"/><path d="M2355.9063,891.8945 Q2355.9063,893.7695 2356.4844,894.7773 Q2357.0625,895.7852 2358.2188,895.7852 Q2359.5625,895.7852 2360.2188,893.7695 L2362.4844,894.1914 Q2361.375,897.7227 2358.2031,897.7227 Q2355.8594,897.7227 2354.6406,896.2383 Q2353.4219,894.7539 2353.4219,891.8945 Q2353.4219,886.1758 2358.125,886.1758 Q2359.6719,886.1758 2360.7109,886.9883 Q2361.75,887.8008 2362.25,889.4102 L2359.9844,889.957 Q2359.75,889.082 2359.2656,888.5898 Q2358.7813,888.0977 2358.1563,888.0977 Q2355.9063,888.0977 2355.9063,891.8945 Z "/><text fill="#000000" font-family="sans-serif" font-size="12" lengthAdjust="spacingAndGlyphs" textLength="69" x="2372" y="896.7061">RegionEntity</text><line style="stroke: #A80036; stroke-width: 1.5;" x1="2344" x2="2443" y1="908.0508" y2="908.0508"/><line style="stroke: #A80036; stroke-width: 1.5;" x1="2344" x2="2443" y1="916.0508" y2="916.0508"/><rect fill="#FEFECE" filter="url(#f1)" height="48" style="stroke: #A80036; stroke-width: 1.5;" width="93" x="2347" y="1208.0508"/><ellipse cx="2362" cy="1224.0508" fill="#ADD1B2" rx="11" ry="11" style="stroke: #A80036; stroke-width: 1.0;"/><path d="M2359.9063,1223.8945 Q2359.9063,1225.7695 2360.4844,1226.7773 Q2361.0625,1227.7852 2362.2188,1227.7852 Q2363.5625,1227.7852 2364.2188,1225.7695 L2366.4844,1226.1914 Q2365.375,1229.7227 2362.2031,1229.7227 Q2359.8594,1229.7227 2358.6406,1228.2383 Q2357.4219,1226.7539 2357.4219,1223.8945 Q2357.4219,1218.1758 2362.125,1218.1758 Q2363.6719,1218.1758 2364.7109,1218.9883 Q2365.75,1219.8008 2366.25,1221.4102 L2363.9844,1221.957 Q2363.75,1221.082 2363.2656,1220.5898 Q2362.7813,1220.0977 2362.1563,1220.0977 Q2359.9063,1220.0977 2359.9063,1223.8945 Z "/><text fill="#000000" font-family="sans-serif" font-size="12" lengthAdjust="spacingAndGlyphs" textLength="61" x="2376" y="1228.7061">SalesEntity</text><line style="stroke: #A80036; stroke-width: 1.5;" x1="2348" x2="2439" y1="1240.0508" y2="1240.0508"/><line style="stroke: #A80036; stroke-width: 1.5;" x1="2348" x2="2439" y1="1248.0508" y2="1248.0508"/><rect fill="#FEFECE" filter="url(#f1)" height="77.96" style="stroke: #A80036; stroke-width: 1.5;" width="232" x="400" y="887.0508"/><ellipse cx="491.25" cy="903.0508" fill="#ADD1B2" rx="11" ry="11" style="stroke: #A80036; stroke-width: 1.0;"/><path d="M489.1563,902.8945 Q489.1563,904.7695 489.7344,905.7773 Q490.3125,906.7852 491.4688,906.7852 Q492.8125,906.7852 493.4688,904.7695 L495.7344,905.1914 Q494.625,908.7227 491.4531,908.7227 Q489.1094,908.7227 487.8906,907.2383 Q486.6719,905.7539 486.6719,902.8945 Q486.6719,897.1758 491.375,897.1758 Q492.9219,897.1758 493.9609,897.9883 Q495,898.8008 495.5,900.4102 L493.2344,900.957 Q493,900.082 492.5156,899.5898 Q492.0313,899.0977 491.4063,899.0977 Q489.1563,899.0977 489.1563,902.8945 Z "/><text fill="#000000" font-family="sans-serif" font-size="12" lengthAdjust="spacingAndGlyphs" textLength="41" x="511.75" y="907.7061">Service</text><line style="stroke: #A80036; stroke-width: 1.5;" x1="401" x2="631" y1="919.0508" y2="919.0508"/><line style="stroke: #A80036; stroke-width: 1.5;" x1="401" x2="631" y1="927.0508" y2="927.0508"/><ellipse cx="411" cy="940.0408" fill="#84BE84" rx="3" ry="3" style="stroke: #038048; stroke-width: 1.0;"/><text fill="#000000" font-family="sans-serif" font-size="11" lengthAdjust="spacingAndGlyphs" textLength="206" x="420" y="942.8081">CassandraConnection : getConnection()</text><ellipse cx="411" cy="955.0208" fill="#84BE84" rx="3" ry="3" style="stroke: #038048; stroke-width: 1.0;"/><text fill="#000000" font-family="sans-serif" font-size="11" lengthAdjust="spacingAndGlyphs" text-decoration="underline" textLength="142" x="420" y="957.7881">int : getNumberOfMonths()</text><line style="stroke: #000000; stroke-width: 1.0;" x1="420" x2="562" y1="959.7881" y2="959.7881"/><rect fill="#FEFECE" filter="url(#f1)" height="62.98" style="stroke: #A80036; stroke-width: 1.5;" width="224" x="715" y="889.5508"/><ellipse cx="787.25" cy="905.5508" fill="#ADD1B2" rx="11" ry="11" style="stroke: #A80036; stroke-width: 1.0;"/><path d="M785.1563,905.3945 Q785.1563,907.2695 785.7344,908.2773 Q786.3125,909.2852 787.4688,909.2852 Q788.8125,909.2852 789.4688,907.2695 L791.7344,907.6914 Q790.625,911.2227 787.4531,911.2227 Q785.1094,911.2227 783.8906,909.7383 Q782.6719,908.2539 782.6719,905.3945 Q782.6719,899.6758 787.375,899.6758 Q788.9219,899.6758 789.9609,900.4883 Q791,901.3008 791.5,902.9102 L789.2344,903.457 Q789,902.582 788.5156,902.0898 Q788.0313,901.5977 787.4063,901.5977 Q785.1563,901.5977 785.1563,905.3945 Z "/><text fill="#000000" font-family="sans-serif" font-size="12" lengthAdjust="spacingAndGlyphs" textLength="71" x="807.75" y="910.2061">SalesService</text><line style="stroke: #A80036; stroke-width: 1.5;" x1="716" x2="938" y1="921.5508" y2="921.5508"/><line style="stroke: #A80036; stroke-width: 1.5;" x1="716" x2="938" y1="929.5508" y2="929.5508"/><ellipse cx="726" cy="942.5408" fill="#84BE84" rx="3" ry="3" style="stroke: #038048; stroke-width: 1.0;"/><text fill="#000000" font-family="sans-serif" font-size="11" lengthAdjust="spacingAndGlyphs" textLength="198" x="735" y="945.3081">List&lt;OutputDataType&gt; : getSalesKPIs()</text><rect fill="#FEFECE" filter="url(#f1)" height="77.96" style="stroke: #A80036; stroke-width: 1.5;" width="168" x="1715" y="1055.0508"/><ellipse cx="1735.4" cy="1071.0508" fill="#ADD1B2" rx="11" ry="11" style="stroke: #A80036; stroke-width: 1.0;"/><path d="M1733.3063,1070.8945 Q1733.3063,1072.7695 1733.8844,1073.7773 Q1734.4625,1074.7852 1735.6188,1074.7852 Q1736.9625,1074.7852 1737.6188,1072.7695 L1739.8844,1073.1914 Q1738.775,1076.7227 1735.6031,1076.7227 Q1733.2594,1076.7227 1732.0406,1075.2383 Q1730.8219,1073.7539 1730.8219,1070.8945 Q1730.8219,1065.1758 1735.525,1065.1758 Q1737.0719,1065.1758 1738.1109,1065.9883 Q1739.15,1066.8008 1739.65,1068.4102 L1737.3844,1068.957 Q1737.15,1068.082 1736.6656,1067.5898 Q1736.1813,1067.0977 1735.5563,1067.0977 Q1733.3063,1067.0977 1733.3063,1070.8945 Z "/><text fill="#000000" font-family="sans-serif" font-size="12" lengthAdjust="spacingAndGlyphs" textLength="124" x="1750.6" y="1075.7061">ExchangeRateRequest</text><line style="stroke: #A80036; stroke-width: 1.5;" x1="1716" x2="1882" y1="1087.0508" y2="1087.0508"/><line style="stroke: #A80036; stroke-width: 1.5;" x1="1716" x2="1882" y1="1095.0508" y2="1095.0508"/><ellipse cx="1726" cy="1108.0408" fill="#84BE84" rx="3" ry="3" style="stroke: #038048; stroke-width: 1.0;"/><text fill="#000000" font-family="sans-serif" font-size="11" lengthAdjust="spacingAndGlyphs" textLength="142" x="1735" y="1110.8081">double : getExchangeRate()</text><ellipse cx="1726" cy="1123.0208" fill="#84BE84" rx="3" ry="3" style="stroke: #038048; stroke-width: 1.0;"/><text fill="#000000" font-family="sans-serif" font-size="11" lengthAdjust="spacingAndGlyphs" textLength="125" x="1735" y="1125.7881">String : getToCurrency()</text><rect fill="#FEFECE" filter="url(#f1)" height="48" style="stroke: #A80036; stroke-width: 1.5;" width="96" x="1127.5" y="1126.0508"/><ellipse cx="1142.5" cy="1142.0508" fill="#A9DCDF" rx="11" ry="11" style="stroke: #A80036; stroke-width: 1.0;"/><path d="M1147.7031,1146.5508 L1145.2656,1146.5508 L1144.5,1143.8164 L1140.7188,1143.8164 L1139.9531,1146.5508 L1137.5,1146.5508 L1141.1719,1135.3477 L1144.0313,1135.3477 L1147.7031,1146.5508 Z M1142.6094,1136.8633 Q1142.5313,1137.207 1142.3594,1137.9023 Q1142.1875,1138.5977 1141.2344,1141.9727 L1143.9844,1141.9727 Q1143.0156,1138.5508 1142.8438,1137.8789 Q1142.6719,1137.207 1142.6094,1136.8633 Z "/><text fill="#000000" font-family="sans-serif" font-size="12" font-style="italic" lengthAdjust="spacingAndGlyphs" textLength="64" x="1156.5" y="1146.7061">KpiRequests</text><line style="stroke: #A80036; stroke-width: 1.5;" x1="1128.5" x2="1222.5" y1="1158.0508" y2="1158.0508"/><line style="stroke: #A80036; stroke-width: 1.5;" x1="1128.5" x2="1222.5" y1="1166.0508" y2="1166.0508"/><rect fill="#FEFECE" filter="url(#f1)" height="77.96" style="stroke: #A80036; stroke-width: 1.5;" width="307" x="1022" y="1013.0508"/><ellipse cx="1082.25" cy="1029.0508" fill="#ADD1B2" rx="11" ry="11" style="stroke: #A80036; stroke-width: 1.0;"/><path d="M1080.1563,1028.8945 Q1080.1563,1030.7695 1080.7344,1031.7773 Q1081.3125,1032.7852 1082.4688,1032.7852 Q1083.8125,1032.7852 1084.4688,1030.7695 L1086.7344,1031.1914 Q1085.625,1034.7227 1082.4531,1034.7227 Q1080.1094,1034.7227 1078.8906,1033.2383 Q1077.6719,1031.7539 1077.6719,1028.8945 Q1077.6719,1023.1758 1082.375,1023.1758 Q1083.9219,1023.1758 1084.9609,1023.9883 Q1086,1024.8008 1086.5,1026.4102 L1084.2344,1026.957 Q1084,1026.082 1083.5156,1025.5898 Q1083.0313,1025.0977 1082.4063,1025.0977 Q1080.1563,1025.0977 1080.1563,1028.8945 Z "/><text fill="#000000" font-family="sans-serif" font-size="12" lengthAdjust="spacingAndGlyphs" textLength="178" x="1102.75" y="1033.7061">OrgStructureAndRegionRequest</text><line style="stroke: #A80036; stroke-width: 1.5;" x1="1023" x2="1328" y1="1045.0508" y2="1045.0508"/><line style="stroke: #A80036; stroke-width: 1.5;" x1="1023" x2="1328" y1="1053.0508" y2="1053.0508"/><ellipse cx="1033" cy="1066.0408" fill="#84BE84" rx="3" ry="3" style="stroke: #038048; stroke-width: 1.0;"/><text fill="#000000" font-family="sans-serif" font-size="11" lengthAdjust="spacingAndGlyphs" textLength="216" x="1042" y="1068.8081">Set&lt;String&gt; : getRegionsAsSetFromSales()</text><ellipse cx="1033" cy="1081.0208" fill="#84BE84" rx="3" ry="3" style="stroke: #038048; stroke-width: 1.0;"/><text fill="#000000" font-family="sans-serif" font-size="11" lengthAdjust="spacingAndGlyphs" textLength="281" x="1042" y="1083.7881">Set&lt;String&gt; : getProductMainGroupsAsSetFromSales()</text><rect fill="#FEFECE" filter="url(#f1)" height="77.96" style="stroke: #A80036; stroke-width: 1.5;" width="199" x="727.5" y="1070.0508"/><ellipse cx="800.25" cy="1086.0508" fill="#ADD1B2" rx="11" ry="11" style="stroke: #A80036; stroke-width: 1.0;"/><path d="M798.1563,1085.8945 Q798.1563,1087.7695 798.7344,1088.7773 Q799.3125,1089.7852 800.4688,1089.7852 Q801.8125,1089.7852 802.4688,1087.7695 L804.7344,1088.1914 Q803.625,1091.7227 800.4531,1091.7227 Q798.1094,1091.7227 796.8906,1090.2383 Q795.6719,1088.7539 795.6719,1085.8945 Q795.6719,1080.1758 800.375,1080.1758 Q801.9219,1080.1758 802.9609,1080.9883 Q804,1081.8008 804.5,1083.4102 L802.2344,1083.957 Q802,1083.082 801.5156,1082.5898 Q801.0313,1082.0977 800.4063,1082.0977 Q798.1563,1082.0977 798.1563,1085.8945 Z "/><text fill="#000000" font-family="sans-serif" font-size="12" lengthAdjust="spacingAndGlyphs" textLength="45" x="820.75" y="1090.7061">Request</text><line style="stroke: #A80036; stroke-width: 1.5;" x1="728.5" x2="925.5" y1="1102.0508" y2="1102.0508"/><line style="stroke: #A80036; stroke-width: 1.5;" x1="728.5" x2="925.5" y1="1110.0508" y2="1110.0508"/><ellipse cx="738.5" cy="1123.0408" fill="#84BE84" rx="3" ry="3" style="stroke: #038048; stroke-width: 1.0;"/><text fill="#000000" font-family="sans-serif" font-size="11" lengthAdjust="spacingAndGlyphs" textLength="110" x="747.5" y="1125.8081">Session : getSession()</text><ellipse cx="738.5" cy="1138.0208" fill="#84BE84" rx="3" ry="3" style="stroke: #038048; stroke-width: 1.0;"/><text fill="#000000" font-family="sans-serif" font-size="11" lengthAdjust="spacingAndGlyphs" textLength="173" x="747.5" y="1140.7881">MappingManager : getManager()</text><rect fill="#FEFECE" filter="url(#f1)" height="62.98" style="stroke: #A80036; stroke-width: 1.5;" width="220" x="1412" y="1013.5508"/><ellipse cx="1480.25" cy="1029.5508" fill="#ADD1B2" rx="11" ry="11" style="stroke: #A80036; stroke-width: 1.0;"/><path d="M1478.1563,1029.3945 Q1478.1563,1031.2695 1478.7344,1032.2773 Q1479.3125,1033.2852 1480.4688,1033.2852 Q1481.8125,1033.2852 1482.4688,1031.2695 L1484.7344,1031.6914 Q1483.625,1035.2227 1480.4531,1035.2227 Q1478.1094,1035.2227 1476.8906,1033.7383 Q1475.6719,1032.2539 1475.6719,1029.3945 Q1475.6719,1023.6758 1480.375,1023.6758 Q1481.9219,1023.6758 1482.9609,1024.4883 Q1484,1025.3008 1484.5,1026.9102 L1482.2344,1027.457 Q1482,1026.582 1481.5156,1026.0898 Q1481.0313,1025.5977 1480.4063,1025.5977 Q1478.1563,1025.5977 1478.1563,1029.3945 Z "/><text fill="#000000" font-family="sans-serif" font-size="12" lengthAdjust="spacingAndGlyphs" textLength="75" x="1500.75" y="1034.2061">SalesRequest</text><line style="stroke: #A80036; stroke-width: 1.5;" x1="1413" x2="1631" y1="1045.5508" y2="1045.5508"/><line style="stroke: #A80036; stroke-width: 1.5;" x1="1413" x2="1631" y1="1053.5508" y2="1053.5508"/><ellipse cx="1423" cy="1066.5408" fill="#84BE84" rx="3" ry="3" style="stroke: #038048; stroke-width: 1.0;"/><text fill="#000000" font-family="sans-serif" font-size="11" lengthAdjust="spacingAndGlyphs" textLength="194" x="1432" y="1069.3081">List&lt;OutputDataType&gt;: getSalesKpis()</text><rect fill="#FEFECE" filter="url(#f1)" height="62.98" style="stroke: #A80036; stroke-width: 1.5;" width="138" x="1106.5" y="745.5508"/><ellipse cx="1127.35" cy="761.5508" fill="#EB937F" rx="11" ry="11" style="stroke: #A80036; stroke-width: 1.0;"/><path d="M1123.4906,767.0508 L1123.4906,755.8477 L1131.5219,755.8477 L1131.5219,757.7383 L1125.9438,757.7383 L1125.9438,760.4414 L1131.0219,760.4414 L1131.0219,762.332 L1125.9438,762.332 L1125.9438,765.1602 L1131.8656,765.1602 L1131.8656,767.0508 L1123.4906,767.0508 Z "/><text fill="#000000" font-family="sans-serif" font-size="12" lengthAdjust="spacingAndGlyphs" textLength="93" x="1142.65" y="766.2061">KeyspaceNames</text><line style="stroke: #A80036; stroke-width: 1.5;" x1="1107.5" x2="1243.5" y1="777.5508" y2="777.5508"/><line style="stroke: #A80036; stroke-width: 1.5;" x1="1107.5" x2="1243.5" y1="785.5508" y2="785.5508"/><ellipse cx="1117.5" cy="798.5408" fill="#84BE84" rx="3" ry="3" style="stroke: #038048; stroke-width: 1.0;"/><text fill="#000000" font-family="sans-serif" font-size="11" lengthAdjust="spacingAndGlyphs" textLength="112" x="1126.5" y="801.3081">String : getKeyspace()</text><rect fill="#FEFECE" filter="url(#f1)" height="62.98" style="stroke: #A80036; stroke-width: 1.5;" width="132" x="1109.5" y="647.5508"/><ellipse cx="1126.75" cy="663.5508" fill="#EB937F" rx="11" ry="11" style="stroke: #A80036; stroke-width: 1.0;"/><path d="M1122.8906,669.0508 L1122.8906,657.8477 L1130.9219,657.8477 L1130.9219,659.7383 L1125.3438,659.7383 L1125.3438,662.4414 L1130.4219,662.4414 L1130.4219,664.332 L1125.3438,664.332 L1125.3438,667.1602 L1131.2656,667.1602 L1131.2656,669.0508 L1122.8906,669.0508 Z "/><text fill="#000000" font-family="sans-serif" font-size="12" lengthAdjust="spacingAndGlyphs" textLength="95" x="1141.25" y="668.2061">ClusterEndpoints</text><line style="stroke: #A80036; stroke-width: 1.5;" x1="1110.5" x2="1240.5" y1="679.5508" y2="679.5508"/><line style="stroke: #A80036; stroke-width: 1.5;" x1="1110.5" x2="1240.5" y1="687.5508" y2="687.5508"/><ellipse cx="1120.5" cy="700.5408" fill="#84BE84" rx="3" ry="3" style="stroke: #038048; stroke-width: 1.0;"/><text fill="#000000" font-family="sans-serif" font-size="11" lengthAdjust="spacingAndGlyphs" textLength="106" x="1129.5" y="703.3081">String : getAddress()</text><rect fill="#FEFECE" filter="url(#f1)" height="92.9399" style="stroke: #A80036; stroke-width: 1.5;" width="199" x="727.5" y="704.5508"/><ellipse cx="762.3" cy="720.5508" fill="#ADD1B2" rx="11" ry="11" style="stroke: #A80036; stroke-width: 1.0;"/><path d="M760.2063,720.3945 Q760.2063,722.2695 760.7844,723.2773 Q761.3625,724.2852 762.5188,724.2852 Q763.8625,724.2852 764.5188,722.2695 L766.7844,722.6914 Q765.675,726.2227 762.5031,726.2227 Q760.1594,726.2227 758.9406,724.7383 Q757.7219,723.2539 757.7219,720.3945 Q757.7219,714.6758 762.425,714.6758 Q763.9719,714.6758 765.0109,715.4883 Q766.05,716.3008 766.55,717.9102 L764.2844,718.457 Q764.05,717.582 763.5656,717.0898 Q763.0813,716.5977 762.4563,716.5977 Q760.2063,716.5977 760.2063,720.3945 Z "/><text fill="#000000" font-family="sans-serif" font-size="12" lengthAdjust="spacingAndGlyphs" textLength="123" x="780.7" y="725.2061">CassandraConnection</text><line style="stroke: #A80036; stroke-width: 1.5;" x1="728.5" x2="925.5" y1="736.5508" y2="736.5508"/><line style="stroke: #A80036; stroke-width: 1.5;" x1="728.5" x2="925.5" y1="744.5508" y2="744.5508"/><ellipse cx="738.5" cy="757.5408" fill="#84BE84" rx="3" ry="3" style="stroke: #038048; stroke-width: 1.0;"/><text fill="#000000" font-family="sans-serif" font-size="11" lengthAdjust="spacingAndGlyphs" textLength="110" x="747.5" y="760.3081">Session : getSession()</text><ellipse cx="738.5" cy="772.5208" fill="#84BE84" rx="3" ry="3" style="stroke: #038048; stroke-width: 1.0;"/><text fill="#000000" font-family="sans-serif" font-size="11" lengthAdjust="spacingAndGlyphs" textLength="173" x="747.5" y="775.2881">MappingManager : getManager()</text><ellipse cx="738.5" cy="787.5007" fill="#84BE84" rx="3" ry="3" style="stroke: #038048; stroke-width: 1.0;"/><text fill="#000000" font-family="sans-serif" font-size="11" lengthAdjust="spacingAndGlyphs" textLength="124" x="747.5" y="790.2681">void : closeConnection()</text><rect fill="#FEFECE" filter="url(#f1)" height="48" style="stroke: #A80036; stroke-width: 1.5;" width="251" x="86" y="1330.0508"/><ellipse cx="101" cy="1346.0508" fill="#ADD1B2" rx="11" ry="11" style="stroke: #A80036; stroke-width: 1.0;"/><path d="M98.9063,1345.8945 Q98.9063,1347.7695 99.4844,1348.7773 Q100.0625,1349.7852 101.2188,1349.7852 Q102.5625,1349.7852 103.2188,1347.7695 L105.4844,1348.1914 Q104.375,1351.7227 101.2031,1351.7227 Q98.8594,1351.7227 97.6406,1350.2383 Q96.4219,1348.7539 96.4219,1345.8945 Q96.4219,1340.1758 101.125,1340.1758 Q102.6719,1340.1758 103.7109,1340.9883 Q104.75,1341.8008 105.25,1343.4102 L102.9844,1343.957 Q102.75,1343.082 102.2656,1342.5898 Q101.7813,1342.0977 101.1563,1342.0977 Q98.9063,1342.0977 98.9063,1345.8945 Z "/><text fill="#000000" font-family="sans-serif" font-size="12" lengthAdjust="spacingAndGlyphs" textLength="103" x="115" y="1350.7061">ApplicationService</text><rect fill="#FFFFFF" height="18.3418" style="stroke: #000000; stroke-width: 1.0; stroke-dasharray: 2.0,2.0;" width="114" x="226" y="1327.0508"/><text fill="#000000" font-family="sans-serif" font-size="12" font-style="italic" lengthAdjust="spacingAndGlyphs" textLength="112" x="227" y="1340.877">? extends Application</text><line style="stroke: #A80036; stroke-width: 1.5;" x1="87" x2="336" y1="1362.0508" y2="1362.0508"/><line style="stroke: #A80036; stroke-width: 1.5;" x1="87" x2="336" y1="1370.0508" y2="1370.0508"/><rect fill="#FEFECE" filter="url(#f1)" height="62.98" style="stroke: #A80036; stroke-width: 1.5;" width="151" x="440.5" y="1322.5508"/><ellipse cx="479.35" cy="1338.5508" fill="#ADD1B2" rx="11" ry="11" style="stroke: #A80036; stroke-width: 1.0;"/><path d="M477.2563,1338.3945 Q477.2563,1340.2695 477.8344,1341.2773 Q478.4125,1342.2852 479.5688,1342.2852 Q480.9125,1342.2852 481.5688,1340.2695 L483.8344,1340.6914 Q482.725,1344.2227 479.5531,1344.2227 Q477.2094,1344.2227 475.9906,1342.7383 Q474.7719,1341.2539 474.7719,1338.3945 Q474.7719,1332.6758 479.475,1332.6758 Q481.0219,1332.6758 482.0609,1333.4883 Q483.1,1334.3008 483.6,1335.9102 L481.3344,1336.457 Q481.1,1335.582 480.6156,1335.0898 Q480.1313,1334.5977 479.5063,1334.5977 Q477.2563,1334.5977 477.2563,1338.3945 Z "/><text fill="#000000" font-family="sans-serif" font-size="12" lengthAdjust="spacingAndGlyphs" textLength="66" x="498.65" y="1343.2061">ForecastWS</text><line style="stroke: #A80036; stroke-width: 1.5;" x1="441.5" x2="590.5" y1="1354.5508" y2="1354.5508"/><ellipse cx="451.5" cy="1367.5408" fill="none" rx="3" ry="3" style="stroke: #038048; stroke-width: 1.0;"/><text fill="#000000" font-family="sans-serif" font-size="11" lengthAdjust="spacingAndGlyphs" textLength="125" x="460.5" y="1370.3081">Response : getSalesKPIs</text><line style="stroke: #A80036; stroke-width: 1.5;" x1="441.5" x2="590.5" y1="1377.5308" y2="1377.5308"/><path d="M2459.04,1207.1368 C2486.98,1196.3488 2519.56,1183.7698 2547.25,1173.0818 " fill="none" style="stroke: #A80036; stroke-width: 1.0;"/><polygon fill="none" points="2461.27,1213.7758,2440.1,1214.4488,2456.23,1200.7158,2461.27,1213.7758" style="stroke: #A80036; stroke-width: 1.0;"/><path d="M2460.49,1232.0508 C2487.83,1232.0508 2519.41,1232.0508 2546.44,1232.0508 " fill="none" style="stroke: #A80036; stroke-width: 1.0;"/><polygon fill="none" points="2460.1,1239.0508,2440.1,1232.0508,2460.1,1225.0508,2460.1,1239.0508" style="stroke: #A80036; stroke-width: 1.0;"/><path d="M2166.64,1297.3298 C2195.04,1323.3198 2238.47,1357.4028 2284,1372.0508 C2367.98,1399.0665 2401.84,1407.7845 2482.5,1372.0508 C2536.06,1348.3248 2576.67,1289.6198 2596.35,1256.2508 " fill="none" style="stroke: #A80036; stroke-width: 1.0;"/><polygon fill="#A80036" points="2156.88,1288.1718,2158.5165,1295.1947,2165.6287,1296.3852,2163.9922,1289.3623,2156.88,1288.1718" style="stroke: #A80036; stroke-width: 1.0;"/><text fill="#000000" font-family="sans-serif" font-size="13" lengthAdjust="spacingAndGlyphs" textLength="21" x="2383" y="1367.9458">use</text><path d="M2222.06,1170.1098 C2254.82,1166.0618 2291.48,1161.5328 2322.38,1157.7148 " fill="none" style="stroke: #A80036; stroke-width: 1.0;"/><polygon fill="#A80036" points="2208.76,1171.7518,2215.2031,1174.99,2220.6704,1170.288,2214.2273,1167.0498,2208.76,1171.7518" style="stroke: #A80036; stroke-width: 1.0;"/><text fill="#000000" font-family="sans-serif" font-size="13" lengthAdjust="spacingAndGlyphs" textLength="21" x="2254" y="1159.9458">use</text><path d="M2218.2,1127.6668 C2223.4,1131.3438 2228.24,1135.4558 2232.5,1140.0508 C2281.26,1192.6888 2225.73,1251.1838 2284,1293.0508 C2355.65,1344.5298 2406.33,1337.5538 2482.5,1293.0508 C2527.43,1266.7998 2503.76,1228.4018 2540,1191.0508 C2546.48,1184.3728 2554.24,1178.3458 2562.18,1173.0798 " fill="none" style="stroke: #A80036; stroke-width: 1.0;"/><polygon fill="#A80036" points="2207.1,1120.7168,2210.0623,1127.2914,2217.2704,1127.0857,2214.3082,1120.5111,2207.1,1120.7168" style="stroke: #A80036; stroke-width: 1.0;"/><text fill="#000000" font-family="sans-serif" font-size="13" lengthAdjust="spacingAndGlyphs" textLength="21" x="2383" y="1288.9458">use</text><path d="M2219.27,1031.9408 C2253.69,1038.7168 2292.77,1046.4128 2325.09,1052.7768 " fill="none" style="stroke: #A80036; stroke-width: 1.0;"/><polygon fill="#A80036" points="2206.34,1029.3928,2211.4532,1034.4776,2218.1135,1031.7135,2213.0003,1026.6286,2206.34,1029.3928" style="stroke: #A80036; stroke-width: 1.0;"/><text fill="#000000" font-family="sans-serif" font-size="13" lengthAdjust="spacingAndGlyphs" textLength="21" x="2254" y="1033.9458">use</text><path d="M2202.71,923.4998 C2246.92,918.0378 2303.21,911.0828 2342.97,906.1708 " fill="none" style="stroke: #A80036; stroke-width: 1.0;"/><polygon fill="#A80036" points="2189.7,925.1068,2196.1467,928.3379,2201.6088,923.6299,2195.1621,920.3987,2189.7,925.1068" style="stroke: #A80036; stroke-width: 1.0;"/><text fill="#000000" font-family="sans-serif" font-size="13" lengthAdjust="spacingAndGlyphs" textLength="21" x="2254" y="910.9458">use</text><path d="M946.972,1123.1288 C1008.95,1130.4628 1081.25,1139.0168 1127.42,1144.4798 " fill="none" style="stroke: #A80036; stroke-width: 1.0;"/><polygon fill="none" points="945.868,1130.0468,926.829,1120.7448,947.513,1116.1438,945.868,1130.0468" style="stroke: #A80036; stroke-width: 1.0;"/><path d="M1243.13,1133.0968 C1283.56,1122.4338 1336.04,1107.9168 1382,1093.0508 C1398.03,1087.8648 1415.04,1082.1628 1431.45,1076.5548 " fill="none" style="stroke: #A80036; stroke-width: 1.0;"/><polygon fill="none" points="1244.89,1139.8738,1223.77,1138.1548,1241.35,1126.3278,1244.89,1139.8738" style="stroke: #A80036; stroke-width: 1.0;"/><path d="M946.724,1089.5208 C970.906,1085.5428 996.666,1081.3048 1021.84,1077.1638 " fill="none" style="stroke: #A80036; stroke-width: 1.0;"/><polygon fill="none" points="947.7,1096.4538,926.829,1092.7928,945.428,1082.6398,947.7,1096.4538" style="stroke: #A80036; stroke-width: 1.0;"/><path d="M1895.96,1119.2348 C1947.04,1132.6408 2008.94,1148.8848 2056.46,1161.3558 " fill="none" style="stroke: #A80036; stroke-width: 1.0;"/><polygon fill="#A80036" points="1883.22,1115.8918,1888.0081,1121.2838,1894.8269,1118.9379,1890.0388,1113.5459,1883.22,1115.8918" style="stroke: #A80036; stroke-width: 1.0;"/><text fill="#000000" font-family="sans-serif" font-size="13" lengthAdjust="spacingAndGlyphs" textLength="21" x="1964" y="1132.9458">use</text><path d="M1236.98,1149.2188 C1269.01,1145.4338 1306.31,1135.0948 1329,1109.0508 C1399.04,1028.6708 1292.54,954.4168 1359,871.0508 C1523.81,664.3088 1875.94,666.4298 2041.7,680.4118 " fill="none" style="stroke: #A80036; stroke-width: 1.0;"/><polygon fill="#A80036" points="1223.63,1150.4658,1229.9774,1153.8878,1235.5775,1149.3449,1229.2301,1145.9228,1223.63,1150.4658" style="stroke: #A80036; stroke-width: 1.0;"/><text fill="#000000" font-family="sans-serif" font-size="13" lengthAdjust="spacingAndGlyphs" textLength="21" x="1663" y="692.9458">use</text><path d="M1624.15,1009.8898 C1720.14,983.5318 1863.01,963.4318 1955,1038.0508 C2020.26,1090.9868 1937.07,1161.2468 1994,1223.0508 C2011.97,1242.5628 2038.79,1252.9368 2063.98,1258.3978 " fill="none" style="stroke: #A80036; stroke-width: 1.0;"/><polygon fill="#A80036" points="1611.52,1013.4698,1618.383,1015.6831,1623.0657,1010.1993,1616.2027,1007.9859,1611.52,1013.4698" style="stroke: #A80036; stroke-width: 1.0;"/><text fill="#000000" font-family="sans-serif" font-size="13" lengthAdjust="spacingAndGlyphs" textLength="21" x="1788.5" y="980.9458">use</text><path d="M1583.3,1006.8078 C1672.31,955.7298 1840.65,880.1938 1955,958.0508 C1994.09,984.6658 1959.16,1025.0708 1994,1057.0508 C2011.52,1073.1378 2035.11,1082.9288 2057.79,1088.8818 " fill="none" style="stroke: #A80036; stroke-width: 1.0;"/><polygon fill="#A80036" points="1572.06,1013.3688,1579.2584,1013.7965,1582.4218,1007.3163,1575.2234,1006.8886,1572.06,1013.3688" style="stroke: #A80036; stroke-width: 1.0;"/><text fill="#000000" font-family="sans-serif" font-size="13" lengthAdjust="spacingAndGlyphs" textLength="21" x="1788.5" y="919.9458">use</text><path d="M1645.44,1075.9238 C1651.03,1077.0408 1656.56,1078.0908 1662,1079.0508 C1678.96,1082.0468 1697.22,1084.5498 1714.69,1086.5968 " fill="none" style="stroke: #A80036; stroke-width: 1.0;"/><polygon fill="#A80036" points="1632.36,1073.2088,1637.4215,1078.345,1644.1094,1075.6483,1639.0479,1070.5121,1632.36,1073.2088" style="stroke: #A80036; stroke-width: 1.0;"/><text fill="#000000" font-family="sans-serif" font-size="13" lengthAdjust="spacingAndGlyphs" textLength="21" x="1663" y="1074.9458">use</text><path d="M1569.82,1004.7398 C1607.57,973.2988 1662.78,929.6428 1715,897.0508 C1837.32,820.6988 1991.89,750.5368 2074.03,715.1468 " fill="none" style="stroke: #A80036; stroke-width: 1.0;"/><polygon fill="#A80036" points="1559.65,1013.2648,1566.8175,1012.4729,1568.8432,1005.5521,1561.6757,1006.3441,1559.65,1013.2648" style="stroke: #A80036; stroke-width: 1.0;"/><text fill="#000000" font-family="sans-serif" font-size="13" lengthAdjust="spacingAndGlyphs" textLength="21" x="1788.5" y="763.9458">use</text><path d="M652.337,923.8608 C673.253,923.5228 694.646,923.1758 714.949,922.8478 " fill="none" style="stroke: #A80036; stroke-width: 1.0;"/><polygon fill="none" points="652.171,930.8648,632.06,924.1888,651.944,916.8658,652.171,930.8648" style="stroke: #A80036; stroke-width: 1.0;"/><path d="M952.118,936.0748 C1053.87,949.2438 1201.4,970.2868 1329,996.0508 C1355.98,1001.4978 1384.84,1008.3258 1411.78,1015.1388 " fill="none" style="stroke: #A80036; stroke-width: 1.0;"/><polygon fill="#A80036" points="939.006,934.3888,944.4472,939.121,950.9081,935.9184,945.4669,931.1862,939.006,934.3888" style="stroke: #A80036; stroke-width: 1.0;"/><text fill="#000000" font-family="sans-serif" font-size="13" lengthAdjust="spacingAndGlyphs" textLength="21" x="1165" y="940.9458">use</text><path d="M952.211,918.8448 C975.405,918.5138 999.44,918.2248 1022,918.0508 C1295.31,915.9378 1379.95,890.3528 1632,996.0508 C1671.71,1012.7048 1677.91,1024.1588 1715,1046.0508 C1719.87,1048.9278 1724.92,1051.8868 1730,1054.8568 " fill="none" style="stroke: #A80036; stroke-width: 1.0;"/><polygon fill="#A80036" points="939.05,919.0378,945.1083,922.949,951.0487,918.8611,944.9904,914.9499,939.05,919.0378" style="stroke: #A80036; stroke-width: 1.0;"/><text fill="#000000" font-family="sans-serif" font-size="13" lengthAdjust="spacingAndGlyphs" textLength="21" x="1360" y="914.9458">use</text><path d="M902.956,958.2498 C938.509,975.0618 981.896,994.3958 1022,1009.0508 C1025.62,1010.3728 1029.29,1011.6788 1033.02,1012.9658 " fill="none" style="stroke: #A80036; stroke-width: 1.0;"/><polygon fill="#A80036" points="891.215,952.6548,894.9105,958.847,902.0477,957.8173,898.3522,951.6251,891.215,952.6548" style="stroke: #A80036; stroke-width: 1.0;"/><text fill="#000000" font-family="sans-serif" font-size="13" lengthAdjust="spacingAndGlyphs" textLength="21" x="970" y="984.9458">use</text><path d="M889.45,881.3528 C908.34,866.0448 927.233,846.9148 939,825.0508 C987.854,734.2738 926.343,688.8988 969,595.0508 C1017.47,488.4208 1057.37,430.0508 1174.5,430.0508 C1174.5,430.0508 1174.5,430.0508 1800,430.0508 C1909.13,430.0508 2038.34,436.6308 2098.11,440.0408 " fill="none" style="stroke: #A80036; stroke-width: 1.0;"/><polygon fill="#A80036" points="879.002,889.4578,886.1945,888.9404,888.4833,882.1022,881.2908,882.6195,879.002,889.4578" style="stroke: #A80036; stroke-width: 1.0;"/><text fill="#000000" font-family="sans-serif" font-size="13" lengthAdjust="spacingAndGlyphs" textLength="21" x="1511.5" y="425.9458">use</text><path d="M889.289,881.2658 C908.166,865.9498 927.093,846.8388 939,825.0508 C984.002,742.7048 914.391,692.3658 969,616.0508 C992.512,583.1928 1081.37,519.0508 1174.5,519.0508 C1174.5,519.0508 1174.5,519.0508 1800,519.0508 C1894.4,519.0508 2003.9,521.5128 2070.41,523.2828 " fill="none" style="stroke: #A80036; stroke-width: 1.0;"/><polygon fill="#A80036" points="878.852,889.3768,886.0441,888.8532,888.327,882.0131,881.1349,882.5366,878.852,889.3768" style="stroke: #A80036; stroke-width: 1.0;"/><text fill="#000000" font-family="sans-serif" font-size="13" lengthAdjust="spacingAndGlyphs" textLength="21" x="1511.5" y="514.9458">use</text><path d="M888.908,881.3898 C907.855,866.0348 926.923,846.8678 939,825.0508 C981.255,748.7188 903.325,688.4868 969,631.0508 C1054.42,556.3418 1886.78,595.1368 2087.91,605.6748 " fill="none" style="stroke: #A80036; stroke-width: 1.0;"/><polygon fill="#A80036" points="878.439,889.5198,885.6312,888.9985,887.9163,882.159,880.724,882.6803,878.439,889.5198" style="stroke: #A80036; stroke-width: 1.0;"/><text fill="#000000" font-family="sans-serif" font-size="13" lengthAdjust="spacingAndGlyphs" textLength="21" x="1511.5" y="581.9458">use</text><path d="M939.821,759.4418 C994.65,763.5558 1058.91,768.3768 1106.31,771.9338 " fill="none" style="stroke: #A80036; stroke-width: 1.0;"/><polygon fill="#A80036" points="926.829,758.4668,932.5129,762.9046,938.7954,759.3648,933.1115,754.927,926.829,758.4668" style="stroke: #A80036; stroke-width: 1.0;"/><text fill="#000000" font-family="sans-serif" font-size="13" lengthAdjust="spacingAndGlyphs" textLength="21" x="970" y="756.9458">use</text><path d="M939.742,727.8318 C995.826,716.1778 1061.79,702.4708 1109.49,692.5588 " fill="none" style="stroke: #A80036; stroke-width: 1.0;"/><polygon fill="#A80036" points="926.829,730.5148,933.5172,733.2108,938.5781,728.074,931.89,725.378,926.829,730.5148" style="stroke: #A80036; stroke-width: 1.0;"/><text fill="#000000" font-family="sans-serif" font-size="13" lengthAdjust="spacingAndGlyphs" textLength="21" x="970" y="712.9458">use</text><path d="M552.144,876.3138 C578.47,843.0108 617.505,801.1818 662,778.0508 C681.97,767.6698 704.996,761.1078 727.361,757.0018 " fill="none" style="stroke: #A80036; stroke-width: 1.0;"/><polygon fill="#A80036" points="544.052,886.7918,550.8852,884.488,551.3867,877.2943,544.5536,879.5981,544.052,886.7918" style="stroke: #A80036; stroke-width: 1.0;"/><text fill="#000000" font-family="sans-serif" font-size="13" lengthAdjust="spacingAndGlyphs" textLength="21" x="663" y="763.9458">use</text><path d="M337.285,1354.0508 C372.276,1354.0508 409.217,1354.0508 440.301,1354.0508 " fill="none" style="stroke: #A80036; stroke-width: 1.0;"/><path d="M561.296,1313.2468 C587.335,1287.1138 619.055,1251.2268 639.5,1214.0508 C687.955,1125.9448 642.555,1077.0278 703.5,997.0508 C717.228,979.0348 736.56,964.2588 755.817,952.6838 " fill="none" style="stroke: #A80036; stroke-width: 1.0;"/><polygon fill="#A80036" points="551.991,1322.4168,559.0722,1321.0542,560.538,1313.9937,553.4568,1315.3562,551.991,1322.4168" style="stroke: #A80036; stroke-width: 1.0;"/><text fill="#000000" font-family="sans-serif" font-size="13" lengthAdjust="spacingAndGlyphs" textLength="21" x="663" y="1023.9458">use</text><path d="M565.688,1313.3798 C592.528,1287.8758 623.56,1252.5928 639.5,1214.0508 C668.694,1143.4638 625.224,938.0008 662,871.0508 C678.476,841.0558 706.012,816.5638 733.861,797.7098 " fill="none" style="stroke: #A80036; stroke-width: 1.0;"/><polygon fill="#A80036" points="556.025,1322.3218,563.1455,1321.1822,564.8323,1314.1712,557.7118,1315.3107,556.025,1322.3218" style="stroke: #A80036; stroke-width: 1.0;"/><text fill="#000000" font-family="sans-serif" font-size="13" lengthAdjust="spacingAndGlyphs" textLength="21" x="663" y="835.9458">use</text></g></svg>