<?xml version="1.0" encoding="UTF-8" standalone="yes"?><svg xmlns="http://www.w3.org/2000/svg" xmlns:xlink="http://www.w3.org/1999/xlink" height="1118.4px" style="width:2203px;height:1118px;" version="1.1" viewBox="0 0 2203 1118" width="2203.2px"><defs><filter height="300%" id="f1" width="300%" x="-1" y="-1"><feGaussianBlur result="blurOut" stdDeviation="1.600000023841858"/><feColorMatrix in="blurOut" result="blurOut2" type="matrix" values="0 0 0 0 0 0 0 0 0 0 0 0 0 0 0 0 0 0 .4 0"/><feOffset dx="3.200000047683716" dy="3.200000047683716" in="blurOut2" result="blurOut3"/><feBlend in="SourceGraphic" in2="blurOut3" mode="normal"/></filter></defs><g><text fill="#000000" font-family="sans-serif" font-size="14.4" font-weight="bold" lengthAdjust="spacingAndGlyphs" textLength="120" x="982.8" y="15.3914">Class diagram of</text><text fill="#000000" font-family="sans-serif" font-size="14.4" font-weight="bold" lengthAdjust="spacingAndGlyphs" text-decoration="underline" textLength="80" x="1106.8" y="15.3914">FourSchlag</text><line style="stroke: #000000; stroke-width: 1.0;" x1="1106.8" x2="1186.8" y1="16.9914" y2="16.9914"/><text fill="#000000" font-family="sans-serif" font-size="14.4" font-weight="bold" lengthAdjust="spacingAndGlyphs" textLength="51.2" x="1190.8" y="15.3914">project</text><text fill="#000000" font-family="sans-serif" font-size="14.4" font-style="italic" lengthAdjust="spacingAndGlyphs" textLength="76" x="854.8" y="35.0016">Description:</text><text fill="#000000" font-family="sans-serif" font-size="14.4" lengthAdjust="spacingAndGlyphs" textLength="282.4" x="934.8" y="35.0016">Reduced package / class dependencies of</text><text fill="#000000" font-family="sans-serif" font-size="14.4" font-style="italic" lengthAdjust="spacingAndGlyphs" textLength="36.8" x="1221.2" y="35.0016">SALES</text><text fill="#000000" font-family="sans-serif" font-size="14.4" lengthAdjust="spacingAndGlyphs" textLength="108" x="1262" y="35.0016">KPI calculations</text><text fill="#000000" font-family="sans-serif" font-size="14.4" font-style="italic" lengthAdjust="spacingAndGlyphs" textLength="51.2" x="1009.2" y="54.6117">Version:</text><text fill="#000000" font-family="sans-serif" font-size="14.4" lengthAdjust="spacingAndGlyphs" textLength="0" x="1064.4" y="54.6117"/><text fill="#000000" font-family="sans-serif" font-size="14.4" font-weight="bold" lengthAdjust="spacingAndGlyphs" textLength="45.6" x="1064.4" y="54.6117">DRAFT</text><text fill="#000000" font-family="sans-serif" font-size="14.4" lengthAdjust="spacingAndGlyphs" textLength="105.6" x="1110" y="54.6117">, 14th Nov 2016</text><text fill="#000000" font-family="sans-serif" font-size="14.4" font-style="italic" lengthAdjust="spacingAndGlyphs" textLength="46.4" x="1034.8" y="74.2219">Author:</text><text fill="#000000" font-family="sans-serif" font-size="14.4" lengthAdjust="spacingAndGlyphs" textLength="104.8" x="1085.2" y="74.2219">Steffen Wagner</text><polygon fill="#FFFFFF" filter="url(#f1)" points="17.6,97.6406,80.8,97.6406,86.4,117.693,2197.6,117.693,2197.6,1112.8406,17.6,1112.8406,17.6,97.6406" style="stroke: #000000; stroke-width: 1.600000023841858;"/><line style="stroke: #000000; stroke-width: 1.600000023841858;" x1="17.6" x2="86.4" y1="117.693" y2="117.693"/><text fill="#000000" font-family="sans-serif" font-size="11.2" font-weight="bold" lengthAdjust="spacingAndGlyphs" textLength="58.4" x="20.8" y="111.2117">fourschlag</text><polygon fill="#FFFFFF" filter="url(#f1)" points="1603.2,134.4406,1649.6,134.4406,1655.2,154.493,2178.4,154.493,2178.4,1093.6406,1603.2,1093.6406,1603.2,134.4406" style="stroke: #000000; stroke-width: 1.600000023841858;"/><line style="stroke: #000000; stroke-width: 1.600000023841858;" x1="1603.2" x2="1655.2" y1="154.493" y2="154.493"/><text fill="#000000" font-family="sans-serif" font-size="11.2" font-weight="bold" lengthAdjust="spacingAndGlyphs" textLength="41.6" x="1606.4" y="148.0117">entities</text><polygon fill="#FFFFFF" filter="url(#f1)" points="1634,629.6406,1691.6,629.6406,1697.2,649.693,1781.2,649.693,1781.2,976.8406,1634,976.8406,1634,629.6406" style="stroke: #000000; stroke-width: 1.600000023841858;"/><line style="stroke: #000000; stroke-width: 1.600000023841858;" x1="1634" x2="1697.2" y1="649.693" y2="649.693"/><text fill="#000000" font-family="sans-serif" font-size="11.2" font-weight="bold" lengthAdjust="spacingAndGlyphs" textLength="52.8" x="1637.2" y="643.2117">accessors</text><polygon fill="#FFFFFF" filter="url(#f1)" points="1622.4,171.2406,1657.6,171.2406,1663.2,191.293,1964.8,191.293,1964.8,518.4406,1622.4,518.4406,1622.4,171.2406" style="stroke: #000000; stroke-width: 1.600000023841858;"/><line style="stroke: #000000; stroke-width: 1.600000023841858;" x1="1622.4" x2="1663.2" y1="191.293" y2="191.293"/><text fill="#000000" font-family="sans-serif" font-size="11.2" font-weight="bold" lengthAdjust="spacingAndGlyphs" textLength="30.4" x="1625.6" y="184.8117">types</text><polygon fill="#FFFFFF" filter="url(#f1)" points="1835.2,537.6406,1873.6,537.6406,1879.2,557.693,2159.2,557.693,2159.2,951.2406,1835.2,951.2406,1835.2,537.6406" style="stroke: #000000; stroke-width: 1.600000023841858;"/><line style="stroke: #000000; stroke-width: 1.600000023841858;" x1="1835.2" x2="1879.2" y1="557.693" y2="557.693"/><text fill="#000000" font-family="sans-serif" font-size="11.2" font-weight="bold" lengthAdjust="spacingAndGlyphs" textLength="33.6" x="1838.4" y="551.2117">tables</text><polygon fill="#FFFFFF" filter="url(#f1)" points="36.8,273.6406,85.6,273.6406,91.2,293.693,1559.2,293.693,1559.2,1075.2406,36.8,1075.2406,36.8,273.6406" style="stroke: #000000; stroke-width: 1.600000023841858;"/><line style="stroke: #000000; stroke-width: 1.600000023841858;" x1="36.8" x2="91.2" y1="293.693" y2="293.693"/><text fill="#000000" font-family="sans-serif" font-size="11.2" font-weight="bold" lengthAdjust="spacingAndGlyphs" textLength="44" x="40" y="287.2117">services</text><polygon fill="#FFFFFF" filter="url(#f1)" points="307.2,480.0406,336.8,480.0406,342.4,500.093,1540,500.093,1540,864.0406,307.2,864.0406,307.2,480.0406" style="stroke: #000000; stroke-width: 1.600000023841858;"/><line style="stroke: #000000; stroke-width: 1.600000023841858;" x1="307.2" x2="342.4" y1="500.093" y2="500.093"/><text fill="#000000" font-family="sans-serif" font-size="11.2" font-weight="bold" lengthAdjust="spacingAndGlyphs" textLength="24.8" x="310.4" y="493.6117">data</text><polygon fill="#FFFFFF" filter="url(#f1)" points="569.2,580.8406,622,580.8406,627.6,600.893,1520.8,600.893,1520.8,844.8406,569.2,844.8406,569.2,580.8406" style="stroke: #000000; stroke-width: 1.600000023841858;"/><line style="stroke: #000000; stroke-width: 1.600000023841858;" x1="569.2" x2="627.6" y1="600.893" y2="600.893"/><text fill="#000000" font-family="sans-serif" font-size="11.2" font-weight="bold" lengthAdjust="spacingAndGlyphs" textLength="48" x="572.4" y="594.4117">requests</text><polygon fill="#FFFFFF" filter="url(#f1)" points="569.2,883.2406,588.4,883.2406,594,903.293,1009.2,903.293,1009.2,1056.0406,569.2,1056.0406,569.2,883.2406" style="stroke: #000000; stroke-width: 1.600000023841858;"/><line style="stroke: #000000; stroke-width: 1.600000023841858;" x1="569.2" x2="594" y1="903.293" y2="903.293"/><text fill="#000000" font-family="sans-serif" font-size="11.2" font-weight="bold" lengthAdjust="spacingAndGlyphs" textLength="14.4" x="572.4" y="896.8117">db</text><polygon fill="#FFFFFF" filter="url(#f1)" points="56,310.4406,84,310.4406,89.6,330.493,505.2,330.493,505.2,460.8406,56,460.8406,56,310.4406" style="stroke: #000000; stroke-width: 1.600000023841858;"/><line style="stroke: #000000; stroke-width: 1.600000023841858;" x1="56" x2="89.6" y1="330.493" y2="330.493"/><text fill="#000000" font-family="sans-serif" font-size="11.2" font-weight="bold" lengthAdjust="spacingAndGlyphs" textLength="23.2" x="59.2" y="324.0117">web</text><polygon fill="#FFFFFF" filter="url(#f1)" points="339.6,347.2406,359.6,347.2406,365.2,367.293,486,367.293,486,441.6406,339.6,441.6406,339.6,347.2406" style="stroke: #000000; stroke-width: 1.600000023841858;"/><line style="stroke: #000000; stroke-width: 1.600000023841858;" x1="339.6" x2="365.2" y1="367.293" y2="367.293"/><text fill="#000000" font-family="sans-serif" font-size="11.2" font-weight="bold" lengthAdjust="spacingAndGlyphs" textLength="15.2" x="342.8" y="360.8117">ws</text><rect fill="#FEFECE" filter="url(#f1)" height="38.4" style="stroke: #A80036; stroke-width: 1.2000000178813934;" width="109.6" x="1652.8" y="925.6406"/><ellipse cx="1664.8" cy="938.4406" fill="#B4A7E5" rx="8.8" ry="8.8" style="stroke: #A80036; stroke-width: 0.800000011920929;"/><path d="M1661.8375,933.8781 L1667.925,933.8781 L1667.925,935.3906 L1665.8625,935.3906 L1665.8625,941.3281 L1667.925,941.3281 L1667.925,942.8406 L1661.8375,942.8406 L1661.8375,941.3281 L1663.9125,941.3281 L1663.9125,935.3906 L1661.8375,935.3906 L1661.8375,933.8781 Z "/><text fill="#000000" font-family="sans-serif" font-size="9.6" font-style="italic" lengthAdjust="spacingAndGlyphs" textLength="84" x="1676" y="942.1649">ActualSalesAccessor</text><line style="stroke: #A80036; stroke-width: 1.2000000178813934;" x1="1653.6" x2="1761.6" y1="951.2406" y2="951.2406"/><line style="stroke: #A80036; stroke-width: 1.2000000178813934;" x1="1653.6" x2="1761.6" y1="957.6406" y2="957.6406"/><rect fill="#FEFECE" filter="url(#f1)" height="38.4" style="stroke: #A80036; stroke-width: 1.2000000178813934;" width="121.6" x="1646.8" y="859.2406"/><ellipse cx="1658.8" cy="872.0406" fill="#B4A7E5" rx="8.8" ry="8.8" style="stroke: #A80036; stroke-width: 0.800000011920929;"/><path d="M1655.8375,867.4781 L1661.925,867.4781 L1661.925,868.9906 L1659.8625,868.9906 L1659.8625,874.9281 L1661.925,874.9281 L1661.925,876.4406 L1655.8375,876.4406 L1655.8375,874.9281 L1657.9125,874.9281 L1657.9125,868.9906 L1655.8375,868.9906 L1655.8375,867.4781 Z "/><text fill="#000000" font-family="sans-serif" font-size="9.6" font-style="italic" lengthAdjust="spacingAndGlyphs" textLength="96" x="1670" y="875.7649">ExchangeRateAccessor</text><line style="stroke: #A80036; stroke-width: 1.2000000178813934;" x1="1647.6" x2="1767.6" y1="884.8406" y2="884.8406"/><line style="stroke: #A80036; stroke-width: 1.2000000178813934;" x1="1647.6" x2="1767.6" y1="891.2406" y2="891.2406"/><rect fill="#FEFECE" filter="url(#f1)" height="38.4" style="stroke: #A80036; stroke-width: 1.2000000178813934;" width="119.2" x="1648" y="792.8406"/><ellipse cx="1660" cy="805.6406" fill="#B4A7E5" rx="8.8" ry="8.8" style="stroke: #A80036; stroke-width: 0.800000011920929;"/><path d="M1657.0375,801.0781 L1663.125,801.0781 L1663.125,802.5906 L1661.0625,802.5906 L1661.0625,808.5281 L1663.125,808.5281 L1663.125,810.0406 L1657.0375,810.0406 L1657.0375,808.5281 L1659.1125,808.5281 L1659.1125,802.5906 L1657.0375,802.5906 L1657.0375,801.0781 Z "/><text fill="#000000" font-family="sans-serif" font-size="9.6" font-style="italic" lengthAdjust="spacingAndGlyphs" textLength="93.6" x="1671.2" y="809.3649">ForecastSalesAccessor</text><line style="stroke: #A80036; stroke-width: 1.2000000178813934;" x1="1648.8" x2="1766.4" y1="818.4406" y2="818.4406"/><line style="stroke: #A80036; stroke-width: 1.2000000178813934;" x1="1648.8" x2="1766.4" y1="824.8406" y2="824.8406"/><rect fill="#FEFECE" filter="url(#f1)" height="38.4" style="stroke: #A80036; stroke-width: 1.2000000178813934;" width="117.6" x="1648.8" y="726.4406"/><ellipse cx="1660.8" cy="739.2406" fill="#B4A7E5" rx="8.8" ry="8.8" style="stroke: #A80036; stroke-width: 0.800000011920929;"/><path d="M1657.8375,734.6781 L1663.925,734.6781 L1663.925,736.1906 L1661.8625,736.1906 L1661.8625,742.1281 L1663.925,742.1281 L1663.925,743.6406 L1657.8375,743.6406 L1657.8375,742.1281 L1659.9125,742.1281 L1659.9125,736.1906 L1657.8375,736.1906 L1657.8375,734.6781 Z "/><text fill="#000000" font-family="sans-serif" font-size="9.6" font-style="italic" lengthAdjust="spacingAndGlyphs" textLength="92" x="1672" y="742.9649">OrgStructureAccessor</text><line style="stroke: #A80036; stroke-width: 1.2000000178813934;" x1="1649.6" x2="1765.6" y1="752.0406" y2="752.0406"/><line style="stroke: #A80036; stroke-width: 1.2000000178813934;" x1="1649.6" x2="1765.6" y1="758.4406" y2="758.4406"/><rect fill="#FEFECE" filter="url(#f1)" height="38.4" style="stroke: #A80036; stroke-width: 1.2000000178813934;" width="91.2" x="1662" y="660.0406"/><ellipse cx="1674" cy="672.8406" fill="#B4A7E5" rx="8.8" ry="8.8" style="stroke: #A80036; stroke-width: 0.800000011920929;"/><path d="M1671.0375,668.2781 L1677.125,668.2781 L1677.125,669.7906 L1675.0625,669.7906 L1675.0625,675.7281 L1677.125,675.7281 L1677.125,677.2406 L1671.0375,677.2406 L1671.0375,675.7281 L1673.1125,675.7281 L1673.1125,669.7906 L1671.0375,669.7906 L1671.0375,668.2781 Z "/><text fill="#000000" font-family="sans-serif" font-size="9.6" font-style="italic" lengthAdjust="spacingAndGlyphs" textLength="65.6" x="1685.2" y="676.5649">RegionAccessor</text><line style="stroke: #A80036; stroke-width: 1.2000000178813934;" x1="1662.8" x2="1752.4" y1="685.6406" y2="685.6406"/><line style="stroke: #A80036; stroke-width: 1.2000000178813934;" x1="1662.8" x2="1752.4" y1="692.0406" y2="692.0406"/><rect fill="#FEFECE" filter="url(#f1)" height="38.4" style="stroke: #A80036; stroke-width: 1.2000000178813934;" width="78.4" x="1668.4" y="268.0406"/><ellipse cx="1680.4" cy="280.8406" fill="#EB937F" rx="8.8" ry="8.8" style="stroke: #A80036; stroke-width: 0.800000011920929;"/><path d="M1677.3125,285.2406 L1677.3125,276.2781 L1683.7375,276.2781 L1683.7375,277.7906 L1679.275,277.7906 L1679.275,279.9531 L1683.3375,279.9531 L1683.3375,281.4656 L1679.275,281.4656 L1679.275,283.7281 L1684.0125,283.7281 L1684.0125,285.2406 L1677.3125,285.2406 Z "/><text fill="#000000" font-family="sans-serif" font-size="9.6" lengthAdjust="spacingAndGlyphs" textLength="52.8" x="1691.6" y="284.5648">DataSource</text><line style="stroke: #A80036; stroke-width: 1.2000000178813934;" x1="1669.2" x2="1746" y1="293.6406" y2="293.6406"/><line style="stroke: #A80036; stroke-width: 1.2000000178813934;" x1="1669.2" x2="1746" y1="300.0406" y2="300.0406"/><rect fill="#FEFECE" filter="url(#f1)" height="38.4" style="stroke: #A80036; stroke-width: 1.2000000178813934;" width="70.4" x="1672.4" y="201.6406"/><ellipse cx="1684.4" cy="214.4406" fill="#EB937F" rx="8.8" ry="8.8" style="stroke: #A80036; stroke-width: 0.800000011920929;"/><path d="M1681.3125,218.8406 L1681.3125,209.8781 L1687.7375,209.8781 L1687.7375,211.3906 L1683.275,211.3906 L1683.275,213.5531 L1687.3375,213.5531 L1687.3375,215.0656 L1683.275,215.0656 L1683.275,217.3281 L1688.0125,217.3281 L1688.0125,218.8406 L1681.3125,218.8406 Z "/><text fill="#000000" font-family="sans-serif" font-size="9.6" lengthAdjust="spacingAndGlyphs" textLength="44.8" x="1695.6" y="218.1648">EntryType</text><line style="stroke: #A80036; stroke-width: 1.2000000178813934;" x1="1673.2" x2="1742" y1="227.2406" y2="227.2406"/><line style="stroke: #A80036; stroke-width: 1.2000000178813934;" x1="1673.2" x2="1742" y1="233.6406" y2="233.6406"/><rect fill="#FEFECE" filter="url(#f1)" height="38.4" style="stroke: #A80036; stroke-width: 1.2000000178813934;" width="144.8" x="1635.2" y="467.2406"/><ellipse cx="1647.2" cy="480.0406" fill="#EB937F" rx="8.8" ry="8.8" style="stroke: #A80036; stroke-width: 0.800000011920929;"/><path d="M1644.1125,484.4406 L1644.1125,475.4781 L1650.5375,475.4781 L1650.5375,476.9906 L1646.075,476.9906 L1646.075,479.1531 L1650.1375,479.1531 L1650.1375,480.6656 L1646.075,480.6656 L1646.075,482.9281 L1650.8125,482.9281 L1650.8125,484.4406 L1644.1125,484.4406 Z "/><text fill="#000000" font-family="sans-serif" font-size="9.6" lengthAdjust="spacingAndGlyphs" textLength="119.2" x="1658.4" y="483.7649">KeyPerformanceIndicators</text><line style="stroke: #A80036; stroke-width: 1.2000000178813934;" x1="1636" x2="1779.2" y1="492.8406" y2="492.8406"/><line style="stroke: #A80036; stroke-width: 1.2000000178813934;" x1="1636" x2="1779.2" y1="499.2406" y2="499.2406"/><rect fill="#FEFECE" filter="url(#f1)" height="38.4" style="stroke: #A80036; stroke-width: 1.2000000178813934;" width="99.2" x="1658" y="400.8406"/><ellipse cx="1670" cy="413.6406" fill="#ADD1B2" rx="8.8" ry="8.8" style="stroke: #A80036; stroke-width: 0.800000011920929;"/><path d="M1668.325,413.5156 Q1668.325,415.0156 1668.7875,415.8219 Q1669.25,416.6281 1670.175,416.6281 Q1671.25,416.6281 1671.775,415.0156 L1673.5875,415.3531 Q1672.7,418.1781 1670.1625,418.1781 Q1668.2875,418.1781 1667.3125,416.9906 Q1666.3375,415.8031 1666.3375,413.5156 Q1666.3375,408.9406 1670.1,408.9406 Q1671.3375,408.9406 1672.1688,409.5906 Q1673,410.2406 1673.4,411.5281 L1671.5875,411.9656 Q1671.4,411.2656 1671.0125,410.8719 Q1670.625,410.4781 1670.125,410.4781 Q1668.325,410.4781 1668.325,413.5156 Z "/><text fill="#000000" font-family="sans-serif" font-size="9.6" lengthAdjust="spacingAndGlyphs" textLength="73.6" x="1681.2" y="417.3648">OutputDataType</text><line style="stroke: #A80036; stroke-width: 1.2000000178813934;" x1="1658.8" x2="1756.4" y1="426.4406" y2="426.4406"/><line style="stroke: #A80036; stroke-width: 1.2000000178813934;" x1="1658.8" x2="1756.4" y1="432.8406" y2="432.8406"/><rect fill="#FEFECE" filter="url(#f1)" height="38.4" style="stroke: #A80036; stroke-width: 1.2000000178813934;" width="54.4" x="1680.4" y="334.4406"/><ellipse cx="1692.4" cy="347.2406" fill="#ADD1B2" rx="8.8" ry="8.8" style="stroke: #A80036; stroke-width: 0.800000011920929;"/><path d="M1690.725,347.1156 Q1690.725,348.6156 1691.1875,349.4219 Q1691.65,350.2281 1692.575,350.2281 Q1693.65,350.2281 1694.175,348.6156 L1695.9875,348.9531 Q1695.1,351.7781 1692.5625,351.7781 Q1690.6875,351.7781 1689.7125,350.5906 Q1688.7375,349.4031 1688.7375,347.1156 Q1688.7375,342.5406 1692.5,342.5406 Q1693.7375,342.5406 1694.5688,343.1906 Q1695.4,343.8406 1695.8,345.1281 L1693.9875,345.5656 Q1693.8,344.8656 1693.4125,344.4719 Q1693.025,344.0781 1692.525,344.0781 Q1690.725,344.0781 1690.725,347.1156 Z "/><text fill="#000000" font-family="sans-serif" font-size="9.6" lengthAdjust="spacingAndGlyphs" textLength="28.8" x="1703.6" y="350.9648">Period</text><line style="stroke: #A80036; stroke-width: 1.2000000178813934;" x1="1681.2" x2="1734" y1="360.0406" y2="360.0406"/><line style="stroke: #A80036; stroke-width: 1.2000000178813934;" x1="1681.2" x2="1734" y1="366.4406" y2="366.4406"/><rect fill="#FEFECE" filter="url(#f1)" height="38.4" style="stroke: #A80036; stroke-width: 1.2000000178813934;" width="71.2" x="1880.8" y="268.0406"/><ellipse cx="1892.8" cy="280.8406" fill="#EB937F" rx="8.8" ry="8.8" style="stroke: #A80036; stroke-width: 0.800000011920929;"/><path d="M1889.7125,285.2406 L1889.7125,276.2781 L1896.1375,276.2781 L1896.1375,277.7906 L1891.675,277.7906 L1891.675,279.9531 L1895.7375,279.9531 L1895.7375,281.4656 L1891.675,281.4656 L1891.675,283.7281 L1896.4125,283.7281 L1896.4125,285.2406 L1889.7125,285.2406 Z "/><text fill="#000000" font-family="sans-serif" font-size="9.6" lengthAdjust="spacingAndGlyphs" textLength="45.6" x="1904" y="284.5648">SalesType</text><line style="stroke: #A80036; stroke-width: 1.2000000178813934;" x1="1881.6" x2="1951.2" y1="293.6406" y2="293.6406"/><line style="stroke: #A80036; stroke-width: 1.2000000178813934;" x1="1881.6" x2="1951.2" y1="300.0406" y2="300.0406"/><rect fill="#FEFECE" filter="url(#f1)" height="38.4" style="stroke: #A80036; stroke-width: 1.2000000178813934;" width="126.4" x="1853.2" y="568.0406"/><ellipse cx="1865.2" cy="580.8406" fill="#ADD1B2" rx="8.8" ry="8.8" style="stroke: #A80036; stroke-width: 0.800000011920929;"/><path d="M1863.525,580.7156 Q1863.525,582.2156 1863.9875,583.0219 Q1864.45,583.8281 1865.375,583.8281 Q1866.45,583.8281 1866.975,582.2156 L1868.7875,582.5531 Q1867.9,585.3781 1865.3625,585.3781 Q1863.4875,585.3781 1862.5125,584.1906 Q1861.5375,583.0031 1861.5375,580.7156 Q1861.5375,576.1406 1865.3,576.1406 Q1866.5375,576.1406 1867.3688,576.7906 Q1868.2,577.4406 1868.6,578.7281 L1866.7875,579.1656 Q1866.6,578.4656 1866.2125,578.0719 Q1865.825,577.6781 1865.325,577.6781 Q1863.525,577.6781 1863.525,580.7156 Z "/><text fill="#000000" font-family="sans-serif" font-size="9.6" lengthAdjust="spacingAndGlyphs" textLength="100.8" x="1876.4" y="584.5649">ActualFixedCostsEntity</text><line style="stroke: #A80036; stroke-width: 1.2000000178813934;" x1="1854" x2="1978.8" y1="593.6406" y2="593.6406"/><line style="stroke: #A80036; stroke-width: 1.2000000178813934;" x1="1854" x2="1978.8" y1="600.0406" y2="600.0406"/><rect fill="#FEFECE" filter="url(#f1)" height="38.4" style="stroke: #A80036; stroke-width: 1.2000000178813934;" width="102.4" x="2038.8" y="900.0406"/><ellipse cx="2050.8" cy="912.8406" fill="#ADD1B2" rx="8.8" ry="8.8" style="stroke: #A80036; stroke-width: 0.800000011920929;"/><path d="M2049.125,912.7156 Q2049.125,914.2156 2049.5875,915.0219 Q2050.05,915.8281 2050.975,915.8281 Q2052.05,915.8281 2052.575,914.2156 L2054.3875,914.5531 Q2053.5,917.3781 2050.9625,917.3781 Q2049.0875,917.3781 2048.1125,916.1906 Q2047.1375,915.0031 2047.1375,912.7156 Q2047.1375,908.1406 2050.9,908.1406 Q2052.1375,908.1406 2052.9688,908.7906 Q2053.8,909.4406 2054.2,910.7281 L2052.3875,911.1656 Q2052.2,910.4656 2051.8125,910.0719 Q2051.425,909.6781 2050.925,909.6781 Q2049.125,909.6781 2049.125,912.7156 Z "/><text fill="#000000" font-family="sans-serif" font-size="9.6" lengthAdjust="spacingAndGlyphs" textLength="76.8" x="2062" y="916.5649">ActualSalesEntity</text><line style="stroke: #A80036; stroke-width: 1.2000000178813934;" x1="2039.6" x2="2140.4" y1="925.6406" y2="925.6406"/><line style="stroke: #A80036; stroke-width: 1.2000000178813934;" x1="2039.6" x2="2140.4" y1="932.0406" y2="932.0406"/><rect fill="#FEFECE" filter="url(#f1)" height="38.4" style="stroke: #A80036; stroke-width: 1.2000000178813934;" width="113.6" x="1859.6" y="833.6406"/><ellipse cx="1871.6" cy="846.4406" fill="#ADD1B2" rx="8.8" ry="8.8" style="stroke: #A80036; stroke-width: 0.800000011920929;"/><path d="M1869.925,846.3156 Q1869.925,847.8156 1870.3875,848.6219 Q1870.85,849.4281 1871.775,849.4281 Q1872.85,849.4281 1873.375,847.8156 L1875.1875,848.1531 Q1874.3,850.9781 1871.7625,850.9781 Q1869.8875,850.9781 1868.9125,849.7906 Q1867.9375,848.6031 1867.9375,846.3156 Q1867.9375,841.7406 1871.7,841.7406 Q1872.9375,841.7406 1873.7688,842.3906 Q1874.6,843.0406 1875,844.3281 L1873.1875,844.7656 Q1873,844.0656 1872.6125,843.6719 Q1872.225,843.2781 1871.725,843.2781 Q1869.925,843.2781 1869.925,846.3156 Z "/><text fill="#000000" font-family="sans-serif" font-size="9.6" lengthAdjust="spacingAndGlyphs" textLength="88" x="1882.8" y="850.1649">ExchangeRateEntity</text><line style="stroke: #A80036; stroke-width: 1.2000000178813934;" x1="1860.4" x2="1972.4" y1="859.2406" y2="859.2406"/><line style="stroke: #A80036; stroke-width: 1.2000000178813934;" x1="1860.4" x2="1972.4" y1="865.6406" y2="865.6406"/><rect fill="#FEFECE" filter="url(#f1)" height="38.4" style="stroke: #A80036; stroke-width: 1.2000000178813934;" width="136.8" x="1848" y="700.8406"/><ellipse cx="1860" cy="713.6406" fill="#ADD1B2" rx="8.8" ry="8.8" style="stroke: #A80036; stroke-width: 0.800000011920929;"/><path d="M1858.325,713.5156 Q1858.325,715.0156 1858.7875,715.8219 Q1859.25,716.6281 1860.175,716.6281 Q1861.25,716.6281 1861.775,715.0156 L1863.5875,715.3531 Q1862.7,718.1781 1860.1625,718.1781 Q1858.2875,718.1781 1857.3125,716.9906 Q1856.3375,715.8031 1856.3375,713.5156 Q1856.3375,708.9406 1860.1,708.9406 Q1861.3375,708.9406 1862.1688,709.5906 Q1863,710.2406 1863.4,711.5281 L1861.5875,711.9656 Q1861.4,711.2656 1861.0125,710.8719 Q1860.625,710.4781 1860.125,710.4781 Q1858.325,710.4781 1858.325,713.5156 Z "/><text fill="#000000" font-family="sans-serif" font-size="9.6" lengthAdjust="spacingAndGlyphs" textLength="111.2" x="1871.2" y="717.3649">ForecastFixedCostsEntity</text><line style="stroke: #A80036; stroke-width: 1.2000000178813934;" x1="1848.8" x2="1984" y1="726.4406" y2="726.4406"/><line style="stroke: #A80036; stroke-width: 1.2000000178813934;" x1="1848.8" x2="1984" y1="732.8406" y2="732.8406"/><rect fill="#FEFECE" filter="url(#f1)" height="38.4" style="stroke: #A80036; stroke-width: 1.2000000178813934;" width="112.8" x="2033.6" y="833.6406"/><ellipse cx="2045.6" cy="846.4406" fill="#ADD1B2" rx="8.8" ry="8.8" style="stroke: #A80036; stroke-width: 0.800000011920929;"/><path d="M2043.925,846.3156 Q2043.925,847.8156 2044.3875,848.6219 Q2044.85,849.4281 2045.775,849.4281 Q2046.85,849.4281 2047.375,847.8156 L2049.1875,848.1531 Q2048.3,850.9781 2045.7625,850.9781 Q2043.8875,850.9781 2042.9125,849.7906 Q2041.9375,848.6031 2041.9375,846.3156 Q2041.9375,841.7406 2045.7,841.7406 Q2046.9375,841.7406 2047.7688,842.3906 Q2048.6,843.0406 2049,844.3281 L2047.1875,844.7656 Q2047,844.0656 2046.6125,843.6719 Q2046.225,843.2781 2045.725,843.2781 Q2043.925,843.2781 2043.925,846.3156 Z "/><text fill="#000000" font-family="sans-serif" font-size="9.6" lengthAdjust="spacingAndGlyphs" textLength="87.2" x="2056.8" y="850.1649">ForecastSalesEntity</text><line style="stroke: #A80036; stroke-width: 1.2000000178813934;" x1="2034.4" x2="2145.6" y1="859.2406" y2="859.2406"/><line style="stroke: #A80036; stroke-width: 1.2000000178813934;" x1="2034.4" x2="2145.6" y1="865.6406" y2="865.6406"/><rect fill="#FEFECE" filter="url(#f1)" height="38.4" style="stroke: #A80036; stroke-width: 1.2000000178813934;" width="108.8" x="1862" y="767.2406"/><ellipse cx="1874" cy="780.0406" fill="#ADD1B2" rx="8.8" ry="8.8" style="stroke: #A80036; stroke-width: 0.800000011920929;"/><path d="M1872.325,779.9156 Q1872.325,781.4156 1872.7875,782.2219 Q1873.25,783.0281 1874.175,783.0281 Q1875.25,783.0281 1875.775,781.4156 L1877.5875,781.7531 Q1876.7,784.5781 1874.1625,784.5781 Q1872.2875,784.5781 1871.3125,783.3906 Q1870.3375,782.2031 1870.3375,779.9156 Q1870.3375,775.3406 1874.1,775.3406 Q1875.3375,775.3406 1876.1688,775.9906 Q1877,776.6406 1877.4,777.9281 L1875.5875,778.3656 Q1875.4,777.6656 1875.0125,777.2719 Q1874.625,776.8781 1874.125,776.8781 Q1872.325,776.8781 1872.325,779.9156 Z "/><text fill="#000000" font-family="sans-serif" font-size="9.6" lengthAdjust="spacingAndGlyphs" textLength="83.2" x="1885.2" y="783.7649">OrgStructureEntity</text><line style="stroke: #A80036; stroke-width: 1.2000000178813934;" x1="1862.8" x2="1970" y1="792.8406" y2="792.8406"/><line style="stroke: #A80036; stroke-width: 1.2000000178813934;" x1="1862.8" x2="1970" y1="799.2406" y2="799.2406"/><rect fill="#FEFECE" filter="url(#f1)" height="38.4" style="stroke: #A80036; stroke-width: 1.2000000178813934;" width="80.8" x="1876" y="634.4406"/><ellipse cx="1888" cy="647.2406" fill="#ADD1B2" rx="8.8" ry="8.8" style="stroke: #A80036; stroke-width: 0.800000011920929;"/><path d="M1886.325,647.1156 Q1886.325,648.6156 1886.7875,649.4219 Q1887.25,650.2281 1888.175,650.2281 Q1889.25,650.2281 1889.775,648.6156 L1891.5875,648.9531 Q1890.7,651.7781 1888.1625,651.7781 Q1886.2875,651.7781 1885.3125,650.5906 Q1884.3375,649.4031 1884.3375,647.1156 Q1884.3375,642.5406 1888.1,642.5406 Q1889.3375,642.5406 1890.1688,643.1906 Q1891,643.8406 1891.4,645.1281 L1889.5875,645.5656 Q1889.4,644.8656 1889.0125,644.4719 Q1888.625,644.0781 1888.125,644.0781 Q1886.325,644.0781 1886.325,647.1156 Z "/><text fill="#000000" font-family="sans-serif" font-size="9.6" lengthAdjust="spacingAndGlyphs" textLength="55.2" x="1899.2" y="650.9649">RegionEntity</text><line style="stroke: #A80036; stroke-width: 1.2000000178813934;" x1="1876.8" x2="1956" y1="660.0406" y2="660.0406"/><line style="stroke: #A80036; stroke-width: 1.2000000178813934;" x1="1876.8" x2="1956" y1="666.4406" y2="666.4406"/><rect fill="#FEFECE" filter="url(#f1)" height="38.4" style="stroke: #A80036; stroke-width: 1.2000000178813934;" width="74.4" x="1879.2" y="900.0406"/><ellipse cx="1891.2" cy="912.8406" fill="#ADD1B2" rx="8.8" ry="8.8" style="stroke: #A80036; stroke-width: 0.800000011920929;"/><path d="M1889.525,912.7156 Q1889.525,914.2156 1889.9875,915.0219 Q1890.45,915.8281 1891.375,915.8281 Q1892.45,915.8281 1892.975,914.2156 L1894.7875,914.5531 Q1893.9,917.3781 1891.3625,917.3781 Q1889.4875,917.3781 1888.5125,916.1906 Q1887.5375,915.0031 1887.5375,912.7156 Q1887.5375,908.1406 1891.3,908.1406 Q1892.5375,908.1406 1893.3688,908.7906 Q1894.2,909.4406 1894.6,910.7281 L1892.7875,911.1656 Q1892.6,910.4656 1892.2125,910.0719 Q1891.825,909.6781 1891.325,909.6781 Q1889.525,909.6781 1889.525,912.7156 Z "/><text fill="#000000" font-family="sans-serif" font-size="9.6" lengthAdjust="spacingAndGlyphs" textLength="48.8" x="1902.4" y="916.5649">SalesEntity</text><line style="stroke: #A80036; stroke-width: 1.2000000178813934;" x1="1880" x2="1952.8" y1="925.6406" y2="925.6406"/><line style="stroke: #A80036; stroke-width: 1.2000000178813934;" x1="1880" x2="1952.8" y1="932.0406" y2="932.0406"/><rect fill="#FEFECE" filter="url(#f1)" height="50.384" style="stroke: #A80036; stroke-width: 1.2000000178813934;" width="185.6" x="320" y="659.6406"/><ellipse cx="393" cy="672.4406" fill="#ADD1B2" rx="8.8" ry="8.8" style="stroke: #A80036; stroke-width: 0.800000011920929;"/><path d="M391.325,672.3156 Q391.325,673.8156 391.7875,674.6219 Q392.25,675.4281 393.175,675.4281 Q394.25,675.4281 394.775,673.8156 L396.5875,674.1531 Q395.7,676.9781 393.1625,676.9781 Q391.2875,676.9781 390.3125,675.7906 Q389.3375,674.6031 389.3375,672.3156 Q389.3375,667.7406 393.1,667.7406 Q394.3375,667.7406 395.1688,668.3906 Q396,669.0406 396.4,670.3281 L394.5875,670.7656 Q394.4,670.0656 394.0125,669.6719 Q393.625,669.2781 393.125,669.2781 Q391.325,669.2781 391.325,672.3156 Z "/><text fill="#000000" font-family="sans-serif" font-size="9.6" lengthAdjust="spacingAndGlyphs" textLength="32.8" x="409.4" y="676.1649">Service</text><line style="stroke: #A80036; stroke-width: 1.2000000178813934;" x1="320.8" x2="504.8" y1="685.2406" y2="685.2406"/><line style="stroke: #A80036; stroke-width: 1.2000000178813934;" x1="320.8" x2="504.8" y1="691.6406" y2="691.6406"/><ellipse cx="328.8" cy="702.0326" fill="#84BE84" rx="2.4" ry="2.4" style="stroke: #038048; stroke-width: 0.800000011920929;"/><text fill="#000000" font-family="sans-serif" font-size="8.8" lengthAdjust="spacingAndGlyphs" textLength="164.8" x="336" y="704.2465">CassandraConnection : getConnection()</text><rect fill="#FEFECE" filter="url(#f1)" height="50.384" style="stroke: #A80036; stroke-width: 1.2000000178813934;" width="179.2" x="572" y="514.0406"/><ellipse cx="629.8" cy="526.8406" fill="#ADD1B2" rx="8.8" ry="8.8" style="stroke: #A80036; stroke-width: 0.800000011920929;"/><path d="M628.125,526.7156 Q628.125,528.2156 628.5875,529.0219 Q629.05,529.8281 629.975,529.8281 Q631.05,529.8281 631.575,528.2156 L633.3875,528.5531 Q632.5,531.3781 629.9625,531.3781 Q628.0875,531.3781 627.1125,530.1906 Q626.1375,529.0031 626.1375,526.7156 Q626.1375,522.1406 629.9,522.1406 Q631.1375,522.1406 631.9688,522.7906 Q632.8,523.4406 633.2,524.7281 L631.3875,525.1656 Q631.2,524.4656 630.8125,524.0719 Q630.425,523.6781 629.925,523.6781 Q628.125,523.6781 628.125,526.7156 Z "/><text fill="#000000" font-family="sans-serif" font-size="9.6" lengthAdjust="spacingAndGlyphs" textLength="56.8" x="646.2" y="530.5649">SalesService</text><line style="stroke: #A80036; stroke-width: 1.2000000178813934;" x1="572.8" x2="750.4" y1="539.6406" y2="539.6406"/><line style="stroke: #A80036; stroke-width: 1.2000000178813934;" x1="572.8" x2="750.4" y1="546.0406" y2="546.0406"/><ellipse cx="580.8" cy="556.4326" fill="#84BE84" rx="2.4" ry="2.4" style="stroke: #038048; stroke-width: 0.800000011920929;"/><text fill="#000000" font-family="sans-serif" font-size="8.8" lengthAdjust="spacingAndGlyphs" textLength="158.4" x="588" y="558.6465">List&lt;OutputDataType&gt; : getSalesKPIs()</text><rect fill="#FEFECE" filter="url(#f1)" height="62.368" style="stroke: #A80036; stroke-width: 1.2000000178813934;" width="134.4" x="1373.6" y="682.4406"/><ellipse cx="1389.92" cy="695.2406" fill="#ADD1B2" rx="8.8" ry="8.8" style="stroke: #A80036; stroke-width: 0.800000011920929;"/><path d="M1388.245,695.1156 Q1388.245,696.6156 1388.7075,697.4219 Q1389.17,698.2281 1390.095,698.2281 Q1391.17,698.2281 1391.695,696.6156 L1393.5075,696.9531 Q1392.62,699.7781 1390.0825,699.7781 Q1388.2075,699.7781 1387.2325,698.5906 Q1386.2575,697.4031 1386.2575,695.1156 Q1386.2575,690.5406 1390.02,690.5406 Q1391.2575,690.5406 1392.0888,691.1906 Q1392.92,691.8406 1393.32,693.1281 L1391.5075,693.5656 Q1391.32,692.8656 1390.9325,692.4719 Q1390.545,692.0781 1390.045,692.0781 Q1388.245,692.0781 1388.245,695.1156 Z "/><text fill="#000000" font-family="sans-serif" font-size="9.6" lengthAdjust="spacingAndGlyphs" textLength="99.2" x="1402.08" y="698.9649">ExchangeRateRequest</text><line style="stroke: #A80036; stroke-width: 1.2000000178813934;" x1="1374.4" x2="1507.2" y1="708.0406" y2="708.0406"/><line style="stroke: #A80036; stroke-width: 1.2000000178813934;" x1="1374.4" x2="1507.2" y1="714.4406" y2="714.4406"/><ellipse cx="1382.4" cy="724.8326" fill="#84BE84" rx="2.4" ry="2.4" style="stroke: #038048; stroke-width: 0.800000011920929;"/><text fill="#000000" font-family="sans-serif" font-size="8.8" lengthAdjust="spacingAndGlyphs" textLength="113.6" x="1389.6" y="727.0465">double : getExchangeRate()</text><ellipse cx="1382.4" cy="736.8166" fill="#84BE84" rx="2.4" ry="2.4" style="stroke: #038048; stroke-width: 0.800000011920929;"/><text fill="#000000" font-family="sans-serif" font-size="8.8" lengthAdjust="spacingAndGlyphs" textLength="100" x="1389.6" y="739.0305">String : getToCurrency()</text><rect fill="#FEFECE" filter="url(#f1)" height="50.384" style="stroke: #A80036; stroke-width: 1.2000000178813934;" width="134.4" x="874" y="781.2406"/><ellipse cx="910.6" cy="794.0406" fill="#ADD1B2" rx="8.8" ry="8.8" style="stroke: #A80036; stroke-width: 0.800000011920929;"/><path d="M908.925,793.9156 Q908.925,795.4156 909.3875,796.2219 Q909.85,797.0281 910.775,797.0281 Q911.85,797.0281 912.375,795.4156 L914.1875,795.7531 Q913.3,798.5781 910.7625,798.5781 Q908.8875,798.5781 907.9125,797.3906 Q906.9375,796.2031 906.9375,793.9156 Q906.9375,789.3406 910.7,789.3406 Q911.9375,789.3406 912.7688,789.9906 Q913.6,790.6406 914,791.9281 L912.1875,792.3656 Q912,791.6656 911.6125,791.2719 Q911.225,790.8781 910.725,790.8781 Q908.925,790.8781 908.925,793.9156 Z "/><text fill="#000000" font-family="sans-serif" font-size="9.6" lengthAdjust="spacingAndGlyphs" textLength="54.4" x="927" y="797.7649">KpiRequests</text><line style="stroke: #A80036; stroke-width: 1.2000000178813934;" x1="874.8" x2="1007.6" y1="806.8406" y2="806.8406"/><line style="stroke: #A80036; stroke-width: 1.2000000178813934;" x1="874.8" x2="1007.6" y1="813.2406" y2="813.2406"/><ellipse cx="882.8" cy="823.6326" fill="#84BE84" rx="2.4" ry="2.4" style="stroke: #038048; stroke-width: 0.800000011920929;"/><text fill="#000000" font-family="sans-serif" font-size="8.8" lengthAdjust="spacingAndGlyphs" text-decoration="underline" textLength="113.6" x="890" y="825.8465">int : getNumberOfMonths()</text><line style="stroke: #000000; stroke-width: 1.0;" x1="890" x2="1003.6" y1="827.4465" y2="827.4465"/><rect fill="#FEFECE" filter="url(#f1)" height="50.384" style="stroke: #A80036; stroke-width: 1.2000000178813934;" width="247.2" x="817.6" y="611.6406"/><ellipse cx="890.6" cy="624.4406" fill="#ADD1B2" rx="8.8" ry="8.8" style="stroke: #A80036; stroke-width: 0.800000011920929;"/><path d="M888.925,624.3156 Q888.925,625.8156 889.3875,626.6219 Q889.85,627.4281 890.775,627.4281 Q891.85,627.4281 892.375,625.8156 L894.1875,626.1531 Q893.3,628.9781 890.7625,628.9781 Q888.8875,628.9781 887.9125,627.7906 Q886.9375,626.6031 886.9375,624.3156 Q886.9375,619.7406 890.7,619.7406 Q891.9375,619.7406 892.7688,620.3906 Q893.6,621.0406 894,622.3281 L892.1875,622.7656 Q892,622.0656 891.6125,621.6719 Q891.225,621.2781 890.725,621.2781 Q888.925,621.2781 888.925,624.3156 Z "/><text fill="#000000" font-family="sans-serif" font-size="9.6" lengthAdjust="spacingAndGlyphs" textLength="94.4" x="907" y="628.1649">OrgStructureRequest</text><line style="stroke: #A80036; stroke-width: 1.2000000178813934;" x1="818.4" x2="1064" y1="637.2406" y2="637.2406"/><line style="stroke: #A80036; stroke-width: 1.2000000178813934;" x1="818.4" x2="1064" y1="643.6406" y2="643.6406"/><ellipse cx="826.4" cy="654.0326" fill="#84BE84" rx="2.4" ry="2.4" style="stroke: #038048; stroke-width: 0.800000011920929;"/><text fill="#000000" font-family="sans-serif" font-size="8.8" lengthAdjust="spacingAndGlyphs" textLength="226.4" x="833.6" y="656.2465">Result&lt;OrgStructureEntity&gt; : getProductMainGroups()</text><rect fill="#FEFECE" filter="url(#f1)" height="62.368" style="stroke: #A80036; stroke-width: 1.2000000178813934;" width="183.2" x="849.6" y="690.4406"/><ellipse cx="904.6" cy="703.2406" fill="#ADD1B2" rx="8.8" ry="8.8" style="stroke: #A80036; stroke-width: 0.800000011920929;"/><path d="M902.925,703.1156 Q902.925,704.6156 903.3875,705.4219 Q903.85,706.2281 904.775,706.2281 Q905.85,706.2281 906.375,704.6156 L908.1875,704.9531 Q907.3,707.7781 904.7625,707.7781 Q902.8875,707.7781 901.9125,706.5906 Q900.9375,705.4031 900.9375,703.1156 Q900.9375,698.5406 904.7,698.5406 Q905.9375,698.5406 906.7688,699.1906 Q907.6,699.8406 908,701.1281 L906.1875,701.5656 Q906,700.8656 905.6125,700.4719 Q905.225,700.0781 904.725,700.0781 Q902.925,700.0781 902.925,703.1156 Z "/><text fill="#000000" font-family="sans-serif" font-size="9.6" lengthAdjust="spacingAndGlyphs" textLength="66.4" x="921" y="706.9649">RegionRequest</text><line style="stroke: #A80036; stroke-width: 1.2000000178813934;" x1="850.4" x2="1032" y1="716.0406" y2="716.0406"/><line style="stroke: #A80036; stroke-width: 1.2000000178813934;" x1="850.4" x2="1032" y1="722.4406" y2="722.4406"/><ellipse cx="858.4" cy="732.8326" fill="#84BE84" rx="2.4" ry="2.4" style="stroke: #038048; stroke-width: 0.800000011920929;"/><text fill="#000000" font-family="sans-serif" font-size="8.8" lengthAdjust="spacingAndGlyphs" textLength="162.4" x="865.6" y="735.0465">Result&lt;RegionEntity&gt; : getSubregions()</text><ellipse cx="858.4" cy="744.8166" fill="#84BE84" rx="2.4" ry="2.4" style="stroke: #038048; stroke-width: 0.800000011920929;"/><text fill="#000000" font-family="sans-serif" font-size="8.8" lengthAdjust="spacingAndGlyphs" textLength="107.2" x="865.6" y="747.0305">Set&lt;String&gt; : getRegions()</text><rect fill="#FEFECE" filter="url(#f1)" height="62.368" style="stroke: #A80036; stroke-width: 1.2000000178813934;" width="159.2" x="582" y="690.4406"/><ellipse cx="640.2" cy="703.2406" fill="#ADD1B2" rx="8.8" ry="8.8" style="stroke: #A80036; stroke-width: 0.800000011920929;"/><path d="M638.525,703.1156 Q638.525,704.6156 638.9875,705.4219 Q639.45,706.2281 640.375,706.2281 Q641.45,706.2281 641.975,704.6156 L643.7875,704.9531 Q642.9,707.7781 640.3625,707.7781 Q638.4875,707.7781 637.5125,706.5906 Q636.5375,705.4031 636.5375,703.1156 Q636.5375,698.5406 640.3,698.5406 Q641.5375,698.5406 642.3688,699.1906 Q643.2,699.8406 643.6,701.1281 L641.7875,701.5656 Q641.6,700.8656 641.2125,700.4719 Q640.825,700.0781 640.325,700.0781 Q638.525,700.0781 638.525,703.1156 Z "/><text fill="#000000" font-family="sans-serif" font-size="9.6" lengthAdjust="spacingAndGlyphs" textLength="36" x="656.6" y="706.9649">Request</text><line style="stroke: #A80036; stroke-width: 1.2000000178813934;" x1="582.8" x2="740.4" y1="716.0406" y2="716.0406"/><line style="stroke: #A80036; stroke-width: 1.2000000178813934;" x1="582.8" x2="740.4" y1="722.4406" y2="722.4406"/><ellipse cx="590.8" cy="732.8326" fill="#84BE84" rx="2.4" ry="2.4" style="stroke: #038048; stroke-width: 0.800000011920929;"/><text fill="#000000" font-family="sans-serif" font-size="8.8" lengthAdjust="spacingAndGlyphs" textLength="88" x="598" y="735.0465">Session : getSession()</text><ellipse cx="590.8" cy="744.8166" fill="#84BE84" rx="2.4" ry="2.4" style="stroke: #038048; stroke-width: 0.800000011920929;"/><text fill="#000000" font-family="sans-serif" font-size="8.8" lengthAdjust="spacingAndGlyphs" textLength="138.4" x="598" y="747.0305">MappingManager : getManager()</text><rect fill="#FEFECE" filter="url(#f1)" height="50.384" style="stroke: #A80036; stroke-width: 1.2000000178813934;" width="176" x="1131.2" y="611.6406"/><ellipse cx="1185.8" cy="624.4406" fill="#ADD1B2" rx="8.8" ry="8.8" style="stroke: #A80036; stroke-width: 0.800000011920929;"/><path d="M1184.125,624.3156 Q1184.125,625.8156 1184.5875,626.6219 Q1185.05,627.4281 1185.975,627.4281 Q1187.05,627.4281 1187.575,625.8156 L1189.3875,626.1531 Q1188.5,628.9781 1185.9625,628.9781 Q1184.0875,628.9781 1183.1125,627.7906 Q1182.1375,626.6031 1182.1375,624.3156 Q1182.1375,619.7406 1185.9,619.7406 Q1187.1375,619.7406 1187.9688,620.3906 Q1188.8,621.0406 1189.2,622.3281 L1187.3875,622.7656 Q1187.2,622.0656 1186.8125,621.6719 Q1186.425,621.2781 1185.925,621.2781 Q1184.125,621.2781 1184.125,624.3156 Z "/><text fill="#000000" font-family="sans-serif" font-size="9.6" lengthAdjust="spacingAndGlyphs" textLength="60" x="1202.2" y="628.1649">SalesRequest</text><line style="stroke: #A80036; stroke-width: 1.2000000178813934;" x1="1132" x2="1306.4" y1="637.2406" y2="637.2406"/><line style="stroke: #A80036; stroke-width: 1.2000000178813934;" x1="1132" x2="1306.4" y1="643.6406" y2="643.6406"/><ellipse cx="1140" cy="654.0326" fill="#84BE84" rx="2.4" ry="2.4" style="stroke: #038048; stroke-width: 0.800000011920929;"/><text fill="#000000" font-family="sans-serif" font-size="8.8" lengthAdjust="spacingAndGlyphs" textLength="155.2" x="1147.2" y="656.2465">List&lt;OutputDataType&gt;: getSalesKpis()</text><rect fill="#FEFECE" filter="url(#f1)" height="50.384" style="stroke: #A80036; stroke-width: 1.2000000178813934;" width="110.4" x="886" y="992.4406"/><ellipse cx="902.68" cy="1005.2406" fill="#EB937F" rx="8.8" ry="8.8" style="stroke: #A80036; stroke-width: 0.800000011920929;"/><path d="M899.5925,1009.6406 L899.5925,1000.6781 L906.0175,1000.6781 L906.0175,1002.1906 L901.555,1002.1906 L901.555,1004.3531 L905.6175,1004.3531 L905.6175,1005.8656 L901.555,1005.8656 L901.555,1008.1281 L906.2925,1008.1281 L906.2925,1009.6406 L899.5925,1009.6406 Z "/><text fill="#000000" font-family="sans-serif" font-size="9.6" lengthAdjust="spacingAndGlyphs" textLength="74.4" x="914.92" y="1008.9649">KeyspaceNames</text><line style="stroke: #A80036; stroke-width: 1.2000000178813934;" x1="886.8" x2="995.6" y1="1018.0406" y2="1018.0406"/><line style="stroke: #A80036; stroke-width: 1.2000000178813934;" x1="886.8" x2="995.6" y1="1024.4406" y2="1024.4406"/><ellipse cx="894.8" cy="1034.8326" fill="#84BE84" rx="2.4" ry="2.4" style="stroke: #038048; stroke-width: 0.800000011920929;"/><text fill="#000000" font-family="sans-serif" font-size="8.8" lengthAdjust="spacingAndGlyphs" textLength="89.6" x="902" y="1037.0465">String : getKeyspace()</text><rect fill="#FEFECE" filter="url(#f1)" height="50.384" style="stroke: #A80036; stroke-width: 1.2000000178813934;" width="105.6" x="888.4" y="914.0406"/><ellipse cx="902.2" cy="926.8406" fill="#EB937F" rx="8.8" ry="8.8" style="stroke: #A80036; stroke-width: 0.800000011920929;"/><path d="M899.1125,931.2406 L899.1125,922.2781 L905.5375,922.2781 L905.5375,923.7906 L901.075,923.7906 L901.075,925.9531 L905.1375,925.9531 L905.1375,927.4656 L901.075,927.4656 L901.075,929.7281 L905.8125,929.7281 L905.8125,931.2406 L899.1125,931.2406 Z "/><text fill="#000000" font-family="sans-serif" font-size="9.6" lengthAdjust="spacingAndGlyphs" textLength="76" x="913.8" y="930.5649">ClusterEndpoints</text><line style="stroke: #A80036; stroke-width: 1.2000000178813934;" x1="889.2" x2="993.2" y1="939.6406" y2="939.6406"/><line style="stroke: #A80036; stroke-width: 1.2000000178813934;" x1="889.2" x2="993.2" y1="946.0406" y2="946.0406"/><ellipse cx="897.2" cy="956.4326" fill="#84BE84" rx="2.4" ry="2.4" style="stroke: #038048; stroke-width: 0.800000011920929;"/><text fill="#000000" font-family="sans-serif" font-size="8.8" lengthAdjust="spacingAndGlyphs" textLength="84.8" x="904.4" y="958.6465">String : getAddress()</text><rect fill="#FEFECE" filter="url(#f1)" height="74.352" style="stroke: #A80036; stroke-width: 1.2000000178813934;" width="159.2" x="582" y="913.2406"/><ellipse cx="609.84" cy="926.0406" fill="#ADD1B2" rx="8.8" ry="8.8" style="stroke: #A80036; stroke-width: 0.800000011920929;"/><path d="M608.165,925.9156 Q608.165,927.4156 608.6275,928.2219 Q609.09,929.0281 610.015,929.0281 Q611.09,929.0281 611.615,927.4156 L613.4275,927.7531 Q612.54,930.5781 610.0025,930.5781 Q608.1275,930.5781 607.1525,929.3906 Q606.1775,928.2031 606.1775,925.9156 Q606.1775,921.3406 609.94,921.3406 Q611.1775,921.3406 612.0088,921.9906 Q612.84,922.6406 613.24,923.9281 L611.4275,924.3656 Q611.24,923.6656 610.8525,923.2719 Q610.465,922.8781 609.965,922.8781 Q608.165,922.8781 608.165,925.9156 Z "/><text fill="#000000" font-family="sans-serif" font-size="9.6" lengthAdjust="spacingAndGlyphs" textLength="98.4" x="624.56" y="929.7649">CassandraConnection</text><line style="stroke: #A80036; stroke-width: 1.2000000178813934;" x1="582.8" x2="740.4" y1="938.8406" y2="938.8406"/><line style="stroke: #A80036; stroke-width: 1.2000000178813934;" x1="582.8" x2="740.4" y1="945.2406" y2="945.2406"/><ellipse cx="590.8" cy="955.6326" fill="#84BE84" rx="2.4" ry="2.4" style="stroke: #038048; stroke-width: 0.800000011920929;"/><text fill="#000000" font-family="sans-serif" font-size="8.8" lengthAdjust="spacingAndGlyphs" textLength="88" x="598" y="957.8465">Session : getSession()</text><ellipse cx="590.8" cy="967.6166" fill="#84BE84" rx="2.4" ry="2.4" style="stroke: #038048; stroke-width: 0.800000011920929;"/><text fill="#000000" font-family="sans-serif" font-size="8.8" lengthAdjust="spacingAndGlyphs" textLength="138.4" x="598" y="969.8305">MappingManager : getManager()</text><ellipse cx="590.8" cy="979.6006" fill="#84BE84" rx="2.4" ry="2.4" style="stroke: #038048; stroke-width: 0.800000011920929;"/><text fill="#000000" font-family="sans-serif" font-size="8.8" lengthAdjust="spacingAndGlyphs" textLength="99.2" x="598" y="981.8145">void : closeConnection()</text><rect fill="#FEFECE" filter="url(#f1)" height="38.4" style="stroke: #A80036; stroke-width: 1.2000000178813934;" width="200.8" x="68.8" y="384.0406"/><ellipse cx="80.8" cy="396.8406" fill="#ADD1B2" rx="8.8" ry="8.8" style="stroke: #A80036; stroke-width: 0.800000011920929;"/><path d="M79.125,396.7156 Q79.125,398.2156 79.5875,399.0219 Q80.05,399.8281 80.975,399.8281 Q82.05,399.8281 82.575,398.2156 L84.3875,398.5531 Q83.5,401.3781 80.9625,401.3781 Q79.0875,401.3781 78.1125,400.1906 Q77.1375,399.0031 77.1375,396.7156 Q77.1375,392.1406 80.9,392.1406 Q82.1375,392.1406 82.9688,392.7906 Q83.8,393.4406 84.2,394.7281 L82.3875,395.1656 Q82.2,394.4656 81.8125,394.0719 Q81.425,393.6781 80.925,393.6781 Q79.125,393.6781 79.125,396.7156 Z "/><text fill="#000000" font-family="sans-serif" font-size="9.6" lengthAdjust="spacingAndGlyphs" textLength="82.4" x="92" y="400.5648">ApplicationService</text><rect fill="#FFFFFF" height="14.6734" style="stroke: #000000; stroke-width: 0.800000011920929; stroke-dasharray: 2.0,2.0;" width="91.2" x="180.8" y="381.6406"/><text fill="#000000" font-family="sans-serif" font-size="9.6" font-style="italic" lengthAdjust="spacingAndGlyphs" textLength="89.6" x="181.6" y="392.7016">? extends Application</text><line style="stroke: #A80036; stroke-width: 1.2000000178813934;" x1="69.6" x2="268.8" y1="409.6406" y2="409.6406"/><line style="stroke: #A80036; stroke-width: 1.2000000178813934;" x1="69.6" x2="268.8" y1="416.0406" y2="416.0406"/><rect fill="#FEFECE" filter="url(#f1)" height="50.384" style="stroke: #A80036; stroke-width: 1.2000000178813934;" width="120.8" x="352.4" y="378.0406"/><ellipse cx="383.48" cy="390.8406" fill="#ADD1B2" rx="8.8" ry="8.8" style="stroke: #A80036; stroke-width: 0.800000011920929;"/><path d="M381.805,390.7156 Q381.805,392.2156 382.2675,393.0219 Q382.73,393.8281 383.655,393.8281 Q384.73,393.8281 385.255,392.2156 L387.0675,392.5531 Q386.18,395.3781 383.6425,395.3781 Q381.7675,395.3781 380.7925,394.1906 Q379.8175,393.0031 379.8175,390.7156 Q379.8175,386.1406 383.58,386.1406 Q384.8175,386.1406 385.6488,386.7906 Q386.48,387.4406 386.88,388.7281 L385.0675,389.1656 Q384.88,388.4656 384.4925,388.0719 Q384.105,387.6781 383.605,387.6781 Q381.805,387.6781 381.805,390.7156 Z "/><text fill="#000000" font-family="sans-serif" font-size="9.6" lengthAdjust="spacingAndGlyphs" textLength="52.8" x="398.92" y="394.5648">ForecastWS</text><line style="stroke: #A80036; stroke-width: 1.2000000178813934;" x1="353.2" x2="472.4" y1="403.6406" y2="403.6406"/><ellipse cx="361.2" cy="414.0326" fill="none" rx="2.4" ry="2.4" style="stroke: #038048; stroke-width: 0.800000011920929;"/><text fill="#000000" font-family="sans-serif" font-size="8.8" lengthAdjust="spacingAndGlyphs" textLength="100" x="368.4" y="416.2465">Response : getSalesKPIs</text><line style="stroke: #A80036; stroke-width: 1.2000000178813934;" x1="353.2" x2="472.4" y1="422.0246" y2="422.0246"/><path d="M1968.832,899.3094 C1991.184,890.679 2017.248,880.6158 2039.4,872.0654 " fill="none" style="stroke: #A80036; stroke-width: 0.800000011920929;"/><polygon fill="none" points="1970.616,904.6206,1953.68,905.159,1966.584,894.1726,1970.616,904.6206" style="stroke: #A80036; stroke-width: 0.800000011920929;"/><path d="M1969.992,919.2406 C1991.864,919.2406 2017.128,919.2406 2038.752,919.2406 " fill="none" style="stroke: #A80036; stroke-width: 0.800000011920929;"/><polygon fill="none" points="1969.68,924.8406,1953.68,919.2406,1969.68,913.6406,1969.68,924.8406" style="stroke: #A80036; stroke-width: 0.800000011920929;"/><path d="M1734.912,971.4638 C1757.632,992.2558 1792.376,1019.5222 1828.8,1031.2406 C1894.8,1052.4721 1921.216,1058.8936 1984.8,1031.2406 C2028.312,1012.3158 2061.904,965.3302 2078.256,938.6166 " fill="none" style="stroke: #A80036; stroke-width: 0.800000011920929;"/><polygon fill="#A80036" points="1727.104,964.1374,1728.4133,969.7558,1734.103,970.7082,1732.7937,965.0898,1727.104,964.1374" style="stroke: #A80036; stroke-width: 0.800000011920929;"/><text fill="#000000" font-family="sans-serif" font-size="10.4" lengthAdjust="spacingAndGlyphs" textLength="16.8" x="1908" y="1027.9567">use</text><path d="M1779.248,869.6878 C1805.456,866.4494 1834.784,862.8262 1859.504,859.7718 " fill="none" style="stroke: #A80036; stroke-width: 0.800000011920929;"/><polygon fill="#A80036" points="1768.608,871.0014,1773.7625,873.592,1778.1363,869.8304,1772.9819,867.2398,1768.608,871.0014" style="stroke: #A80036; stroke-width: 0.800000011920929;"/><text fill="#000000" font-family="sans-serif" font-size="10.4" lengthAdjust="spacingAndGlyphs" textLength="16.8" x="1804.8" y="861.5567">use</text><path d="M1776.16,835.7334 C1780.32,838.675 1784.192,841.9646 1787.6,845.6406 C1826.608,887.751 1782.184,934.547 1828.8,968.0406 C1898.928,1018.431 2006.256,968.6606 2058.496,938.5414 " fill="none" style="stroke: #A80036; stroke-width: 0.800000011920929;"/><polygon fill="#A80036" points="1767.28,830.1734,1769.6498,835.4331,1775.4164,835.2685,1773.0466,830.0089,1767.28,830.1734" style="stroke: #A80036; stroke-width: 0.800000011920929;"/><text fill="#000000" font-family="sans-serif" font-size="10.4" lengthAdjust="spacingAndGlyphs" textLength="16.8" x="1908" y="964.7567">use</text><path d="M1777.016,759.1526 C1804.552,764.5734 1835.816,770.7302 1861.672,775.8214 " fill="none" style="stroke: #A80036; stroke-width: 0.800000011920929;"/><polygon fill="#A80036" points="1766.672,757.1142,1770.7626,761.1821,1776.0908,758.9708,1772.0003,754.9029,1766.672,757.1142" style="stroke: #A80036; stroke-width: 0.800000011920929;"/><text fill="#000000" font-family="sans-serif" font-size="10.4" lengthAdjust="spacingAndGlyphs" textLength="16.8" x="1804.8" y="760.7567">use</text><path d="M1763.768,672.3998 C1799.136,668.0302 1844.168,662.4662 1875.976,658.5366 " fill="none" style="stroke: #A80036; stroke-width: 0.800000011920929;"/><polygon fill="#A80036" points="1753.36,673.6854,1758.5174,676.2703,1762.887,672.5039,1757.7297,669.919,1753.36,673.6854" style="stroke: #A80036; stroke-width: 0.800000011920929;"/><text fill="#000000" font-family="sans-serif" font-size="10.4" lengthAdjust="spacingAndGlyphs" textLength="16.8" x="1804.8" y="662.3567">use</text><path d="M756.6448,750.3886 C795.192,762.147 838.88,775.4734 873.984,786.1814 " fill="none" style="stroke: #A80036; stroke-width: 0.800000011920929;"/><polygon fill="none" points="754.9896,755.739,741.32,745.7142,758.2576,745.0262,754.9896,755.739" style="stroke: #A80036; stroke-width: 0.800000011920929;"/><path d="M1024.056,785.2398 C1038.056,780.2318 1052.152,774.2582 1064.8,767.2406 C1116.344,738.6494 1166.576,691.203 1194.896,662.1086 " fill="none" style="stroke: #A80036; stroke-width: 0.800000011920929;"/><polygon fill="none" points="1025.624,790.6206,1008.672,790.3942,1022.064,780.0006,1025.624,790.6206" style="stroke: #A80036; stroke-width: 0.800000011920929;"/><path d="M757.0696,717.2222 C769.8096,714.2814 782.3488,710.0502 793.6,704.0406 C807.824,696.4446 804.1264,685.6942 817.6,676.8406 C826.128,671.2382 835.504,666.3638 845.152,662.135 " fill="none" style="stroke: #A80036; stroke-width: 0.800000011920929;"/><polygon fill="none" points="757.972,722.751,741.2056,720.2494,755.8728,711.7494,757.972,722.751" style="stroke: #A80036; stroke-width: 0.800000011920929;"/><path d="M757.5096,721.6406 C787.276,721.6406 820.032,721.6406 849.504,721.6406 " fill="none" style="stroke: #A80036; stroke-width: 0.800000011920929;"/><polygon fill="none" points="757.32,727.2406,741.32,721.6406,757.32,716.0406,757.32,727.2406" style="stroke: #A80036; stroke-width: 0.800000011920929;"/><path d="M1478.104,752.4678 C1507.616,781.8062 1551.568,821.0894 1596.8,845.6406 C1612.216,854.0062 1630.024,860.4966 1646.768,865.4118 " fill="none" style="stroke: #A80036; stroke-width: 0.800000011920929;"/><polygon fill="#A80036" points="1470.544,744.859,1471.6591,750.5191,1477.3127,751.6668,1476.1976,746.0067,1470.544,744.859" style="stroke: #A80036; stroke-width: 0.800000011920929;"/><text fill="#000000" font-family="sans-serif" font-size="10.4" lengthAdjust="spacingAndGlyphs" textLength="16.8" x="1572.8" y="827.9567">use</text><path d="M1018.688,796.7158 C1036.288,790.8758 1053.208,781.6766 1064.8,767.2406 C1101.456,721.5822 1046.144,544.9534 1088.8,504.8406 C1127.776,468.1894 1480.888,477.4662 1635.192,483.3638 " fill="none" style="stroke: #A80036; stroke-width: 0.800000011920929;"/><polygon fill="#A80036" points="1008.576,799.7038,1014.0863,801.4117,1017.7821,796.9822,1012.2719,795.2743,1008.576,799.7038" style="stroke: #A80036; stroke-width: 0.800000011920929;"/><text fill="#000000" font-family="sans-serif" font-size="10.4" lengthAdjust="spacingAndGlyphs" textLength="16.8" x="1332" y="474.3566">use</text><path d="M1317.704,632.7902 C1407.368,631.3254 1531.304,635.7302 1565.6,668.8406 C1644,744.527 1526.24,828.995 1596.8,912.0406 C1610.672,928.3662 1632.288,936.7646 1652.704,941.0142 " fill="none" style="stroke: #A80036; stroke-width: 0.800000011920929;"/><polygon fill="#A80036" points="1307.224,632.9902,1312.0864,636.0947,1316.8221,632.8004,1311.9598,629.6959,1307.224,632.9902" style="stroke: #A80036; stroke-width: 0.800000011920929;"/><text fill="#000000" font-family="sans-serif" font-size="10.4" lengthAdjust="spacingAndGlyphs" textLength="16.8" x="1432.4" y="629.5567">use</text><path d="M1281.272,607.391 C1357.128,575.7198 1486.032,538.2422 1565.6,604.8406 C1625.984,655.3798 1544.344,720.5126 1596.8,779.2406 C1609.872,793.8806 1629.176,802.1102 1647.968,806.6958 " fill="none" style="stroke: #A80036; stroke-width: 0.800000011920929;"/><polygon fill="#A80036" points="1271.608,611.5134,1277.2797,612.568,1280.4345,607.7382,1274.7629,606.6836,1271.608,611.5134" style="stroke: #A80036; stroke-width: 0.800000011920929;"/><text fill="#000000" font-family="sans-serif" font-size="10.4" lengthAdjust="spacingAndGlyphs" textLength="16.8" x="1432.4" y="563.9566">use</text><path d="M1275.488,666.7998 C1292.952,675.347 1312.552,684.0606 1331.2,690.4406 C1344.632,695.0358 1359.32,698.9046 1373.432,702.0854 " fill="none" style="stroke: #A80036; stroke-width: 0.800000011920929;"/><polygon fill="#A80036" points="1266.024,662.0846,1268.8923,667.0899,1274.6158,666.3673,1271.7475,661.3621,1266.024,662.0846" style="stroke: #A80036; stroke-width: 0.800000011920929;"/><text fill="#000000" font-family="sans-serif" font-size="10.4" lengthAdjust="spacingAndGlyphs" textLength="16.8" x="1332" y="687.1567">use</text><path d="M470.5928,651.2718 C515.4624,624.8438 577.0312,588.5798 617.8208,564.555 " fill="none" style="stroke: #A80036; stroke-width: 0.800000011920929;"/><polygon fill="none" points="473.2872,656.1838,456.6592,659.479,467.6032,646.5334,473.2872,656.1838" style="stroke: #A80036; stroke-width: 0.800000011920929;"/><path d="M762.1016,550.7318 C843.84,560.8654 962.336,577.1902 1064.8,597.6406 C1086.392,601.9502 1109.488,607.3942 1131.04,612.843 " fill="none" style="stroke: #A80036; stroke-width: 0.800000011920929;"/><polygon fill="#A80036" points="751.5696,549.435,755.9426,553.1976,761.0977,550.6082,756.7247,546.8456,751.5696,549.435" style="stroke: #A80036; stroke-width: 0.800000011920929;"/><text fill="#000000" font-family="sans-serif" font-size="10.4" lengthAdjust="spacingAndGlyphs" textLength="16.8" x="932.8" y="554.3566">use</text><path d="M761.7184,522.3286 C896.208,504.8446 1138.744,492.979 1307.2,597.6406 C1345.752,621.5958 1338.696,646.219 1373.6,675.2406 C1376.568,677.7094 1379.72,680.1126 1382.968,682.4318 " fill="none" style="stroke: #A80036; stroke-width: 0.800000011920929;"/><polygon fill="#A80036" points="751.232,523.7326,756.414,526.2677,760.7472,522.4594,755.5652,519.9243,751.232,523.7326" style="stroke: #A80036; stroke-width: 0.800000011920929;"/><text fill="#000000" font-family="sans-serif" font-size="10.4" lengthAdjust="spacingAndGlyphs" textLength="16.8" x="1089.6" y="519.1566">use</text><path d="M721.4792,569.047 C749.9944,582.571 785.0184,597.939 817.6,608.8406 C820.4,609.7774 823.248,610.6926 826.128,611.587 " fill="none" style="stroke: #A80036; stroke-width: 0.800000011920929;"/><polygon fill="#A80036" points="712.0712,564.5406,715.0174,569.5005,720.7289,568.6885,717.7827,563.7287,712.0712,564.5406" style="stroke: #A80036; stroke-width: 0.800000011920929;"/><text fill="#000000" font-family="sans-serif" font-size="10.4" lengthAdjust="spacingAndGlyphs" textLength="16.8" x="776" y="590.3566">use</text><path d="M714.4744,570.491 C727,578.9294 739.9896,588.4982 751.2,598.4406 C785.16,628.559 780.3768,650.0638 817.6,676.0406 C827.392,682.8734 838.328,688.8214 849.536,693.9606 " fill="none" style="stroke: #A80036; stroke-width: 0.800000011920929;"/><polygon fill="#A80036" points="705.468,564.5566,707.7155,569.8697,713.4843,569.8386,711.2368,564.5255,705.468,564.5566" style="stroke: #A80036; stroke-width: 0.800000011920929;"/><text fill="#000000" font-family="sans-serif" font-size="10.4" lengthAdjust="spacingAndGlyphs" textLength="16.8" x="776" y="623.1566">use</text><path d="M689.3032,505.9718 C734.9568,453.5542 833.144,357.6406 940.4,357.6406 C940.4,357.6406 940.4,357.6406 1441.6,357.6406 C1528.856,357.6406 1632.248,355.4486 1680.072,354.3102 " fill="none" style="stroke: #A80036; stroke-width: 0.800000011920929;"/><polygon fill="#A80036" points="682.4344,513.9902,687.9875,512.4271,688.6804,506.7,683.1273,508.2631,682.4344,513.9902" style="stroke: #A80036; stroke-width: 0.800000011920929;"/><text fill="#000000" font-family="sans-serif" font-size="10.4" lengthAdjust="spacingAndGlyphs" textLength="16.8" x="1210.8" y="354.3566">use</text><path d="M714.2256,508.9414 C768.6608,480.0262 857.688,440.8406 940.4,440.8406 C940.4,440.8406 940.4,440.8406 1441.6,440.8406 C1517.224,440.8406 1604.608,432.3302 1657.768,426.1966 " fill="none" style="stroke: #A80036; stroke-width: 0.800000011920929;"/><polygon fill="#A80036" points="704.8032,514.0278,710.5472,514.5632,713.2506,509.467,707.5067,508.9316,704.8032,514.0278" style="stroke: #A80036; stroke-width: 0.800000011920929;"/><text fill="#000000" font-family="sans-serif" font-size="10.4" lengthAdjust="spacingAndGlyphs" textLength="16.8" x="1210.8" y="437.5566">use</text><path d="M751.5048,971.9798 C795.7368,982.6718 847.744,995.2422 885.976,1004.4846 " fill="none" style="stroke: #A80036; stroke-width: 0.800000011920929;"/><polygon fill="#A80036" points="741.32,969.5174,745.2339,973.7555,750.6513,971.7727,746.7374,967.5346,741.32,969.5174" style="stroke: #A80036; stroke-width: 0.800000011920929;"/><text fill="#000000" font-family="sans-serif" font-size="10.4" lengthAdjust="spacingAndGlyphs" textLength="16.8" x="776" y="974.3567">use</text><path d="M751.9872,946.831 C797.0256,945.0166 850.024,942.8814 888.32,941.339 " fill="none" style="stroke: #A80036; stroke-width: 0.800000011920929;"/><polygon fill="#A80036" points="741.32,947.2614,746.2452,950.2653,750.9122,946.8743,745.9871,943.8705,741.32,947.2614" style="stroke: #A80036; stroke-width: 0.800000011920929;"/><text fill="#000000" font-family="sans-serif" font-size="10.4" lengthAdjust="spacingAndGlyphs" textLength="16.8" x="776" y="941.5567">use</text><path d="M444.4072,717.9406 C490.6392,767.6142 577.692,861.1462 626.1016,913.1598 " fill="none" style="stroke: #A80036; stroke-width: 0.800000011920929;"/><polygon fill="#A80036" points="437.0792,710.067,438.0072,715.7608,443.6199,717.0941,442.6919,711.4003,437.0792,710.067" style="stroke: #A80036; stroke-width: 0.800000011920929;"/><text fill="#000000" font-family="sans-serif" font-size="10.4" lengthAdjust="spacingAndGlyphs" textLength="16.8" x="530.4" y="806.3567">use</text><path d="M269.828,403.2406 C297.8208,403.2406 327.3736,403.2406 352.2408,403.2406 " fill="none" style="stroke: #A80036; stroke-width: 0.800000011920929;"/><path d="M468.632,433.5174 C512.6152,457.715 573.544,491.2358 614.92,513.999 " fill="none" style="stroke: #A80036; stroke-width: 0.800000011920929;"/><polygon fill="#A80036" points="459.5168,428.5022,462.1796,433.6198,467.9277,433.1301,465.2649,428.0126,459.5168,428.5022" style="stroke: #A80036; stroke-width: 0.800000011920929;"/><text fill="#000000" font-family="sans-serif" font-size="10.4" lengthAdjust="spacingAndGlyphs" textLength="16.8" x="530.4" y="463.1566">use</text></g></svg>