<?xml version="1.0" encoding="UTF-8" standalone="yes"?><svg xmlns="http://www.w3.org/2000/svg" xmlns:xlink="http://www.w3.org/1999/xlink" height="736.8px" style="width:1612px;height:736px;" version="1.1" viewBox="0 0 1612 736" width="1612.2001px"><defs><filter height="300%" id="f1" width="300%" x="-1" y="-1"><feGaussianBlur result="blurOut" stdDeviation="1.2000000476837158"/><feColorMatrix in="blurOut" result="blurOut2" type="matrix" values="0 0 0 0 0 0 0 0 0 0 0 0 0 0 0 0 0 0 .4 0"/><feOffset dx="2.4000000953674316" dy="2.4000000953674316" in="blurOut2" result="blurOut3"/><feBlend in="SourceGraphic" in2="blurOut3" mode="normal"/></filter></defs><g><text fill="#000000" font-family="sans-serif" font-size="10.8" font-weight="bold" lengthAdjust="spacingAndGlyphs" textLength="87.6" x="719.4" y="11.2113">Class diagram of</text><text fill="#000000" font-family="sans-serif" font-size="10.8" font-weight="bold" lengthAdjust="spacingAndGlyphs" text-decoration="underline" textLength="59.4" x="810" y="11.2113">FourSchlag</text><line style="stroke: #000000; stroke-width: 1.0;" x1="810" x2="869.4" y1="12.4113" y2="12.4113"/><text fill="#000000" font-family="sans-serif" font-size="10.8" font-weight="bold" lengthAdjust="spacingAndGlyphs" textLength="36.6" x="872.4" y="11.2113">project</text><text fill="#000000" font-family="sans-serif" font-size="10.8" font-style="italic" lengthAdjust="spacingAndGlyphs" textLength="58.2" x="623.7" y="24.7957">Description:</text><text fill="#000000" font-family="sans-serif" font-size="10.8" lengthAdjust="spacingAndGlyphs" textLength="202.8" x="684.9" y="24.7957">Reduced package / class dependencies of</text><text fill="#000000" font-family="sans-serif" font-size="10.8" font-style="italic" lengthAdjust="spacingAndGlyphs" textLength="34.8" x="890.7" y="24.7957">SALES</text><text fill="#000000" font-family="sans-serif" font-size="10.8" lengthAdjust="spacingAndGlyphs" textLength="76.2" x="928.5" y="24.7957">KPI calculations</text><text fill="#000000" font-family="sans-serif" font-size="10.8" font-style="italic" lengthAdjust="spacingAndGlyphs" textLength="40.2" x="736.2" y="38.3801">Version:</text><text fill="#000000" font-family="sans-serif" font-size="10.8" lengthAdjust="spacingAndGlyphs" textLength="0" x="779.4" y="38.3801"/><text fill="#000000" font-family="sans-serif" font-size="10.8" font-weight="bold" lengthAdjust="spacingAndGlyphs" textLength="36.6" x="779.4" y="38.3801">DRAFT</text><text fill="#000000" font-family="sans-serif" font-size="10.8" lengthAdjust="spacingAndGlyphs" textLength="76.2" x="816" y="38.3801">, 14th Nov 2016</text><text fill="#000000" font-family="sans-serif" font-size="10.8" font-style="italic" lengthAdjust="spacingAndGlyphs" textLength="34.8" x="757.8" y="51.9645">Author:</text><text fill="#000000" font-family="sans-serif" font-size="10.8" lengthAdjust="spacingAndGlyphs" textLength="75" x="795.6" y="51.9645">Steffen Wagner</text><polygon fill="#FFFFFF" filter="url(#f1)" points="13.2,68.7375,61.8,68.7375,66,82.9031,1608.0001,82.9031,1608.0001,732.9375,13.2,732.9375,13.2,68.7375" style="stroke: #000000; stroke-width: 1.2000000476837158;"/><line style="stroke: #000000; stroke-width: 1.2000000476837158;" x1="13.2" x2="66" y1="82.9031" y2="82.9031"/><text fill="#000000" font-family="sans-serif" font-size="8.4" font-weight="bold" lengthAdjust="spacingAndGlyphs" textLength="45" x="15.6" y="78.6574">fourschlag</text><polygon fill="#FFFFFF" filter="url(#f1)" points="1163.4,95.1375,1198.8,95.1375,1203,109.3031,1593.6001,109.3031,1593.6001,718.5375,1163.4,718.5375,1163.4,95.1375" style="stroke: #000000; stroke-width: 1.2000000476837158;"/><line style="stroke: #000000; stroke-width: 1.2000000476837158;" x1="1163.4" x2="1203" y1="109.3031" y2="109.3031"/><text fill="#000000" font-family="sans-serif" font-size="8.4" font-weight="bold" lengthAdjust="spacingAndGlyphs" textLength="31.8" x="1165.8" y="105.0574">entities</text><polygon fill="#FFFFFF" filter="url(#f1)" points="1182,444.9375,1228.8,444.9375,1233,459.1031,1299.0001,459.1031,1299.0001,704.1375,1182,704.1375,1182,444.9375" style="stroke: #000000; stroke-width: 1.2000000476837158;"/><line style="stroke: #000000; stroke-width: 1.2000000476837158;" x1="1182" x2="1233" y1="459.1031" y2="459.1031"/><text fill="#000000" font-family="sans-serif" font-size="8.4" font-weight="bold" lengthAdjust="spacingAndGlyphs" textLength="43.2" x="1184.4" y="454.8574">accessors</text><polygon fill="#FFFFFF" filter="url(#f1)" points="1177.8,121.5375,1204.2,121.5375,1208.4,135.7031,1303.2001,135.7031,1303.2001,430.5375,1177.8,430.5375,1177.8,121.5375" style="stroke: #000000; stroke-width: 1.2000000476837158;"/><line style="stroke: #000000; stroke-width: 1.2000000476837158;" x1="1177.8" x2="1208.4" y1="135.7031" y2="135.7031"/><text fill="#000000" font-family="sans-serif" font-size="8.4" font-weight="bold" lengthAdjust="spacingAndGlyphs" textLength="22.8" x="1180.2" y="131.4574">types</text><polygon fill="#FFFFFF" filter="url(#f1)" points="1336.2001,296.1375,1365.6001,296.1375,1369.8001,310.3031,1579.2001,310.3031,1579.2001,605.1375,1336.2001,605.1375,1336.2001,296.1375" style="stroke: #000000; stroke-width: 1.2000000476837158;"/><line style="stroke: #000000; stroke-width: 1.2000000476837158;" x1="1336.2001" x2="1369.8001" y1="310.3031" y2="310.3031"/><text fill="#000000" font-family="sans-serif" font-size="8.4" font-weight="bold" lengthAdjust="spacingAndGlyphs" textLength="25.8" x="1338.6001" y="306.0574">tables</text><polygon fill="#FFFFFF" filter="url(#f1)" points="27.6,138.9375,67.8,138.9375,72,153.1031,1130.4,153.1031,1130.4,718.5375,27.6,718.5375,27.6,138.9375" style="stroke: #000000; stroke-width: 1.2000000476837158;"/><line style="stroke: #000000; stroke-width: 1.2000000476837158;" x1="27.6" x2="72" y1="153.1031" y2="153.1031"/><text fill="#000000" font-family="sans-serif" font-size="8.4" font-weight="bold" lengthAdjust="spacingAndGlyphs" textLength="36.6" x="30" y="148.8574">services</text><polygon fill="#FFFFFF" filter="url(#f1)" points="231.6,306.3375,253.2,306.3375,257.4,320.5031,1116,320.5031,1116,580.5375,231.6,580.5375,231.6,306.3375" style="stroke: #000000; stroke-width: 1.2000000476837158;"/><line style="stroke: #000000; stroke-width: 1.2000000476837158;" x1="231.6" x2="257.4" y1="320.5031" y2="320.5031"/><text fill="#000000" font-family="sans-serif" font-size="8.4" font-weight="bold" lengthAdjust="spacingAndGlyphs" textLength="18" x="234" y="316.2574">data</text><polygon fill="#FFFFFF" filter="url(#f1)" points="422.1,381.3375,463.5,381.3375,467.7,395.5031,1101.6,395.5031,1101.6,566.1375,422.1,566.1375,422.1,381.3375" style="stroke: #000000; stroke-width: 1.2000000476837158;"/><line style="stroke: #000000; stroke-width: 1.2000000476837158;" x1="422.1" x2="467.7" y1="395.5031" y2="395.5031"/><text fill="#000000" font-family="sans-serif" font-size="8.4" font-weight="bold" lengthAdjust="spacingAndGlyphs" textLength="37.8" x="424.5" y="391.2574">requests</text><polygon fill="#FFFFFF" filter="url(#f1)" points="422.1,165.3375,436.5,165.3375,440.7,179.5031,735.3,179.5031,735.3,291.9375,422.1,291.9375,422.1,165.3375" style="stroke: #000000; stroke-width: 1.2000000476837158;"/><line style="stroke: #000000; stroke-width: 1.2000000476837158;" x1="422.1" x2="440.7" y1="179.5031" y2="179.5031"/><text fill="#000000" font-family="sans-serif" font-size="8.4" font-weight="bold" lengthAdjust="spacingAndGlyphs" textLength="10.8" x="424.5" y="175.2574">db</text><polygon fill="#FFFFFF" filter="url(#f1)" points="42,594.9375,63,594.9375,67.2,609.1031,375,609.1031,375,704.1375,42,704.1375,42,594.9375" style="stroke: #000000; stroke-width: 1.2000000476837158;"/><line style="stroke: #000000; stroke-width: 1.2000000476837158;" x1="42" x2="67.2" y1="609.1031" y2="609.1031"/><text fill="#000000" font-family="sans-serif" font-size="8.4" font-weight="bold" lengthAdjust="spacingAndGlyphs" textLength="17.4" x="44.4" y="604.8574">web</text><polygon fill="#FFFFFF" filter="url(#f1)" points="253.2,621.3375,268.2,621.3375,272.4,635.5032,360.6,635.5032,360.6,689.7375,253.2,689.7375,253.2,621.3375" style="stroke: #000000; stroke-width: 1.2000000476837158;"/><line style="stroke: #000000; stroke-width: 1.2000000476837158;" x1="253.2" x2="272.4" y1="635.5032" y2="635.5032"/><text fill="#000000" font-family="sans-serif" font-size="8.4" font-weight="bold" lengthAdjust="spacingAndGlyphs" textLength="11.4" x="255.6" y="631.2574">ws</text><rect fill="#FEFECE" filter="url(#f1)" height="28.8" style="stroke: #A80036; stroke-width: 0.9000000357627869;" width="88.2" x="1196.4" y="665.7375"/><ellipse cx="1205.4" cy="675.3375" fill="#B4A7E5" rx="6.6" ry="6.6" style="stroke: #A80036; stroke-width: 0.6000000238418579;"/><path d="M1205.9719,673.3219 L1205.9719,677.3157 L1207.0032,677.3157 Q1207.3688,677.3157 1207.5282,677.4563 Q1207.6875,677.5969 1207.6875,677.8313 Q1207.6875,678.0563 1207.5282,678.1969 Q1207.3688,678.3375 1207.0032,678.3375 L1203.9188,678.3375 Q1203.5532,678.3375 1203.3938,678.1969 Q1203.2344,678.0563 1203.2344,677.8219 Q1203.2344,677.5969 1203.3938,677.4563 Q1203.5532,677.3157 1203.9188,677.3157 L1204.95,677.3157 L1204.95,673.3219 L1203.9188,673.3219 Q1203.5532,673.3219 1203.3938,673.1813 Q1203.2344,673.0407 1203.2344,672.8063 Q1203.2344,672.5813 1203.3938,672.4407 Q1203.5532,672.3 1203.9188,672.3 L1207.0032,672.3 Q1207.3688,672.3 1207.5282,672.4407 Q1207.6875,672.5813 1207.6875,672.8063 Q1207.6875,673.0407 1207.5282,673.1813 Q1207.3688,673.3219 1207.0032,673.3219 L1205.9719,673.3219 Z "/><text fill="#000000" font-family="sans-serif" font-size="7.2" font-style="italic" lengthAdjust="spacingAndGlyphs" textLength="69" x="1213.8" y="678.2836">ActualSalesAccessor</text><line style="stroke: #A80036; stroke-width: 0.9000000357627869;" x1="1197" x2="1284.0001" y1="684.9375" y2="684.9375"/><line style="stroke: #A80036; stroke-width: 0.9000000357627869;" x1="1197" x2="1284.0001" y1="689.7375" y2="689.7375"/><rect fill="#FEFECE" filter="url(#f1)" height="28.8" style="stroke: #A80036; stroke-width: 0.9000000357627869;" width="97.8" x="1191.6" y="615.9375"/><ellipse cx="1200.6" cy="625.5375" fill="#B4A7E5" rx="6.6" ry="6.6" style="stroke: #A80036; stroke-width: 0.6000000238418579;"/><path d="M1201.1719,623.5219 L1201.1719,627.5156 L1202.2032,627.5156 Q1202.5688,627.5156 1202.7282,627.6563 Q1202.8875,627.7969 1202.8875,628.0313 Q1202.8875,628.2563 1202.7282,628.3969 Q1202.5688,628.5375 1202.2032,628.5375 L1199.1188,628.5375 Q1198.7532,628.5375 1198.5938,628.3969 Q1198.4344,628.2563 1198.4344,628.0219 Q1198.4344,627.7969 1198.5938,627.6563 Q1198.7532,627.5156 1199.1188,627.5156 L1200.15,627.5156 L1200.15,623.5219 L1199.1188,623.5219 Q1198.7532,623.5219 1198.5938,623.3813 Q1198.4344,623.2406 1198.4344,623.0063 Q1198.4344,622.7813 1198.5938,622.6406 Q1198.7532,622.5 1199.1188,622.5 L1202.2032,622.5 Q1202.5688,622.5 1202.7282,622.6406 Q1202.8875,622.7813 1202.8875,623.0063 Q1202.8875,623.2406 1202.7282,623.3813 Q1202.5688,623.5219 1202.2032,623.5219 L1201.1719,623.5219 Z "/><text fill="#000000" font-family="sans-serif" font-size="7.2" font-style="italic" lengthAdjust="spacingAndGlyphs" textLength="78.6" x="1209" y="628.4836">ExchangeRateAccessor</text><line style="stroke: #A80036; stroke-width: 0.9000000357627869;" x1="1192.2" x2="1288.8001" y1="635.1375" y2="635.1375"/><line style="stroke: #A80036; stroke-width: 0.9000000357627869;" x1="1192.2" x2="1288.8001" y1="639.9375" y2="639.9375"/><rect fill="#FEFECE" filter="url(#f1)" height="28.8" style="stroke: #A80036; stroke-width: 0.9000000357627869;" width="96" x="1192.5" y="566.1375"/><ellipse cx="1201.5" cy="575.7375" fill="#B4A7E5" rx="6.6" ry="6.6" style="stroke: #A80036; stroke-width: 0.6000000238418579;"/><path d="M1202.0719,573.7219 L1202.0719,577.7156 L1203.1032,577.7156 Q1203.4688,577.7156 1203.6282,577.8563 Q1203.7875,577.9969 1203.7875,578.2313 Q1203.7875,578.4563 1203.6282,578.5969 Q1203.4688,578.7375 1203.1032,578.7375 L1200.0188,578.7375 Q1199.6532,578.7375 1199.4938,578.5969 Q1199.3344,578.4563 1199.3344,578.2219 Q1199.3344,577.9969 1199.4938,577.8563 Q1199.6532,577.7156 1200.0188,577.7156 L1201.05,577.7156 L1201.05,573.7219 L1200.0188,573.7219 Q1199.6532,573.7219 1199.4938,573.5813 Q1199.3344,573.4406 1199.3344,573.2063 Q1199.3344,572.9813 1199.4938,572.8406 Q1199.6532,572.7 1200.0188,572.7 L1203.1032,572.7 Q1203.4688,572.7 1203.6282,572.8406 Q1203.7875,572.9813 1203.7875,573.2063 Q1203.7875,573.4406 1203.6282,573.5813 Q1203.4688,573.7219 1203.1032,573.7219 L1202.0719,573.7219 Z "/><text fill="#000000" font-family="sans-serif" font-size="7.2" font-style="italic" lengthAdjust="spacingAndGlyphs" textLength="76.8" x="1209.9" y="578.6836">ForecastSalesAccessor</text><line style="stroke: #A80036; stroke-width: 0.9000000357627869;" x1="1193.1" x2="1287.9001" y1="585.3375" y2="585.3375"/><line style="stroke: #A80036; stroke-width: 0.9000000357627869;" x1="1193.1" x2="1287.9001" y1="590.1375" y2="590.1375"/><rect fill="#FEFECE" filter="url(#f1)" height="28.8" style="stroke: #A80036; stroke-width: 0.9000000357627869;" width="90.6" x="1195.2" y="516.3375"/><ellipse cx="1204.2" cy="525.9375" fill="#B4A7E5" rx="6.6" ry="6.6" style="stroke: #A80036; stroke-width: 0.6000000238418579;"/><path d="M1204.7719,523.9219 L1204.7719,527.9156 L1205.8032,527.9156 Q1206.1688,527.9156 1206.3282,528.0563 Q1206.4875,528.1969 1206.4875,528.4313 Q1206.4875,528.6563 1206.3282,528.7969 Q1206.1688,528.9375 1205.8032,528.9375 L1202.7188,528.9375 Q1202.3532,528.9375 1202.1938,528.7969 Q1202.0344,528.6563 1202.0344,528.4219 Q1202.0344,528.1969 1202.1938,528.0563 Q1202.3532,527.9156 1202.7188,527.9156 L1203.75,527.9156 L1203.75,523.9219 L1202.7188,523.9219 Q1202.3532,523.9219 1202.1938,523.7813 Q1202.0344,523.6406 1202.0344,523.4063 Q1202.0344,523.1813 1202.1938,523.0406 Q1202.3532,522.9 1202.7188,522.9 L1205.8032,522.9 Q1206.1688,522.9 1206.3282,523.0406 Q1206.4875,523.1813 1206.4875,523.4063 Q1206.4875,523.6406 1206.3282,523.7813 Q1206.1688,523.9219 1205.8032,523.9219 L1204.7719,523.9219 Z "/><text fill="#000000" font-family="sans-serif" font-size="7.2" font-style="italic" lengthAdjust="spacingAndGlyphs" textLength="71.4" x="1212.6" y="528.8836">OrgStructureAccessor</text><line style="stroke: #A80036; stroke-width: 0.9000000357627869;" x1="1195.8" x2="1285.2001" y1="535.5375" y2="535.5375"/><line style="stroke: #A80036; stroke-width: 0.9000000357627869;" x1="1195.8" x2="1285.2001" y1="540.3375" y2="540.3375"/><rect fill="#FEFECE" filter="url(#f1)" height="28.8" style="stroke: #A80036; stroke-width: 0.9000000357627869;" width="73.2" x="1203.9" y="466.5375"/><ellipse cx="1212.9" cy="476.1375" fill="#B4A7E5" rx="6.6" ry="6.6" style="stroke: #A80036; stroke-width: 0.6000000238418579;"/><path d="M1213.4719,474.1219 L1213.4719,478.1156 L1214.5032,478.1156 Q1214.8688,478.1156 1215.0282,478.2563 Q1215.1875,478.3969 1215.1875,478.6313 Q1215.1875,478.8563 1215.0282,478.9969 Q1214.8688,479.1375 1214.5032,479.1375 L1211.4188,479.1375 Q1211.0532,479.1375 1210.8938,478.9969 Q1210.7344,478.8563 1210.7344,478.6219 Q1210.7344,478.3969 1210.8938,478.2563 Q1211.0532,478.1156 1211.4188,478.1156 L1212.45,478.1156 L1212.45,474.1219 L1211.4188,474.1219 Q1211.0532,474.1219 1210.8938,473.9813 Q1210.7344,473.8406 1210.7344,473.6063 Q1210.7344,473.3813 1210.8938,473.2406 Q1211.0532,473.1 1211.4188,473.1 L1214.5032,473.1 Q1214.8688,473.1 1215.0282,473.2406 Q1215.1875,473.3813 1215.1875,473.6063 Q1215.1875,473.8406 1215.0282,473.9813 Q1214.8688,474.1219 1214.5032,474.1219 L1213.4719,474.1219 Z "/><text fill="#000000" font-family="sans-serif" font-size="7.2" font-style="italic" lengthAdjust="spacingAndGlyphs" textLength="54" x="1221.3" y="479.0836">RegionAccessor</text><line style="stroke: #A80036; stroke-width: 0.9000000357627869;" x1="1204.5" x2="1276.5001" y1="485.7375" y2="485.7375"/><line style="stroke: #A80036; stroke-width: 0.9000000357627869;" x1="1204.5" x2="1276.5001" y1="490.5375" y2="490.5375"/><rect fill="#FEFECE" filter="url(#f1)" height="28.8" style="stroke: #A80036; stroke-width: 0.9000000357627869;" width="58.2" x="1211.4" y="143.1375"/><ellipse cx="1220.4" cy="152.7375" fill="#EB937F" rx="6.6" ry="6.6" style="stroke: #A80036; stroke-width: 0.6000000238418579;"/><path d="M1219.7157,153.2156 L1219.7157,154.7156 L1222.3125,154.7156 L1222.3125,154.1625 Q1222.3125,153.7969 1222.4579,153.6375 Q1222.6032,153.4781 1222.8282,153.4781 Q1223.0532,153.4781 1223.1938,153.6375 Q1223.3344,153.7969 1223.3344,154.1625 L1223.3344,155.7375 L1218.5344,155.7375 Q1218.1594,155.7375 1218.0047,155.5969 Q1217.85,155.4563 1217.85,155.2219 Q1217.85,154.9969 1218.0094,154.8563 Q1218.1688,154.7156 1218.5344,154.7156 L1218.6938,154.7156 L1218.6938,150.7219 L1218.5344,150.7219 Q1218.1594,150.7219 1218.0047,150.5813 Q1217.85,150.4406 1217.85,150.2063 Q1217.85,149.9813 1218.0047,149.8406 Q1218.1594,149.7 1218.5344,149.7 L1223.1094,149.7 L1223.1094,151.2563 Q1223.1094,151.6219 1222.9735,151.7766 Q1222.8375,151.9313 1222.6032,151.9313 Q1222.3782,151.9313 1222.2375,151.7766 Q1222.0969,151.6219 1222.0969,151.2563 L1222.0969,150.7219 L1219.7157,150.7219 L1219.7157,152.1938 L1220.6063,152.1938 Q1220.6063,151.8 1220.6813,151.6875 Q1220.8407,151.4438 1221.1219,151.4438 Q1221.3469,151.4438 1221.4875,151.5984 Q1221.6282,151.7531 1221.6282,152.1188 L1221.6282,153.3 Q1221.6282,153.6281 1221.5532,153.7406 Q1221.3938,153.975 1221.1219,153.975 Q1220.8407,153.975 1220.6813,153.7313 Q1220.6063,153.6188 1220.6063,153.2156 L1219.7157,153.2156 Z "/><text fill="#000000" font-family="sans-serif" font-size="7.2" lengthAdjust="spacingAndGlyphs" textLength="39" x="1228.8" y="155.6836">DataSource</text><line style="stroke: #A80036; stroke-width: 0.9000000357627869;" x1="1212" x2="1269.0001" y1="162.3375" y2="162.3375"/><line style="stroke: #A80036; stroke-width: 0.9000000357627869;" x1="1212" x2="1269.0001" y1="167.1375" y2="167.1375"/><rect fill="#FEFECE" filter="url(#f1)" height="28.8" style="stroke: #A80036; stroke-width: 0.9000000357627869;" width="51" x="1215" y="192.9375"/><ellipse cx="1224" cy="202.5375" fill="#EB937F" rx="6.6" ry="6.6" style="stroke: #A80036; stroke-width: 0.6000000238418579;"/><path d="M1223.3157,203.0156 L1223.3157,204.5156 L1225.9125,204.5156 L1225.9125,203.9625 Q1225.9125,203.5969 1226.0579,203.4375 Q1226.2032,203.2781 1226.4282,203.2781 Q1226.6532,203.2781 1226.7938,203.4375 Q1226.9344,203.5969 1226.9344,203.9625 L1226.9344,205.5375 L1222.1344,205.5375 Q1221.7594,205.5375 1221.6047,205.3969 Q1221.45,205.2563 1221.45,205.0219 Q1221.45,204.7969 1221.6094,204.6563 Q1221.7688,204.5156 1222.1344,204.5156 L1222.2938,204.5156 L1222.2938,200.5219 L1222.1344,200.5219 Q1221.7594,200.5219 1221.6047,200.3813 Q1221.45,200.2406 1221.45,200.0063 Q1221.45,199.7813 1221.6047,199.6406 Q1221.7594,199.5 1222.1344,199.5 L1226.7094,199.5 L1226.7094,201.0563 Q1226.7094,201.4219 1226.5735,201.5766 Q1226.4375,201.7313 1226.2032,201.7313 Q1225.9782,201.7313 1225.8375,201.5766 Q1225.6969,201.4219 1225.6969,201.0563 L1225.6969,200.5219 L1223.3157,200.5219 L1223.3157,201.9938 L1224.2063,201.9938 Q1224.2063,201.6 1224.2813,201.4875 Q1224.4407,201.2438 1224.7219,201.2438 Q1224.9469,201.2438 1225.0875,201.3984 Q1225.2282,201.5531 1225.2282,201.9188 L1225.2282,203.1 Q1225.2282,203.4281 1225.1532,203.5406 Q1224.9938,203.775 1224.7219,203.775 Q1224.4407,203.775 1224.2813,203.5313 Q1224.2063,203.4188 1224.2063,203.0156 L1223.3157,203.0156 Z "/><text fill="#000000" font-family="sans-serif" font-size="7.2" lengthAdjust="spacingAndGlyphs" textLength="31.8" x="1232.4" y="205.4836">EntryType</text><line style="stroke: #A80036; stroke-width: 0.9000000357627869;" x1="1215.6" x2="1265.4001" y1="212.1375" y2="212.1375"/><line style="stroke: #A80036; stroke-width: 0.9000000357627869;" x1="1215.6" x2="1265.4001" y1="216.9375" y2="216.9375"/><rect fill="#FEFECE" filter="url(#f1)" height="28.8" style="stroke: #A80036; stroke-width: 0.9000000357627869;" width="106.2" x="1187.4" y="392.1375"/><ellipse cx="1196.4" cy="401.7375" fill="#EB937F" rx="6.6" ry="6.6" style="stroke: #A80036; stroke-width: 0.6000000238418579;"/><path d="M1195.7157,402.2156 L1195.7157,403.7156 L1198.3125,403.7156 L1198.3125,403.1625 Q1198.3125,402.7969 1198.4579,402.6375 Q1198.6032,402.4781 1198.8282,402.4781 Q1199.0532,402.4781 1199.1938,402.6375 Q1199.3344,402.7969 1199.3344,403.1625 L1199.3344,404.7375 L1194.5344,404.7375 Q1194.1594,404.7375 1194.0047,404.5969 Q1193.85,404.4563 1193.85,404.2219 Q1193.85,403.9969 1194.0094,403.8563 Q1194.1688,403.7156 1194.5344,403.7156 L1194.6938,403.7156 L1194.6938,399.7219 L1194.5344,399.7219 Q1194.1594,399.7219 1194.0047,399.5813 Q1193.85,399.4406 1193.85,399.2063 Q1193.85,398.9813 1194.0047,398.8406 Q1194.1594,398.7 1194.5344,398.7 L1199.1094,398.7 L1199.1094,400.2563 Q1199.1094,400.6219 1198.9735,400.7766 Q1198.8375,400.9313 1198.6032,400.9313 Q1198.3782,400.9313 1198.2375,400.7766 Q1198.0969,400.6219 1198.0969,400.2563 L1198.0969,399.7219 L1195.7157,399.7219 L1195.7157,401.1938 L1196.6063,401.1938 Q1196.6063,400.8 1196.6813,400.6875 Q1196.8407,400.4438 1197.1219,400.4438 Q1197.3469,400.4438 1197.4875,400.5985 Q1197.6282,400.7531 1197.6282,401.1188 L1197.6282,402.3 Q1197.6282,402.6281 1197.5532,402.7406 Q1197.3938,402.975 1197.1219,402.975 Q1196.8407,402.975 1196.6813,402.7313 Q1196.6063,402.6188 1196.6063,402.2156 L1195.7157,402.2156 Z "/><text fill="#000000" font-family="sans-serif" font-size="7.2" lengthAdjust="spacingAndGlyphs" textLength="87" x="1204.8" y="404.6836">KeyPerformanceIndicators</text><line style="stroke: #A80036; stroke-width: 0.9000000357627869;" x1="1188" x2="1293.0001" y1="411.3375" y2="411.3375"/><line style="stroke: #A80036; stroke-width: 0.9000000357627869;" x1="1188" x2="1293.0001" y1="416.1375" y2="416.1375"/><rect fill="#FEFECE" filter="url(#f1)" height="28.8" style="stroke: #A80036; stroke-width: 0.9000000357627869;" width="72" x="1204.5" y="342.3375"/><ellipse cx="1213.5" cy="351.9375" fill="#ADD1B2" rx="6.6" ry="6.6" style="stroke: #A80036; stroke-width: 0.6000000238418579;"/><path d="M1215.1594,349.4625 Q1215.2532,349.3313 1215.3657,349.2656 Q1215.4782,349.2 1215.6094,349.2 Q1215.8344,349.2 1215.975,349.3547 Q1216.1157,349.5094 1216.1157,349.875 L1216.1157,350.7469 Q1216.1157,351.1125 1215.975,351.2719 Q1215.8344,351.4313 1215.6094,351.4313 Q1215.4032,351.4313 1215.2813,351.3094 Q1215.1594,351.1969 1215.0938,350.8875 Q1215.0657,350.6719 1214.9532,350.5594 Q1214.7563,350.3344 1214.3907,350.2031 Q1214.025,350.0719 1213.65,350.0719 Q1213.1907,350.0719 1212.811,350.2688 Q1212.4313,350.4656 1212.136,350.9156 Q1211.8407,351.3656 1211.8407,351.9844 L1211.8407,352.6406 Q1211.8407,353.3813 1212.375,353.8735 Q1212.9094,354.3656 1213.8657,354.3656 Q1214.4282,354.3656 1214.8219,354.2156 Q1215.0563,354.1219 1215.3094,353.8594 Q1215.4688,353.7 1215.5579,353.6531 Q1215.6469,353.6063 1215.7688,353.6063 Q1215.9657,353.6063 1216.1204,353.761 Q1216.275,353.9156 1216.275,354.1219 Q1216.275,354.3281 1216.0688,354.5719 Q1215.7688,354.9188 1215.2907,355.1156 Q1214.6438,355.3875 1213.8657,355.3875 Q1212.9563,355.3875 1212.2344,355.0125 Q1211.6438,354.7125 1211.2313,354.0703 Q1210.8188,353.4281 1210.8188,352.6594 L1210.8188,351.9656 Q1210.8188,351.1688 1211.1891,350.4797 Q1211.5594,349.7906 1212.2157,349.4203 Q1212.8719,349.05 1213.6125,349.05 Q1214.0532,349.05 1214.4422,349.1485 Q1214.8313,349.2469 1215.1594,349.4625 Z "/><text fill="#000000" font-family="sans-serif" font-size="7.2" lengthAdjust="spacingAndGlyphs" textLength="52.8" x="1221.9" y="354.8836">OutputDataType</text><line style="stroke: #A80036; stroke-width: 0.9000000357627869;" x1="1205.1" x2="1275.9001" y1="361.5375" y2="361.5375"/><line style="stroke: #A80036; stroke-width: 0.9000000357627869;" x1="1205.1" x2="1275.9001" y1="366.3375" y2="366.3375"/><rect fill="#FEFECE" filter="url(#f1)" height="28.8" style="stroke: #A80036; stroke-width: 0.9000000357627869;" width="40.8" x="1220.1" y="292.5375"/><ellipse cx="1229.1" cy="302.1375" fill="#ADD1B2" rx="6.6" ry="6.6" style="stroke: #A80036; stroke-width: 0.6000000238418579;"/><path d="M1230.7594,299.6625 Q1230.8532,299.5313 1230.9657,299.4656 Q1231.0782,299.4 1231.2094,299.4 Q1231.4344,299.4 1231.575,299.5547 Q1231.7157,299.7094 1231.7157,300.075 L1231.7157,300.9469 Q1231.7157,301.3125 1231.575,301.4719 Q1231.4344,301.6313 1231.2094,301.6313 Q1231.0032,301.6313 1230.8813,301.5094 Q1230.7594,301.3969 1230.6938,301.0875 Q1230.6657,300.8719 1230.5532,300.7594 Q1230.3563,300.5344 1229.9907,300.4031 Q1229.625,300.2719 1229.25,300.2719 Q1228.7907,300.2719 1228.411,300.4688 Q1228.0313,300.6656 1227.736,301.1156 Q1227.4407,301.5656 1227.4407,302.1844 L1227.4407,302.8406 Q1227.4407,303.5813 1227.975,304.0734 Q1228.5094,304.5656 1229.4657,304.5656 Q1230.0282,304.5656 1230.4219,304.4156 Q1230.6563,304.3219 1230.9094,304.0594 Q1231.0688,303.9 1231.1579,303.8531 Q1231.2469,303.8063 1231.3688,303.8063 Q1231.5657,303.8063 1231.7204,303.9609 Q1231.875,304.1156 1231.875,304.3219 Q1231.875,304.5281 1231.6688,304.7719 Q1231.3688,305.1188 1230.8907,305.3156 Q1230.2438,305.5875 1229.4657,305.5875 Q1228.5563,305.5875 1227.8344,305.2125 Q1227.2438,304.9125 1226.8313,304.2703 Q1226.4188,303.6281 1226.4188,302.8594 L1226.4188,302.1656 Q1226.4188,301.3688 1226.7891,300.6797 Q1227.1594,299.9906 1227.8157,299.6203 Q1228.4719,299.25 1229.2125,299.25 Q1229.6532,299.25 1230.0422,299.3484 Q1230.4313,299.4469 1230.7594,299.6625 Z "/><text fill="#000000" font-family="sans-serif" font-size="7.2" lengthAdjust="spacingAndGlyphs" textLength="21.6" x="1237.5" y="305.0836">Period</text><line style="stroke: #A80036; stroke-width: 0.9000000357627869;" x1="1220.7" x2="1260.3001" y1="311.7375" y2="311.7375"/><line style="stroke: #A80036; stroke-width: 0.9000000357627869;" x1="1220.7" x2="1260.3001" y1="316.5375" y2="316.5375"/><rect fill="#FEFECE" filter="url(#f1)" height="28.8" style="stroke: #A80036; stroke-width: 0.9000000357627869;" width="54" x="1213.5" y="242.7375"/><ellipse cx="1222.5" cy="252.3375" fill="#EB937F" rx="6.6" ry="6.6" style="stroke: #A80036; stroke-width: 0.6000000238418579;"/><path d="M1221.8157,252.8156 L1221.8157,254.3156 L1224.4125,254.3156 L1224.4125,253.7625 Q1224.4125,253.3969 1224.5579,253.2375 Q1224.7032,253.0781 1224.9282,253.0781 Q1225.1532,253.0781 1225.2938,253.2375 Q1225.4344,253.3969 1225.4344,253.7625 L1225.4344,255.3375 L1220.6344,255.3375 Q1220.2594,255.3375 1220.1047,255.1969 Q1219.95,255.0563 1219.95,254.8219 Q1219.95,254.5969 1220.1094,254.4563 Q1220.2688,254.3156 1220.6344,254.3156 L1220.7938,254.3156 L1220.7938,250.3219 L1220.6344,250.3219 Q1220.2594,250.3219 1220.1047,250.1813 Q1219.95,250.0406 1219.95,249.8063 Q1219.95,249.5813 1220.1047,249.4406 Q1220.2594,249.3 1220.6344,249.3 L1225.2094,249.3 L1225.2094,250.8563 Q1225.2094,251.2219 1225.0735,251.3766 Q1224.9375,251.5313 1224.7032,251.5313 Q1224.4782,251.5313 1224.3375,251.3766 Q1224.1969,251.2219 1224.1969,250.8563 L1224.1969,250.3219 L1221.8157,250.3219 L1221.8157,251.7938 L1222.7063,251.7938 Q1222.7063,251.4 1222.7813,251.2875 Q1222.9407,251.0438 1223.2219,251.0438 Q1223.4469,251.0438 1223.5875,251.1984 Q1223.7282,251.3531 1223.7282,251.7188 L1223.7282,252.9 Q1223.7282,253.2281 1223.6532,253.3406 Q1223.4938,253.575 1223.2219,253.575 Q1222.9407,253.575 1222.7813,253.3313 Q1222.7063,253.2188 1222.7063,252.8156 L1221.8157,252.8156 Z "/><text fill="#000000" font-family="sans-serif" font-size="7.2" lengthAdjust="spacingAndGlyphs" textLength="34.8" x="1230.9" y="255.2836">SalesType</text><line style="stroke: #A80036; stroke-width: 0.9000000357627869;" x1="1214.1" x2="1266.9001" y1="261.9375" y2="261.9375"/><line style="stroke: #A80036; stroke-width: 0.9000000357627869;" x1="1214.1" x2="1266.9001" y1="266.7375" y2="266.7375"/><rect fill="#FEFECE" filter="url(#f1)" height="28.8" style="stroke: #A80036; stroke-width: 0.9000000357627869;" width="93.6" x="1350.3001" y="317.7375"/><ellipse cx="1359.3001" cy="327.3375" fill="#ADD1B2" rx="6.6" ry="6.6" style="stroke: #A80036; stroke-width: 0.6000000238418579;"/><path d="M1360.9594,324.8625 Q1361.0532,324.7313 1361.1657,324.6656 Q1361.2782,324.6 1361.4094,324.6 Q1361.6344,324.6 1361.7751,324.7547 Q1361.9157,324.9094 1361.9157,325.275 L1361.9157,326.1469 Q1361.9157,326.5125 1361.7751,326.6719 Q1361.6344,326.8313 1361.4094,326.8313 Q1361.2032,326.8313 1361.0813,326.7094 Q1360.9594,326.5969 1360.8938,326.2875 Q1360.8657,326.0719 1360.7532,325.9594 Q1360.5563,325.7344 1360.1907,325.6031 Q1359.8251,325.4719 1359.4501,325.4719 Q1358.9907,325.4719 1358.611,325.6688 Q1358.2313,325.8656 1357.936,326.3156 Q1357.6407,326.7656 1357.6407,327.3844 L1357.6407,328.0406 Q1357.6407,328.7813 1358.1751,329.2735 Q1358.7094,329.7656 1359.6657,329.7656 Q1360.2282,329.7656 1360.6219,329.6156 Q1360.8563,329.5219 1361.1094,329.2594 Q1361.2688,329.1 1361.3579,329.0531 Q1361.4469,329.0063 1361.5688,329.0063 Q1361.7657,329.0063 1361.9204,329.161 Q1362.0751,329.3156 1362.0751,329.5219 Q1362.0751,329.7281 1361.8688,329.9719 Q1361.5688,330.3188 1361.0907,330.5156 Q1360.4438,330.7875 1359.6657,330.7875 Q1358.7563,330.7875 1358.0344,330.4125 Q1357.4438,330.1125 1357.0313,329.4703 Q1356.6188,328.8281 1356.6188,328.0594 L1356.6188,327.3656 Q1356.6188,326.5688 1356.9891,325.8797 Q1357.3594,325.1906 1358.0157,324.8203 Q1358.6719,324.45 1359.4126,324.45 Q1359.8532,324.45 1360.2422,324.5485 Q1360.6313,324.6469 1360.9594,324.8625 Z "/><text fill="#000000" font-family="sans-serif" font-size="7.2" lengthAdjust="spacingAndGlyphs" textLength="74.4" x="1367.7001" y="330.2836">ActualFixedCostsEntity</text><line style="stroke: #A80036; stroke-width: 0.9000000357627869;" x1="1350.9001" x2="1443.3001" y1="336.9375" y2="336.9375"/><line style="stroke: #A80036; stroke-width: 0.9000000357627869;" x1="1350.9001" x2="1443.3001" y1="341.7375" y2="341.7375"/><rect fill="#FEFECE" filter="url(#f1)" height="28.8" style="stroke: #A80036; stroke-width: 0.9000000357627869;" width="75.6" x="1489.5001" y="566.7375"/><ellipse cx="1498.5001" cy="576.3375" fill="#ADD1B2" rx="6.6" ry="6.6" style="stroke: #A80036; stroke-width: 0.6000000238418579;"/><path d="M1500.1594,573.8625 Q1500.2532,573.7313 1500.3657,573.6656 Q1500.4782,573.6 1500.6094,573.6 Q1500.8344,573.6 1500.9751,573.7547 Q1501.1157,573.9094 1501.1157,574.275 L1501.1157,575.1469 Q1501.1157,575.5125 1500.9751,575.6719 Q1500.8344,575.8313 1500.6094,575.8313 Q1500.4032,575.8313 1500.2813,575.7094 Q1500.1594,575.5969 1500.0938,575.2875 Q1500.0657,575.0719 1499.9532,574.9594 Q1499.7563,574.7344 1499.3907,574.6031 Q1499.0251,574.4719 1498.6501,574.4719 Q1498.1907,574.4719 1497.811,574.6688 Q1497.4313,574.8656 1497.136,575.3156 Q1496.8407,575.7656 1496.8407,576.3844 L1496.8407,577.0406 Q1496.8407,577.7813 1497.3751,578.2735 Q1497.9094,578.7656 1498.8657,578.7656 Q1499.4282,578.7656 1499.8219,578.6156 Q1500.0563,578.5219 1500.3094,578.2594 Q1500.4688,578.1 1500.5579,578.0531 Q1500.6469,578.0063 1500.7688,578.0063 Q1500.9657,578.0063 1501.1204,578.161 Q1501.2751,578.3156 1501.2751,578.5219 Q1501.2751,578.7281 1501.0688,578.9719 Q1500.7688,579.3188 1500.2907,579.5156 Q1499.6438,579.7875 1498.8657,579.7875 Q1497.9563,579.7875 1497.2344,579.4125 Q1496.6438,579.1125 1496.2313,578.4703 Q1495.8188,577.8281 1495.8188,577.0594 L1495.8188,576.3656 Q1495.8188,575.5688 1496.1891,574.8797 Q1496.5594,574.1906 1497.2157,573.8203 Q1497.8719,573.45 1498.6126,573.45 Q1499.0532,573.45 1499.4422,573.5485 Q1499.8313,573.6469 1500.1594,573.8625 Z "/><text fill="#000000" font-family="sans-serif" font-size="7.2" lengthAdjust="spacingAndGlyphs" textLength="56.4" x="1506.9001" y="579.2836">ActualSalesEntity</text><line style="stroke: #A80036; stroke-width: 0.9000000357627869;" x1="1490.1001" x2="1564.5001" y1="585.9375" y2="585.9375"/><line style="stroke: #A80036; stroke-width: 0.9000000357627869;" x1="1490.1001" x2="1564.5001" y1="590.7375" y2="590.7375"/><rect fill="#FEFECE" filter="url(#f1)" height="28.8" style="stroke: #A80036; stroke-width: 0.9000000357627869;" width="84.6" x="1354.8001" y="516.9375"/><ellipse cx="1363.8001" cy="526.5375" fill="#ADD1B2" rx="6.6" ry="6.6" style="stroke: #A80036; stroke-width: 0.6000000238418579;"/><path d="M1365.4594,524.0625 Q1365.5532,523.9313 1365.6657,523.8656 Q1365.7782,523.8 1365.9094,523.8 Q1366.1344,523.8 1366.2751,523.9547 Q1366.4157,524.1094 1366.4157,524.475 L1366.4157,525.3469 Q1366.4157,525.7125 1366.2751,525.8719 Q1366.1344,526.0313 1365.9094,526.0313 Q1365.7032,526.0313 1365.5813,525.9094 Q1365.4594,525.7969 1365.3938,525.4875 Q1365.3657,525.2719 1365.2532,525.1594 Q1365.0563,524.9344 1364.6907,524.8031 Q1364.3251,524.6719 1363.9501,524.6719 Q1363.4907,524.6719 1363.111,524.8688 Q1362.7313,525.0656 1362.436,525.5156 Q1362.1407,525.9656 1362.1407,526.5844 L1362.1407,527.2406 Q1362.1407,527.9813 1362.6751,528.4735 Q1363.2094,528.9656 1364.1657,528.9656 Q1364.7282,528.9656 1365.1219,528.8156 Q1365.3563,528.7219 1365.6094,528.4594 Q1365.7688,528.3 1365.8579,528.2531 Q1365.9469,528.2063 1366.0688,528.2063 Q1366.2657,528.2063 1366.4204,528.361 Q1366.5751,528.5156 1366.5751,528.7219 Q1366.5751,528.9281 1366.3688,529.1719 Q1366.0688,529.5188 1365.5907,529.7156 Q1364.9438,529.9875 1364.1657,529.9875 Q1363.2563,529.9875 1362.5344,529.6125 Q1361.9438,529.3125 1361.5313,528.6703 Q1361.1188,528.0281 1361.1188,527.2594 L1361.1188,526.5656 Q1361.1188,525.7688 1361.4891,525.0797 Q1361.8594,524.3906 1362.5157,524.0203 Q1363.1719,523.65 1363.9126,523.65 Q1364.3532,523.65 1364.7422,523.7485 Q1365.1313,523.8469 1365.4594,524.0625 Z "/><text fill="#000000" font-family="sans-serif" font-size="7.2" lengthAdjust="spacingAndGlyphs" textLength="65.4" x="1372.2001" y="529.4836">ExchangeRateEntity</text><line style="stroke: #A80036; stroke-width: 0.9000000357627869;" x1="1355.4001" x2="1438.8001" y1="536.1375" y2="536.1375"/><line style="stroke: #A80036; stroke-width: 0.9000000357627869;" x1="1355.4001" x2="1438.8001" y1="540.9375" y2="540.9375"/><rect fill="#FEFECE" filter="url(#f1)" height="28.8" style="stroke: #A80036; stroke-width: 0.9000000357627869;" width="102.6" x="1345.8001" y="417.3375"/><ellipse cx="1354.8001" cy="426.9375" fill="#ADD1B2" rx="6.6" ry="6.6" style="stroke: #A80036; stroke-width: 0.6000000238418579;"/><path d="M1356.4594,424.4625 Q1356.5532,424.3313 1356.6657,424.2656 Q1356.7782,424.2 1356.9094,424.2 Q1357.1344,424.2 1357.2751,424.3547 Q1357.4157,424.5094 1357.4157,424.875 L1357.4157,425.7469 Q1357.4157,426.1125 1357.2751,426.2719 Q1357.1344,426.4313 1356.9094,426.4313 Q1356.7032,426.4313 1356.5813,426.3094 Q1356.4594,426.1969 1356.3938,425.8875 Q1356.3657,425.6719 1356.2532,425.5594 Q1356.0563,425.3344 1355.6907,425.2031 Q1355.3251,425.0719 1354.9501,425.0719 Q1354.4907,425.0719 1354.111,425.2688 Q1353.7313,425.4656 1353.436,425.9156 Q1353.1407,426.3656 1353.1407,426.9844 L1353.1407,427.6406 Q1353.1407,428.3813 1353.6751,428.8735 Q1354.2094,429.3656 1355.1657,429.3656 Q1355.7282,429.3656 1356.1219,429.2156 Q1356.3563,429.1219 1356.6094,428.8594 Q1356.7688,428.7 1356.8579,428.6531 Q1356.9469,428.6063 1357.0688,428.6063 Q1357.2657,428.6063 1357.4204,428.761 Q1357.5751,428.9156 1357.5751,429.1219 Q1357.5751,429.3281 1357.3688,429.5719 Q1357.0688,429.9188 1356.5907,430.1156 Q1355.9438,430.3875 1355.1657,430.3875 Q1354.2563,430.3875 1353.5344,430.0125 Q1352.9438,429.7125 1352.5313,429.0703 Q1352.1188,428.4281 1352.1188,427.6594 L1352.1188,426.9656 Q1352.1188,426.1688 1352.4891,425.4797 Q1352.8594,424.7906 1353.5157,424.4203 Q1354.1719,424.05 1354.9126,424.05 Q1355.3532,424.05 1355.7422,424.1485 Q1356.1313,424.2469 1356.4594,424.4625 Z "/><text fill="#000000" font-family="sans-serif" font-size="7.2" lengthAdjust="spacingAndGlyphs" textLength="83.4" x="1363.2001" y="429.8836">ForecastFixedCostsEntity</text><line style="stroke: #A80036; stroke-width: 0.9000000357627869;" x1="1346.4001" x2="1447.8001" y1="436.5375" y2="436.5375"/><line style="stroke: #A80036; stroke-width: 0.9000000357627869;" x1="1346.4001" x2="1447.8001" y1="441.3375" y2="441.3375"/><rect fill="#FEFECE" filter="url(#f1)" height="28.8" style="stroke: #A80036; stroke-width: 0.9000000357627869;" width="84.6" x="1485.0001" y="516.9375"/><ellipse cx="1494.0001" cy="526.5375" fill="#ADD1B2" rx="6.6" ry="6.6" style="stroke: #A80036; stroke-width: 0.6000000238418579;"/><path d="M1495.6594,524.0625 Q1495.7532,523.9313 1495.8657,523.8656 Q1495.9782,523.8 1496.1094,523.8 Q1496.3344,523.8 1496.4751,523.9547 Q1496.6157,524.1094 1496.6157,524.475 L1496.6157,525.3469 Q1496.6157,525.7125 1496.4751,525.8719 Q1496.3344,526.0313 1496.1094,526.0313 Q1495.9032,526.0313 1495.7813,525.9094 Q1495.6594,525.7969 1495.5938,525.4875 Q1495.5657,525.2719 1495.4532,525.1594 Q1495.2563,524.9344 1494.8907,524.8031 Q1494.5251,524.6719 1494.1501,524.6719 Q1493.6907,524.6719 1493.311,524.8688 Q1492.9313,525.0656 1492.636,525.5156 Q1492.3407,525.9656 1492.3407,526.5844 L1492.3407,527.2406 Q1492.3407,527.9813 1492.8751,528.4735 Q1493.4094,528.9656 1494.3657,528.9656 Q1494.9282,528.9656 1495.3219,528.8156 Q1495.5563,528.7219 1495.8094,528.4594 Q1495.9688,528.3 1496.0579,528.2531 Q1496.1469,528.2063 1496.2688,528.2063 Q1496.4657,528.2063 1496.6204,528.361 Q1496.7751,528.5156 1496.7751,528.7219 Q1496.7751,528.9281 1496.5688,529.1719 Q1496.2688,529.5188 1495.7907,529.7156 Q1495.1438,529.9875 1494.3657,529.9875 Q1493.4563,529.9875 1492.7344,529.6125 Q1492.1438,529.3125 1491.7313,528.6703 Q1491.3188,528.0281 1491.3188,527.2594 L1491.3188,526.5656 Q1491.3188,525.7688 1491.6891,525.0797 Q1492.0594,524.3906 1492.7157,524.0203 Q1493.3719,523.65 1494.1126,523.65 Q1494.5532,523.65 1494.9422,523.7485 Q1495.3313,523.8469 1495.6594,524.0625 Z "/><text fill="#000000" font-family="sans-serif" font-size="7.2" lengthAdjust="spacingAndGlyphs" textLength="65.4" x="1502.4001" y="529.4836">ForecastSalesEntity</text><line style="stroke: #A80036; stroke-width: 0.9000000357627869;" x1="1485.6001" x2="1569.0001" y1="536.1375" y2="536.1375"/><line style="stroke: #A80036; stroke-width: 0.9000000357627869;" x1="1485.6001" x2="1569.0001" y1="540.9375" y2="540.9375"/><rect fill="#FEFECE" filter="url(#f1)" height="28.8" style="stroke: #A80036; stroke-width: 0.9000000357627869;" width="78" x="1358.1001" y="467.1375"/><ellipse cx="1367.1001" cy="476.7375" fill="#ADD1B2" rx="6.6" ry="6.6" style="stroke: #A80036; stroke-width: 0.6000000238418579;"/><path d="M1368.7594,474.2625 Q1368.8532,474.1313 1368.9657,474.0656 Q1369.0782,474 1369.2094,474 Q1369.4344,474 1369.5751,474.1547 Q1369.7157,474.3094 1369.7157,474.675 L1369.7157,475.5469 Q1369.7157,475.9125 1369.5751,476.0719 Q1369.4344,476.2313 1369.2094,476.2313 Q1369.0032,476.2313 1368.8813,476.1094 Q1368.7594,475.9969 1368.6938,475.6875 Q1368.6657,475.4719 1368.5532,475.3594 Q1368.3563,475.1344 1367.9907,475.0031 Q1367.6251,474.8719 1367.2501,474.8719 Q1366.7907,474.8719 1366.411,475.0688 Q1366.0313,475.2656 1365.736,475.7156 Q1365.4407,476.1656 1365.4407,476.7844 L1365.4407,477.4406 Q1365.4407,478.1813 1365.9751,478.6735 Q1366.5094,479.1656 1367.4657,479.1656 Q1368.0282,479.1656 1368.4219,479.0156 Q1368.6563,478.9219 1368.9094,478.6594 Q1369.0688,478.5 1369.1579,478.4531 Q1369.2469,478.4063 1369.3688,478.4063 Q1369.5657,478.4063 1369.7204,478.561 Q1369.8751,478.7156 1369.8751,478.9219 Q1369.8751,479.1281 1369.6688,479.3719 Q1369.3688,479.7188 1368.8907,479.9156 Q1368.2438,480.1875 1367.4657,480.1875 Q1366.5563,480.1875 1365.8344,479.8125 Q1365.2438,479.5125 1364.8313,478.8703 Q1364.4188,478.2281 1364.4188,477.4594 L1364.4188,476.7656 Q1364.4188,475.9688 1364.7891,475.2797 Q1365.1594,474.5906 1365.8157,474.2203 Q1366.4719,473.85 1367.2126,473.85 Q1367.6532,473.85 1368.0422,473.9485 Q1368.4313,474.0469 1368.7594,474.2625 Z "/><text fill="#000000" font-family="sans-serif" font-size="7.2" lengthAdjust="spacingAndGlyphs" textLength="58.8" x="1375.5001" y="479.6836">OrgStructureEntity</text><line style="stroke: #A80036; stroke-width: 0.9000000357627869;" x1="1358.7001" x2="1435.5001" y1="486.3375" y2="486.3375"/><line style="stroke: #A80036; stroke-width: 0.9000000357627869;" x1="1358.7001" x2="1435.5001" y1="491.1375" y2="491.1375"/><rect fill="#FEFECE" filter="url(#f1)" height="28.8" style="stroke: #A80036; stroke-width: 0.9000000357627869;" width="60.6" x="1366.8001" y="367.5375"/><ellipse cx="1375.8001" cy="377.1375" fill="#ADD1B2" rx="6.6" ry="6.6" style="stroke: #A80036; stroke-width: 0.6000000238418579;"/><path d="M1377.4594,374.6625 Q1377.5532,374.5313 1377.6657,374.4656 Q1377.7782,374.4 1377.9094,374.4 Q1378.1344,374.4 1378.2751,374.5547 Q1378.4157,374.7094 1378.4157,375.075 L1378.4157,375.9469 Q1378.4157,376.3125 1378.2751,376.4719 Q1378.1344,376.6313 1377.9094,376.6313 Q1377.7032,376.6313 1377.5813,376.5094 Q1377.4594,376.3969 1377.3938,376.0875 Q1377.3657,375.8719 1377.2532,375.7594 Q1377.0563,375.5344 1376.6907,375.4031 Q1376.3251,375.2719 1375.9501,375.2719 Q1375.4907,375.2719 1375.111,375.4688 Q1374.7313,375.6656 1374.436,376.1156 Q1374.1407,376.5656 1374.1407,377.1844 L1374.1407,377.8406 Q1374.1407,378.5813 1374.6751,379.0735 Q1375.2094,379.5656 1376.1657,379.5656 Q1376.7282,379.5656 1377.1219,379.4156 Q1377.3563,379.3219 1377.6094,379.0594 Q1377.7688,378.9 1377.8579,378.8531 Q1377.9469,378.8063 1378.0688,378.8063 Q1378.2657,378.8063 1378.4204,378.961 Q1378.5751,379.1156 1378.5751,379.3219 Q1378.5751,379.5281 1378.3688,379.7719 Q1378.0688,380.1188 1377.5907,380.3156 Q1376.9438,380.5875 1376.1657,380.5875 Q1375.2563,380.5875 1374.5344,380.2125 Q1373.9438,379.9125 1373.5313,379.2703 Q1373.1188,378.6281 1373.1188,377.8594 L1373.1188,377.1656 Q1373.1188,376.3688 1373.4891,375.6797 Q1373.8594,374.9906 1374.5157,374.6203 Q1375.1719,374.25 1375.9126,374.25 Q1376.3532,374.25 1376.7422,374.3485 Q1377.1313,374.4469 1377.4594,374.6625 Z "/><text fill="#000000" font-family="sans-serif" font-size="7.2" lengthAdjust="spacingAndGlyphs" textLength="41.4" x="1384.2001" y="380.0836">RegionEntity</text><line style="stroke: #A80036; stroke-width: 0.9000000357627869;" x1="1367.4001" x2="1426.8001" y1="386.7375" y2="386.7375"/><line style="stroke: #A80036; stroke-width: 0.9000000357627869;" x1="1367.4001" x2="1426.8001" y1="391.5375" y2="391.5375"/><rect fill="#FEFECE" filter="url(#f1)" height="28.8" style="stroke: #A80036; stroke-width: 0.9000000357627869;" width="55.8" x="1369.2001" y="566.7375"/><ellipse cx="1378.2001" cy="576.3375" fill="#ADD1B2" rx="6.6" ry="6.6" style="stroke: #A80036; stroke-width: 0.6000000238418579;"/><path d="M1379.8594,573.8625 Q1379.9532,573.7313 1380.0657,573.6656 Q1380.1782,573.6 1380.3094,573.6 Q1380.5344,573.6 1380.6751,573.7547 Q1380.8157,573.9094 1380.8157,574.275 L1380.8157,575.1469 Q1380.8157,575.5125 1380.6751,575.6719 Q1380.5344,575.8313 1380.3094,575.8313 Q1380.1032,575.8313 1379.9813,575.7094 Q1379.8594,575.5969 1379.7938,575.2875 Q1379.7657,575.0719 1379.6532,574.9594 Q1379.4563,574.7344 1379.0907,574.6031 Q1378.7251,574.4719 1378.3501,574.4719 Q1377.8907,574.4719 1377.511,574.6688 Q1377.1313,574.8656 1376.836,575.3156 Q1376.5407,575.7656 1376.5407,576.3844 L1376.5407,577.0406 Q1376.5407,577.7813 1377.0751,578.2735 Q1377.6094,578.7656 1378.5657,578.7656 Q1379.1282,578.7656 1379.5219,578.6156 Q1379.7563,578.5219 1380.0094,578.2594 Q1380.1688,578.1 1380.2579,578.0531 Q1380.3469,578.0063 1380.4688,578.0063 Q1380.6657,578.0063 1380.8204,578.161 Q1380.9751,578.3156 1380.9751,578.5219 Q1380.9751,578.7281 1380.7688,578.9719 Q1380.4688,579.3188 1379.9907,579.5156 Q1379.3438,579.7875 1378.5657,579.7875 Q1377.6563,579.7875 1376.9344,579.4125 Q1376.3438,579.1125 1375.9313,578.4703 Q1375.5188,577.8281 1375.5188,577.0594 L1375.5188,576.3656 Q1375.5188,575.5688 1375.8891,574.8797 Q1376.2594,574.1906 1376.9157,573.8203 Q1377.5719,573.45 1378.3126,573.45 Q1378.7532,573.45 1379.1422,573.5485 Q1379.5313,573.6469 1379.8594,573.8625 Z "/><text fill="#000000" font-family="sans-serif" font-size="7.2" lengthAdjust="spacingAndGlyphs" textLength="36.6" x="1386.6001" y="579.2836">SalesEntity</text><line style="stroke: #A80036; stroke-width: 0.9000000357627869;" x1="1369.8001" x2="1424.4001" y1="585.9375" y2="585.9375"/><line style="stroke: #A80036; stroke-width: 0.9000000357627869;" x1="1369.8001" x2="1424.4001" y1="590.7375" y2="590.7375"/><rect fill="#FEFECE" filter="url(#f1)" height="45.4031" style="stroke: #A80036; stroke-width: 0.9000000357627869;" width="131.4" x="241.2" y="327.9375"/><ellipse cx="292.35" cy="337.5375" fill="#ADD1B2" rx="6.6" ry="6.6" style="stroke: #A80036; stroke-width: 0.6000000238418579;"/><path d="M294.0094,335.0625 Q294.1031,334.9313 294.2156,334.8656 Q294.3281,334.8 294.4594,334.8 Q294.6844,334.8 294.825,334.9547 Q294.9656,335.1094 294.9656,335.475 L294.9656,336.3469 Q294.9656,336.7125 294.825,336.8719 Q294.6844,337.0313 294.4594,337.0313 Q294.2531,337.0313 294.1313,336.9094 Q294.0094,336.7969 293.9438,336.4875 Q293.9156,336.2719 293.8031,336.1594 Q293.6063,335.9344 293.2406,335.8031 Q292.875,335.6719 292.5,335.6719 Q292.0406,335.6719 291.6609,335.8688 Q291.2813,336.0656 290.9859,336.5156 Q290.6906,336.9656 290.6906,337.5844 L290.6906,338.2406 Q290.6906,338.9813 291.225,339.4735 Q291.7594,339.9656 292.7156,339.9656 Q293.2781,339.9656 293.6719,339.8156 Q293.9063,339.7219 294.1594,339.4594 Q294.3188,339.3 294.4078,339.2531 Q294.4969,339.2063 294.6188,339.2063 Q294.8156,339.2063 294.9703,339.361 Q295.125,339.5156 295.125,339.7219 Q295.125,339.9281 294.9188,340.1719 Q294.6188,340.5188 294.1406,340.7156 Q293.4938,340.9875 292.7156,340.9875 Q291.8063,340.9875 291.0844,340.6125 Q290.4938,340.3125 290.0813,339.6703 Q289.6688,339.0281 289.6688,338.2594 L289.6688,337.5656 Q289.6688,336.7688 290.0391,336.0797 Q290.4094,335.3906 291.0656,335.0203 Q291.7219,334.65 292.4625,334.65 Q292.9031,334.65 293.2922,334.7485 Q293.6813,334.8469 294.0094,335.0625 Z "/><text fill="#000000" font-family="sans-serif" font-size="7.2" lengthAdjust="spacingAndGlyphs" textLength="24" x="304.65" y="340.4836">Service</text><line style="stroke: #A80036; stroke-width: 0.9000000357627869;" x1="241.8" x2="372" y1="347.1375" y2="347.1375"/><line style="stroke: #A80036; stroke-width: 0.9000000357627869;" x1="241.8" x2="372" y1="351.9375" y2="351.9375"/><ellipse cx="247.8" cy="359.3883" fill="#84BE84" rx="1.8" ry="1.8" style="stroke: #038048; stroke-width: 0.6000000238418579;"/><text fill="#000000" font-family="sans-serif" font-size="6.6" lengthAdjust="spacingAndGlyphs" textLength="115.8" x="253.2" y="361.1889">CassandraConnection : getConnection()</text><ellipse cx="247.8" cy="367.6899" fill="#84BE84" rx="1.8" ry="1.8" style="stroke: #038048; stroke-width: 0.6000000238418579;"/><text fill="#000000" font-family="sans-serif" font-size="6.6" lengthAdjust="spacingAndGlyphs" text-decoration="underline" textLength="76.2" x="253.2" y="369.4904">int : getNumberOfMonths()</text><line style="stroke: #000000; stroke-width: 1.0;" x1="253.2" x2="329.4" y1="370.6904" y2="370.6904"/><rect fill="#FEFECE" filter="url(#f1)" height="37.1016" style="stroke: #A80036; stroke-width: 0.9000000357627869;" width="127.8" x="422.4" y="332.1375"/><ellipse cx="462.15" cy="341.7375" fill="#ADD1B2" rx="6.6" ry="6.6" style="stroke: #A80036; stroke-width: 0.6000000238418579;"/><path d="M463.8094,339.2625 Q463.9031,339.1313 464.0156,339.0656 Q464.1281,339 464.2594,339 Q464.4844,339 464.625,339.1547 Q464.7656,339.3094 464.7656,339.675 L464.7656,340.5469 Q464.7656,340.9125 464.625,341.0719 Q464.4844,341.2313 464.2594,341.2313 Q464.0531,341.2313 463.9313,341.1094 Q463.8094,340.9969 463.7438,340.6875 Q463.7156,340.4719 463.6031,340.3594 Q463.4063,340.1344 463.0406,340.0031 Q462.675,339.8719 462.3,339.8719 Q461.8406,339.8719 461.461,340.0688 Q461.0813,340.2656 460.786,340.7156 Q460.4906,341.1656 460.4906,341.7844 L460.4906,342.4406 Q460.4906,343.1813 461.025,343.6735 Q461.5594,344.1656 462.5156,344.1656 Q463.0781,344.1656 463.4719,344.0156 Q463.7063,343.9219 463.9594,343.6594 Q464.1188,343.5 464.2078,343.4531 Q464.2969,343.4063 464.4188,343.4063 Q464.6156,343.4063 464.7703,343.561 Q464.925,343.7156 464.925,343.9219 Q464.925,344.1281 464.7188,344.3719 Q464.4188,344.7188 463.9406,344.9156 Q463.2938,345.1875 462.5156,345.1875 Q461.6063,345.1875 460.8844,344.8125 Q460.2938,344.5125 459.8813,343.8703 Q459.4688,343.2281 459.4688,342.4594 L459.4688,341.7656 Q459.4688,340.9688 459.8391,340.2797 Q460.2094,339.5906 460.8656,339.2203 Q461.5219,338.85 462.2625,338.85 Q462.7031,338.85 463.0922,338.9485 Q463.4813,339.0469 463.8094,339.2625 Z "/><text fill="#000000" font-family="sans-serif" font-size="7.2" lengthAdjust="spacingAndGlyphs" textLength="43.2" x="474.45" y="344.6836">SalesService</text><line style="stroke: #A80036; stroke-width: 0.9000000357627869;" x1="423" x2="549.6" y1="351.3375" y2="351.3375"/><line style="stroke: #A80036; stroke-width: 0.9000000357627869;" x1="423" x2="549.6" y1="356.1375" y2="356.1375"/><ellipse cx="429" cy="363.5883" fill="#84BE84" rx="1.8" ry="1.8" style="stroke: #038048; stroke-width: 0.6000000238418579;"/><text fill="#000000" font-family="sans-serif" font-size="6.6" lengthAdjust="spacingAndGlyphs" textLength="112.2" x="434.4" y="365.3889">List&lt;OutputDataType&gt; : getSalesKPIs()</text><rect fill="#FEFECE" filter="url(#f1)" height="45.4031" style="stroke: #A80036; stroke-width: 0.9000000357627869;" width="96" x="996" y="507.3375"/><ellipse cx="1005.27" cy="516.9375" fill="#ADD1B2" rx="6.6" ry="6.6" style="stroke: #A80036; stroke-width: 0.6000000238418579;"/><path d="M1006.9294,514.4625 Q1007.0232,514.3313 1007.1357,514.2656 Q1007.2482,514.2 1007.3794,514.2 Q1007.6044,514.2 1007.745,514.3547 Q1007.8857,514.5094 1007.8857,514.875 L1007.8857,515.7469 Q1007.8857,516.1125 1007.745,516.2719 Q1007.6044,516.4313 1007.3794,516.4313 Q1007.1732,516.4313 1007.0513,516.3094 Q1006.9294,516.1969 1006.8638,515.8875 Q1006.8357,515.6719 1006.7232,515.5594 Q1006.5263,515.3344 1006.1607,515.2031 Q1005.795,515.0719 1005.42,515.0719 Q1004.9607,515.0719 1004.581,515.2688 Q1004.2013,515.4656 1003.906,515.9156 Q1003.6107,516.3656 1003.6107,516.9844 L1003.6107,517.6406 Q1003.6107,518.3813 1004.145,518.8735 Q1004.6794,519.3656 1005.6357,519.3656 Q1006.1982,519.3656 1006.5919,519.2156 Q1006.8263,519.1219 1007.0794,518.8594 Q1007.2388,518.7 1007.3279,518.6531 Q1007.4169,518.6063 1007.5388,518.6063 Q1007.7357,518.6063 1007.8904,518.761 Q1008.045,518.9156 1008.045,519.1219 Q1008.045,519.3281 1007.8388,519.5719 Q1007.5388,519.9188 1007.0607,520.1156 Q1006.4138,520.3875 1005.6357,520.3875 Q1004.7263,520.3875 1004.0044,520.0125 Q1003.4138,519.7125 1003.0013,519.0703 Q1002.5888,518.4281 1002.5888,517.6594 L1002.5888,516.9656 Q1002.5888,516.1688 1002.9591,515.4797 Q1003.3294,514.7906 1003.9857,514.4203 Q1004.6419,514.05 1005.3825,514.05 Q1005.8232,514.05 1006.2122,514.1485 Q1006.6013,514.2469 1006.9294,514.4625 Z "/><text fill="#000000" font-family="sans-serif" font-size="7.2" lengthAdjust="spacingAndGlyphs" textLength="76.2" x="1013.73" y="519.8836">ExchangeRateRequest</text><line style="stroke: #A80036; stroke-width: 0.9000000357627869;" x1="996.6" x2="1091.4" y1="526.5375" y2="526.5375"/><line style="stroke: #A80036; stroke-width: 0.9000000357627869;" x1="996.6" x2="1091.4" y1="531.3375" y2="531.3375"/><ellipse cx="1002.6" cy="538.7883" fill="#84BE84" rx="1.8" ry="1.8" style="stroke: #038048; stroke-width: 0.6000000238418579;"/><text fill="#000000" font-family="sans-serif" font-size="6.6" lengthAdjust="spacingAndGlyphs" textLength="80.4" x="1008" y="540.5889">double : getExchangeRate()</text><ellipse cx="1002.6" cy="547.0899" fill="#84BE84" rx="1.8" ry="1.8" style="stroke: #038048; stroke-width: 0.6000000238418579;"/><text fill="#000000" font-family="sans-serif" font-size="6.6" lengthAdjust="spacingAndGlyphs" textLength="70.2" x="1008" y="548.8905">String : getToCurrency()</text><rect fill="#FEFECE" filter="url(#f1)" height="28.8" style="stroke: #A80036; stroke-width: 0.9000000357627869;" width="62.4" x="654" y="527.7375"/><ellipse cx="663" cy="537.3375" fill="#ADD1B2" rx="6.6" ry="6.6" style="stroke: #A80036; stroke-width: 0.6000000238418579;"/><path d="M664.6594,534.8625 Q664.7532,534.7313 664.8657,534.6656 Q664.9782,534.6 665.1094,534.6 Q665.3344,534.6 665.475,534.7547 Q665.6157,534.9094 665.6157,535.275 L665.6157,536.1469 Q665.6157,536.5125 665.475,536.6719 Q665.3344,536.8313 665.1094,536.8313 Q664.9032,536.8313 664.7813,536.7094 Q664.6594,536.5969 664.5938,536.2875 Q664.5657,536.0719 664.4532,535.9594 Q664.2563,535.7344 663.8907,535.6031 Q663.525,535.4719 663.15,535.4719 Q662.6907,535.4719 662.311,535.6688 Q661.9313,535.8656 661.636,536.3156 Q661.3407,536.7656 661.3407,537.3844 L661.3407,538.0406 Q661.3407,538.7813 661.875,539.2735 Q662.4094,539.7656 663.3657,539.7656 Q663.9282,539.7656 664.3219,539.6156 Q664.5563,539.5219 664.8094,539.2594 Q664.9688,539.1 665.0578,539.0531 Q665.1469,539.0063 665.2688,539.0063 Q665.4657,539.0063 665.6203,539.161 Q665.775,539.3156 665.775,539.5219 Q665.775,539.7281 665.5688,539.9719 Q665.2688,540.3188 664.7907,540.5156 Q664.1438,540.7875 663.3657,540.7875 Q662.4563,540.7875 661.7344,540.4125 Q661.1438,540.1125 660.7313,539.4703 Q660.3188,538.8281 660.3188,538.0594 L660.3188,537.3656 Q660.3188,536.5688 660.6891,535.8797 Q661.0594,535.1906 661.7157,534.8203 Q662.3719,534.45 663.1125,534.45 Q663.5532,534.45 663.9422,534.5485 Q664.3313,534.6469 664.6594,534.8625 Z "/><text fill="#000000" font-family="sans-serif" font-size="7.2" lengthAdjust="spacingAndGlyphs" textLength="43.2" x="671.4" y="540.2836">KpiRequests</text><line style="stroke: #A80036; stroke-width: 0.9000000357627869;" x1="654.6" x2="715.8" y1="546.9375" y2="546.9375"/><line style="stroke: #A80036; stroke-width: 0.9000000357627869;" x1="654.6" x2="715.8" y1="551.7375" y2="551.7375"/><rect fill="#FEFECE" filter="url(#f1)" height="37.1016" style="stroke: #A80036; stroke-width: 0.9000000357627869;" width="170.4" x="600" y="402.9375"/><ellipse cx="647.85" cy="412.5375" fill="#ADD1B2" rx="6.6" ry="6.6" style="stroke: #A80036; stroke-width: 0.6000000238418579;"/><path d="M649.5094,410.0625 Q649.6032,409.9313 649.7157,409.8656 Q649.8282,409.8 649.9594,409.8 Q650.1844,409.8 650.325,409.9547 Q650.4657,410.1094 650.4657,410.475 L650.4657,411.3469 Q650.4657,411.7125 650.325,411.8719 Q650.1844,412.0313 649.9594,412.0313 Q649.7532,412.0313 649.6313,411.9094 Q649.5094,411.7969 649.4438,411.4875 Q649.4157,411.2719 649.3032,411.1594 Q649.1063,410.9344 648.7407,410.8031 Q648.375,410.6719 648,410.6719 Q647.5407,410.6719 647.161,410.8688 Q646.7813,411.0656 646.486,411.5156 Q646.1907,411.9656 646.1907,412.5844 L646.1907,413.2406 Q646.1907,413.9813 646.725,414.4735 Q647.2594,414.9656 648.2157,414.9656 Q648.7782,414.9656 649.1719,414.8156 Q649.4063,414.7219 649.6594,414.4594 Q649.8188,414.3 649.9078,414.2531 Q649.9969,414.2063 650.1188,414.2063 Q650.3157,414.2063 650.4703,414.361 Q650.625,414.5156 650.625,414.7219 Q650.625,414.9281 650.4188,415.1719 Q650.1188,415.5188 649.6407,415.7156 Q648.9938,415.9875 648.2157,415.9875 Q647.3063,415.9875 646.5844,415.6125 Q645.9938,415.3125 645.5813,414.6703 Q645.1688,414.0281 645.1688,413.2594 L645.1688,412.5656 Q645.1688,411.7688 645.5391,411.0797 Q645.9094,410.3906 646.5657,410.0203 Q647.2219,409.65 647.9625,409.65 Q648.4032,409.65 648.7922,409.7485 Q649.1813,409.8469 649.5094,410.0625 Z "/><text fill="#000000" font-family="sans-serif" font-size="7.2" lengthAdjust="spacingAndGlyphs" textLength="69.6" x="660.15" y="415.4836">OrgStructureRequest</text><line style="stroke: #A80036; stroke-width: 0.9000000357627869;" x1="600.6" x2="769.8" y1="422.1375" y2="422.1375"/><line style="stroke: #A80036; stroke-width: 0.9000000357627869;" x1="600.6" x2="769.8" y1="426.9375" y2="426.9375"/><ellipse cx="606.6" cy="434.3883" fill="#84BE84" rx="1.8" ry="1.8" style="stroke: #038048; stroke-width: 0.6000000238418579;"/><text fill="#000000" font-family="sans-serif" font-size="6.6" lengthAdjust="spacingAndGlyphs" textLength="154.8" x="612" y="436.1889">Result&lt;OrgStructureEntity&gt; : getProductMainGroups()</text><rect fill="#FEFECE" filter="url(#f1)" height="45.4031" style="stroke: #A80036; stroke-width: 0.9000000357627869;" width="128.4" x="621" y="461.1375"/><ellipse cx="656.55" cy="470.7375" fill="#ADD1B2" rx="6.6" ry="6.6" style="stroke: #A80036; stroke-width: 0.6000000238418579;"/><path d="M658.2094,468.2625 Q658.3032,468.1313 658.4157,468.0656 Q658.5282,468 658.6594,468 Q658.8844,468 659.025,468.1547 Q659.1657,468.3094 659.1657,468.675 L659.1657,469.5469 Q659.1657,469.9125 659.025,470.0719 Q658.8844,470.2313 658.6594,470.2313 Q658.4532,470.2313 658.3313,470.1094 Q658.2094,469.9969 658.1438,469.6875 Q658.1157,469.4719 658.0032,469.3594 Q657.8063,469.1344 657.4407,469.0031 Q657.075,468.8719 656.7,468.8719 Q656.2407,468.8719 655.861,469.0688 Q655.4813,469.2656 655.186,469.7156 Q654.8907,470.1656 654.8907,470.7844 L654.8907,471.4406 Q654.8907,472.1813 655.425,472.6735 Q655.9594,473.1656 656.9157,473.1656 Q657.4782,473.1656 657.8719,473.0156 Q658.1063,472.9219 658.3594,472.6594 Q658.5188,472.5 658.6078,472.4531 Q658.6969,472.4063 658.8188,472.4063 Q659.0157,472.4063 659.1703,472.561 Q659.325,472.7156 659.325,472.9219 Q659.325,473.1281 659.1188,473.3719 Q658.8188,473.7188 658.3407,473.9156 Q657.6938,474.1875 656.9157,474.1875 Q656.0063,474.1875 655.2844,473.8125 Q654.6938,473.5125 654.2813,472.8703 Q653.8688,472.2281 653.8688,471.4594 L653.8688,470.7656 Q653.8688,469.9688 654.2391,469.2797 Q654.6094,468.5906 655.2657,468.2203 Q655.9219,467.85 656.6625,467.85 Q657.1032,467.85 657.4922,467.9485 Q657.8813,468.0469 658.2094,468.2625 Z "/><text fill="#000000" font-family="sans-serif" font-size="7.2" lengthAdjust="spacingAndGlyphs" textLength="52.2" x="668.85" y="473.6836">RegionRequest</text><line style="stroke: #A80036; stroke-width: 0.9000000357627869;" x1="621.6" x2="748.8" y1="480.3375" y2="480.3375"/><line style="stroke: #A80036; stroke-width: 0.9000000357627869;" x1="621.6" x2="748.8" y1="485.1375" y2="485.1375"/><ellipse cx="627.6" cy="492.5883" fill="#84BE84" rx="1.8" ry="1.8" style="stroke: #038048; stroke-width: 0.6000000238418579;"/><text fill="#000000" font-family="sans-serif" font-size="6.6" lengthAdjust="spacingAndGlyphs" textLength="112.8" x="633" y="494.3889">Result&lt;RegionEntity&gt; : getSubregions()</text><ellipse cx="627.6" cy="500.8899" fill="#84BE84" rx="1.8" ry="1.8" style="stroke: #038048; stroke-width: 0.6000000238418579;"/><text fill="#000000" font-family="sans-serif" font-size="6.6" lengthAdjust="spacingAndGlyphs" textLength="76.2" x="633" y="502.6904">Set&lt;String&gt; : getRegions()</text><rect fill="#FEFECE" filter="url(#f1)" height="45.4031" style="stroke: #A80036; stroke-width: 0.9000000357627869;" width="109.2" x="431.7" y="461.1375"/><ellipse cx="469.65" cy="470.7375" fill="#ADD1B2" rx="6.6" ry="6.6" style="stroke: #A80036; stroke-width: 0.6000000238418579;"/><path d="M471.3094,468.2625 Q471.4031,468.1313 471.5156,468.0656 Q471.6281,468 471.7594,468 Q471.9844,468 472.125,468.1547 Q472.2656,468.3094 472.2656,468.675 L472.2656,469.5469 Q472.2656,469.9125 472.125,470.0719 Q471.9844,470.2313 471.7594,470.2313 Q471.5531,470.2313 471.4313,470.1094 Q471.3094,469.9969 471.2438,469.6875 Q471.2156,469.4719 471.1031,469.3594 Q470.9063,469.1344 470.5406,469.0031 Q470.175,468.8719 469.8,468.8719 Q469.3406,468.8719 468.961,469.0688 Q468.5813,469.2656 468.286,469.7156 Q467.9906,470.1656 467.9906,470.7844 L467.9906,471.4406 Q467.9906,472.1813 468.525,472.6735 Q469.0594,473.1656 470.0156,473.1656 Q470.5781,473.1656 470.9719,473.0156 Q471.2063,472.9219 471.4594,472.6594 Q471.6188,472.5 471.7078,472.4531 Q471.7969,472.4063 471.9188,472.4063 Q472.1156,472.4063 472.2703,472.561 Q472.425,472.7156 472.425,472.9219 Q472.425,473.1281 472.2188,473.3719 Q471.9188,473.7188 471.4406,473.9156 Q470.7938,474.1875 470.0156,474.1875 Q469.1063,474.1875 468.3844,473.8125 Q467.7938,473.5125 467.3813,472.8703 Q466.9688,472.2281 466.9688,471.4594 L466.9688,470.7656 Q466.9688,469.9688 467.3391,469.2797 Q467.7094,468.5906 468.3656,468.2203 Q469.0219,467.85 469.7625,467.85 Q470.2031,467.85 470.5922,467.9485 Q470.9813,468.0469 471.3094,468.2625 Z "/><text fill="#000000" font-family="sans-serif" font-size="7.2" lengthAdjust="spacingAndGlyphs" textLength="28.2" x="481.95" y="473.6836">Request</text><line style="stroke: #A80036; stroke-width: 0.9000000357627869;" x1="432.3" x2="540.3" y1="480.3375" y2="480.3375"/><line style="stroke: #A80036; stroke-width: 0.9000000357627869;" x1="432.3" x2="540.3" y1="485.1375" y2="485.1375"/><ellipse cx="438.3" cy="492.5883" fill="#84BE84" rx="1.8" ry="1.8" style="stroke: #038048; stroke-width: 0.6000000238418579;"/><text fill="#000000" font-family="sans-serif" font-size="6.6" lengthAdjust="spacingAndGlyphs" textLength="66" x="443.7" y="494.3889">Session : getSession()</text><ellipse cx="438.3" cy="500.8899" fill="#84BE84" rx="1.8" ry="1.8" style="stroke: #038048; stroke-width: 0.6000000238418579;"/><text fill="#000000" font-family="sans-serif" font-size="6.6" lengthAdjust="spacingAndGlyphs" textLength="93.6" x="443.7" y="502.6904">MappingManager : getManager()</text><rect fill="#FEFECE" filter="url(#f1)" height="37.1016" style="stroke: #A80036; stroke-width: 0.9000000357627869;" width="126" x="820.2" y="418.5375"/><ellipse cx="856.95" cy="428.1375" fill="#ADD1B2" rx="6.6" ry="6.6" style="stroke: #A80036; stroke-width: 0.6000000238418579;"/><path d="M858.6094,425.6625 Q858.7032,425.5313 858.8157,425.4656 Q858.9282,425.4 859.0594,425.4 Q859.2844,425.4 859.425,425.5547 Q859.5657,425.7094 859.5657,426.075 L859.5657,426.9469 Q859.5657,427.3125 859.425,427.4719 Q859.2844,427.6313 859.0594,427.6313 Q858.8532,427.6313 858.7313,427.5094 Q858.6094,427.3969 858.5438,427.0875 Q858.5157,426.8719 858.4032,426.7594 Q858.2063,426.5344 857.8407,426.4031 Q857.475,426.2719 857.1,426.2719 Q856.6407,426.2719 856.261,426.4688 Q855.8813,426.6656 855.586,427.1156 Q855.2907,427.5656 855.2907,428.1844 L855.2907,428.8406 Q855.2907,429.5813 855.825,430.0735 Q856.3594,430.5656 857.3157,430.5656 Q857.8782,430.5656 858.2719,430.4156 Q858.5063,430.3219 858.7594,430.0594 Q858.9188,429.9 859.0078,429.8531 Q859.0969,429.8063 859.2188,429.8063 Q859.4157,429.8063 859.5703,429.961 Q859.725,430.1156 859.725,430.3219 Q859.725,430.5281 859.5188,430.7719 Q859.2188,431.1188 858.7407,431.3156 Q858.0938,431.5875 857.3157,431.5875 Q856.4063,431.5875 855.6844,431.2125 Q855.0938,430.9125 854.6813,430.2703 Q854.2688,429.6281 854.2688,428.8594 L854.2688,428.1656 Q854.2688,427.3688 854.6391,426.6797 Q855.0094,425.9906 855.6657,425.6203 Q856.3219,425.25 857.0625,425.25 Q857.5032,425.25 857.8922,425.3485 Q858.2813,425.4469 858.6094,425.6625 Z "/><text fill="#000000" font-family="sans-serif" font-size="7.2" lengthAdjust="spacingAndGlyphs" textLength="47.4" x="869.25" y="431.0836">SalesRequest</text><line style="stroke: #A80036; stroke-width: 0.9000000357627869;" x1="820.8" x2="945.6" y1="437.7375" y2="437.7375"/><line style="stroke: #A80036; stroke-width: 0.9000000357627869;" x1="820.8" x2="945.6" y1="442.5375" y2="442.5375"/><ellipse cx="826.8" cy="449.9883" fill="#84BE84" rx="1.8" ry="1.8" style="stroke: #038048; stroke-width: 0.6000000238418579;"/><text fill="#000000" font-family="sans-serif" font-size="6.6" lengthAdjust="spacingAndGlyphs" textLength="110.4" x="832.2" y="451.7889">List&lt;OutputDataType&gt;: getSalesKpis()</text><rect fill="#FEFECE" filter="url(#f1)" height="37.1016" style="stroke: #A80036; stroke-width: 0.9000000357627869;" width="81" x="644.7" y="245.1375"/><ellipse cx="655.86" cy="254.7375" fill="#EB937F" rx="6.6" ry="6.6" style="stroke: #A80036; stroke-width: 0.6000000238418579;"/><path d="M655.1757,255.2156 L655.1757,256.7156 L657.7725,256.7156 L657.7725,256.1625 Q657.7725,255.7969 657.9178,255.6375 Q658.0632,255.4781 658.2882,255.4781 Q658.5132,255.4781 658.6538,255.6375 Q658.7944,255.7969 658.7944,256.1625 L658.7944,257.7375 L653.9944,257.7375 Q653.6194,257.7375 653.4647,257.5969 Q653.31,257.4563 653.31,257.2219 Q653.31,256.9969 653.4694,256.8563 Q653.6288,256.7156 653.9944,256.7156 L654.1538,256.7156 L654.1538,252.7219 L653.9944,252.7219 Q653.6194,252.7219 653.4647,252.5813 Q653.31,252.4406 653.31,252.2063 Q653.31,251.9813 653.4647,251.8406 Q653.6194,251.7 653.9944,251.7 L658.5694,251.7 L658.5694,253.2563 Q658.5694,253.6219 658.4335,253.7766 Q658.2975,253.9313 658.0632,253.9313 Q657.8382,253.9313 657.6975,253.7766 Q657.5569,253.6219 657.5569,253.2563 L657.5569,252.7219 L655.1757,252.7219 L655.1757,254.1938 L656.0663,254.1938 Q656.0663,253.8 656.1413,253.6875 Q656.3007,253.4438 656.5819,253.4438 Q656.8069,253.4438 656.9475,253.5984 Q657.0882,253.7531 657.0882,254.1188 L657.0882,255.3 Q657.0882,255.6281 657.0132,255.7406 Q656.8538,255.975 656.5819,255.975 Q656.3007,255.975 656.1413,255.7313 Q656.0663,255.6188 656.0663,255.2156 L655.1757,255.2156 Z "/><text fill="#000000" font-family="sans-serif" font-size="7.2" lengthAdjust="spacingAndGlyphs" textLength="57" x="664.74" y="257.6836">KeyspaceNames</text><line style="stroke: #A80036; stroke-width: 0.9000000357627869;" x1="645.3" x2="725.1" y1="264.3375" y2="264.3375"/><line style="stroke: #A80036; stroke-width: 0.9000000357627869;" x1="645.3" x2="725.1" y1="269.1375" y2="269.1375"/><ellipse cx="651.3" cy="276.5883" fill="#84BE84" rx="1.8" ry="1.8" style="stroke: #038048; stroke-width: 0.6000000238418579;"/><text fill="#000000" font-family="sans-serif" font-size="6.6" lengthAdjust="spacingAndGlyphs" textLength="65.4" x="656.7" y="278.3889">String : getKeyspace()</text><rect fill="#FEFECE" filter="url(#f1)" height="37.1016" style="stroke: #A80036; stroke-width: 0.9000000357627869;" width="76.8" x="646.8" y="186.9375"/><ellipse cx="655.8" cy="196.5375" fill="#EB937F" rx="6.6" ry="6.6" style="stroke: #A80036; stroke-width: 0.6000000238418579;"/><path d="M655.1157,197.0156 L655.1157,198.5156 L657.7125,198.5156 L657.7125,197.9625 Q657.7125,197.5969 657.8578,197.4375 Q658.0032,197.2781 658.2282,197.2781 Q658.4532,197.2781 658.5938,197.4375 Q658.7344,197.5969 658.7344,197.9625 L658.7344,199.5375 L653.9344,199.5375 Q653.5594,199.5375 653.4047,199.3969 Q653.25,199.2563 653.25,199.0219 Q653.25,198.7969 653.4094,198.6563 Q653.5688,198.5156 653.9344,198.5156 L654.0938,198.5156 L654.0938,194.5219 L653.9344,194.5219 Q653.5594,194.5219 653.4047,194.3813 Q653.25,194.2406 653.25,194.0063 Q653.25,193.7813 653.4047,193.6406 Q653.5594,193.5 653.9344,193.5 L658.5094,193.5 L658.5094,195.0563 Q658.5094,195.4219 658.3735,195.5766 Q658.2375,195.7313 658.0032,195.7313 Q657.7782,195.7313 657.6375,195.5766 Q657.4969,195.4219 657.4969,195.0563 L657.4969,194.5219 L655.1157,194.5219 L655.1157,195.9938 L656.0063,195.9938 Q656.0063,195.6 656.0813,195.4875 Q656.2407,195.2438 656.5219,195.2438 Q656.7469,195.2438 656.8875,195.3984 Q657.0282,195.5531 657.0282,195.9188 L657.0282,197.1 Q657.0282,197.4281 656.9532,197.5406 Q656.7938,197.775 656.5219,197.775 Q656.2407,197.775 656.0813,197.5313 Q656.0063,197.4188 656.0063,197.0156 L655.1157,197.0156 Z "/><text fill="#000000" font-family="sans-serif" font-size="7.2" lengthAdjust="spacingAndGlyphs" textLength="57.6" x="664.2" y="199.4836">ClusterEndpoints</text><line style="stroke: #A80036; stroke-width: 0.9000000357627869;" x1="647.4" x2="723" y1="206.1375" y2="206.1375"/><line style="stroke: #A80036; stroke-width: 0.9000000357627869;" x1="647.4" x2="723" y1="210.9375" y2="210.9375"/><ellipse cx="653.4" cy="218.3883" fill="#84BE84" rx="1.8" ry="1.8" style="stroke: #038048; stroke-width: 0.6000000238418579;"/><text fill="#000000" font-family="sans-serif" font-size="6.6" lengthAdjust="spacingAndGlyphs" textLength="61.2" x="658.8" y="220.1889">String : getAddress()</text><rect fill="#FEFECE" filter="url(#f1)" height="53.7047" style="stroke: #A80036; stroke-width: 0.9000000357627869;" width="109.2" x="431.7" y="221.1375"/><ellipse cx="447.45" cy="230.7375" fill="#ADD1B2" rx="6.6" ry="6.6" style="stroke: #A80036; stroke-width: 0.6000000238418579;"/><path d="M449.1094,228.2625 Q449.2031,228.1313 449.3156,228.0656 Q449.4281,228 449.5594,228 Q449.7844,228 449.925,228.1547 Q450.0656,228.3094 450.0656,228.675 L450.0656,229.5469 Q450.0656,229.9125 449.925,230.0719 Q449.7844,230.2313 449.5594,230.2313 Q449.3531,230.2313 449.2313,230.1094 Q449.1094,229.9969 449.0438,229.6875 Q449.0156,229.4719 448.9031,229.3594 Q448.7063,229.1344 448.3406,229.0031 Q447.975,228.8719 447.6,228.8719 Q447.1406,228.8719 446.761,229.0688 Q446.3813,229.2656 446.086,229.7156 Q445.7906,230.1656 445.7906,230.7844 L445.7906,231.4406 Q445.7906,232.1813 446.325,232.6734 Q446.8594,233.1656 447.8156,233.1656 Q448.3781,233.1656 448.7719,233.0156 Q449.0063,232.9219 449.2594,232.6594 Q449.4188,232.5 449.5078,232.4531 Q449.5969,232.4063 449.7188,232.4063 Q449.9156,232.4063 450.0703,232.5609 Q450.225,232.7156 450.225,232.9219 Q450.225,233.1281 450.0188,233.3719 Q449.7188,233.7188 449.2406,233.9156 Q448.5938,234.1875 447.8156,234.1875 Q446.9063,234.1875 446.1844,233.8125 Q445.5938,233.5125 445.1813,232.8703 Q444.7688,232.2281 444.7688,231.4594 L444.7688,230.7656 Q444.7688,229.9688 445.1391,229.2797 Q445.5094,228.5906 446.1656,228.2203 Q446.8219,227.85 447.5625,227.85 Q448.0031,227.85 448.3922,227.9484 Q448.7813,228.0469 449.1094,228.2625 Z "/><text fill="#000000" font-family="sans-serif" font-size="7.2" lengthAdjust="spacingAndGlyphs" textLength="75" x="457.35" y="233.6836">CassandraConnection</text><line style="stroke: #A80036; stroke-width: 0.9000000357627869;" x1="432.3" x2="540.3" y1="240.3375" y2="240.3375"/><line style="stroke: #A80036; stroke-width: 0.9000000357627869;" x1="432.3" x2="540.3" y1="245.1375" y2="245.1375"/><ellipse cx="438.3" cy="252.5883" fill="#84BE84" rx="1.8" ry="1.8" style="stroke: #038048; stroke-width: 0.6000000238418579;"/><text fill="#000000" font-family="sans-serif" font-size="6.6" lengthAdjust="spacingAndGlyphs" textLength="66" x="443.7" y="254.3889">Session : getSession()</text><ellipse cx="438.3" cy="260.8899" fill="#84BE84" rx="1.8" ry="1.8" style="stroke: #038048; stroke-width: 0.6000000238418579;"/><text fill="#000000" font-family="sans-serif" font-size="6.6" lengthAdjust="spacingAndGlyphs" textLength="93.6" x="443.7" y="262.6904">MappingManager : getManager()</text><ellipse cx="438.3" cy="269.1914" fill="#84BE84" rx="1.8" ry="1.8" style="stroke: #038048; stroke-width: 0.6000000238418579;"/><text fill="#000000" font-family="sans-serif" font-size="6.6" lengthAdjust="spacingAndGlyphs" textLength="70.2" x="443.7" y="270.992">void : closeConnection()</text><rect fill="#FEFECE" filter="url(#f1)" height="28.8" style="stroke: #A80036; stroke-width: 0.9000000357627869;" width="151.8" x="51.6" y="647.1375"/><ellipse cx="60.6" cy="656.7375" fill="#ADD1B2" rx="6.6" ry="6.6" style="stroke: #A80036; stroke-width: 0.6000000238418579;"/><path d="M62.2594,654.2625 Q62.3531,654.1313 62.4656,654.0657 Q62.5781,654 62.7094,654 Q62.9344,654 63.075,654.1547 Q63.2156,654.3094 63.2156,654.675 L63.2156,655.5469 Q63.2156,655.9125 63.075,656.0719 Q62.9344,656.2313 62.7094,656.2313 Q62.5031,656.2313 62.3813,656.1094 Q62.2594,655.9969 62.1938,655.6875 Q62.1656,655.4719 62.0531,655.3594 Q61.8563,655.1344 61.4906,655.0032 Q61.125,654.8719 60.75,654.8719 Q60.2906,654.8719 59.9109,655.0688 Q59.5313,655.2657 59.2359,655.7157 Q58.9406,656.1657 58.9406,656.7844 L58.9406,657.4407 Q58.9406,658.1813 59.475,658.6735 Q60.0094,659.1657 60.9656,659.1657 Q61.5281,659.1657 61.9219,659.0157 Q62.1563,658.9219 62.4094,658.6594 Q62.5688,658.5 62.6578,658.4532 Q62.7469,658.4063 62.8688,658.4063 Q63.0656,658.4063 63.2203,658.561 Q63.375,658.7157 63.375,658.9219 Q63.375,659.1282 63.1688,659.3719 Q62.8688,659.7188 62.3906,659.9157 Q61.7438,660.1875 60.9656,660.1875 Q60.0563,660.1875 59.3344,659.8125 Q58.7438,659.5125 58.3313,658.8703 Q57.9188,658.2282 57.9188,657.4594 L57.9188,656.7657 Q57.9188,655.9688 58.2891,655.2797 Q58.6594,654.5907 59.3156,654.2203 Q59.9719,653.85 60.7125,653.85 Q61.1531,653.85 61.5422,653.9485 Q61.9313,654.0469 62.2594,654.2625 Z "/><text fill="#000000" font-family="sans-serif" font-size="7.2" lengthAdjust="spacingAndGlyphs" textLength="60" x="69" y="659.6836">ApplicationService</text><rect fill="#FFFFFF" height="10.2563" style="stroke: #000000; stroke-width: 0.6000000238418579; stroke-dasharray: 2.0,2.0;" width="71.4" x="133.8" y="645.3375"/><text fill="#000000" font-family="sans-serif" font-size="7.2" font-style="italic" lengthAdjust="spacingAndGlyphs" textLength="70.2" x="134.4" y="653.4117">? extends Application</text><line style="stroke: #A80036; stroke-width: 0.9000000357627869;" x1="52.2" x2="202.8" y1="666.3375" y2="666.3375"/><line style="stroke: #A80036; stroke-width: 0.9000000357627869;" x1="52.2" x2="202.8" y1="671.1375" y2="671.1375"/><rect fill="#FEFECE" filter="url(#f1)" height="37.1016" style="stroke: #A80036; stroke-width: 0.9000000357627869;" width="88.2" x="262.8" y="642.9375"/><ellipse cx="284.76" cy="652.5375" fill="#ADD1B2" rx="6.6" ry="6.6" style="stroke: #A80036; stroke-width: 0.6000000238418579;"/><path d="M286.4194,650.0625 Q286.5131,649.9313 286.6256,649.8657 Q286.7381,649.8 286.8694,649.8 Q287.0944,649.8 287.235,649.9547 Q287.3756,650.1094 287.3756,650.475 L287.3756,651.3469 Q287.3756,651.7125 287.235,651.8719 Q287.0944,652.0313 286.8694,652.0313 Q286.6631,652.0313 286.5413,651.9094 Q286.4194,651.7969 286.3538,651.4875 Q286.3256,651.2719 286.2131,651.1594 Q286.0163,650.9344 285.6506,650.8032 Q285.285,650.6719 284.91,650.6719 Q284.4506,650.6719 284.0709,650.8688 Q283.6913,651.0657 283.3959,651.5157 Q283.1006,651.9657 283.1006,652.5844 L283.1006,653.2407 Q283.1006,653.9813 283.635,654.4735 Q284.1694,654.9657 285.1256,654.9657 Q285.6881,654.9657 286.0819,654.8157 Q286.3163,654.7219 286.5694,654.4594 Q286.7288,654.3 286.8178,654.2532 Q286.9069,654.2063 287.0288,654.2063 Q287.2256,654.2063 287.3803,654.361 Q287.535,654.5157 287.535,654.7219 Q287.535,654.9282 287.3288,655.1719 Q287.0288,655.5188 286.5506,655.7157 Q285.9038,655.9875 285.1256,655.9875 Q284.2163,655.9875 283.4944,655.6125 Q282.9038,655.3125 282.4913,654.6703 Q282.0788,654.0282 282.0788,653.2594 L282.0788,652.5657 Q282.0788,651.7688 282.4491,651.0797 Q282.8194,650.3907 283.4756,650.0203 Q284.1319,649.65 284.8725,649.65 Q285.3131,649.65 285.7022,649.7485 Q286.0913,649.8469 286.4194,650.0625 Z "/><text fill="#000000" font-family="sans-serif" font-size="7.2" lengthAdjust="spacingAndGlyphs" textLength="40.2" x="296.04" y="655.4836">ForecastWS</text><line style="stroke: #A80036; stroke-width: 0.9000000357627869;" x1="263.4" x2="350.4" y1="662.1375" y2="662.1375"/><ellipse cx="269.4" cy="669.5883" fill="none" rx="1.8" ry="1.8" style="stroke: #038048; stroke-width: 0.6000000238418579;"/><text fill="#000000" font-family="sans-serif" font-size="6.6" lengthAdjust="spacingAndGlyphs" textLength="72.6" x="274.8" y="671.3889">Response : getSalesKPIs</text><line style="stroke: #A80036; stroke-width: 0.9000000357627869;" x1="263.4" x2="350.4" y1="675.2391" y2="675.2391"/><path d="M1436.4241,566.1891 C1453.1881,559.7163 1472.7361,552.1689 1489.3501,545.7561 " fill="none" style="stroke: #A80036; stroke-width: 0.6000000238418579;"/><polygon fill="none" points="1437.7621,570.1725,1425.0601,570.5763,1434.7381,562.3365,1437.7621,570.1725" style="stroke: #A80036; stroke-width: 0.6000000238418579;"/><path d="M1437.1501,581.1375 C1453.7581,581.1375 1472.9821,581.1375 1489.3501,581.1375 " fill="none" style="stroke: #A80036; stroke-width: 0.6000000238418579;"/><polygon fill="none" points="1437.0601,585.3375,1425.0601,581.1375,1437.0601,576.9375,1437.0601,585.3375" style="stroke: #A80036; stroke-width: 0.6000000238418579;"/><path d="M1292.5921,679.5543 C1335.9361,677.3169 1398.6421,669.9045 1448.4001,647.1375 C1475.0761,634.9323 1499.8921,611.0427 1514.1661,595.6005 " fill="none" style="stroke: #A80036; stroke-width: 0.6000000238418579;"/><polygon fill="#A80036" points="1284.7321,679.9149,1288.439,682.1462,1291.9244,679.5826,1288.2175,677.3513,1284.7321,679.9149" style="stroke: #A80036; stroke-width: 0.6000000238418579;"/><text fill="#000000" font-family="sans-serif" font-size="7.8" lengthAdjust="spacingAndGlyphs" textLength="12.6" x="1390.8001" y="645.0346">use</text><path d="M1296.6301,613.9977 C1300.7161,611.6013 1304.5741,608.8635 1308.0001,605.7375 C1325.8861,589.4175 1313.6521,573.0087 1331.4001,556.5375 C1338.0181,550.3959 1346.2981,545.6943 1354.7101,542.1153 " fill="none" style="stroke: #A80036; stroke-width: 0.6000000238418579;"/><polygon fill="#A80036" points="1289.5681,617.7165,1293.8716,618.1628,1295.9388,614.3618,1291.6352,613.9156,1289.5681,617.7165" style="stroke: #A80036; stroke-width: 0.6000000238418579;"/><text fill="#000000" font-family="sans-serif" font-size="7.8" lengthAdjust="spacingAndGlyphs" textLength="12.6" x="1313.4001" y="559.8346">use</text><path d="M1288.6501,597.8241 C1295.1901,600.3831 1301.7901,603.0615 1308.0001,605.7375 C1318.6261,610.3149 1320.1261,614.5377 1331.4001,617.1375 C1382.0701,628.8237 1403.1121,642.6921 1448.4001,617.1375 C1475.8021,601.6749 1462.7521,578.7891 1485.0001,556.5375 C1488.9481,552.5895 1493.6281,549.0021 1498.4101,545.8515 " fill="none" style="stroke: #A80036; stroke-width: 0.6000000238418579;"/><polygon fill="#A80036" points="1281.3181,594.9927,1283.8111,598.5289,1288.0342,597.5877,1285.5411,594.0515,1281.3181,594.9927" style="stroke: #A80036; stroke-width: 0.6000000238418579;"/><text fill="#000000" font-family="sans-serif" font-size="7.8" lengthAdjust="spacingAndGlyphs" textLength="12.6" x="1390.8001" y="615.0346">use</text><path d="M1293.4681,514.1583 C1314.5461,507.4851 1338.4141,499.9269 1357.8721,493.7679 " fill="none" style="stroke: #A80036; stroke-width: 0.6000000238418579;"/><polygon fill="#A80036" points="1285.8421,516.5727,1289.9977,517.7772,1292.7078,514.4044,1288.5522,513.2,1285.8421,516.5727" style="stroke: #A80036; stroke-width: 0.6000000238418579;"/><text fill="#000000" font-family="sans-serif" font-size="7.8" lengthAdjust="spacingAndGlyphs" textLength="12.6" x="1313.4001" y="502.2346">use</text><path d="M1268.3281,461.7609 C1280.7421,452.6817 1295.4421,441.4539 1308.0001,430.5375 C1319.1001,420.8889 1319.0761,415.1655 1331.4001,407.1375 C1342.1641,400.1259 1355.1781,394.5999 1366.7281,390.5319 " fill="none" style="stroke: #A80036; stroke-width: 0.6000000238418579;"/><polygon fill="#A80036" points="1261.8781,466.4337,1266.2014,466.2644,1267.7079,462.2085,1263.3846,462.3778,1261.8781,466.4337" style="stroke: #A80036; stroke-width: 0.6000000238418579;"/><text fill="#000000" font-family="sans-serif" font-size="7.8" lengthAdjust="spacingAndGlyphs" textLength="12.6" x="1313.4001" y="408.6346">use</text><path d="M552.6108,503.5293 C568.1442,508.1409 584.6526,513.0267 600,517.5375 C617.832,522.7785 637.794,528.5859 653.844,533.2413 " fill="none" style="stroke: #A80036; stroke-width: 0.6000000238418579;"/><polygon fill="none" points="551.265,507.5109,540.9582,500.0667,553.6572,499.4589,551.265,507.5109" style="stroke: #A80036; stroke-width: 0.6000000238418579;"/><path d="M728.148,531.9015 C741.864,528.0399 756.99,523.1907 770.4,517.5375 C806.064,502.5009 841.38,474.4383 862.596,455.7693 " fill="none" style="stroke: #A80036; stroke-width: 0.6000000238418579;"/><polygon fill="none" points="729.222,535.9629,716.538,535.0359,727.032,527.8533,729.222,535.9629" style="stroke: #A80036; stroke-width: 0.6000000238418579;"/><path d="M552.8538,480.8589 C562.9878,478.6869 573.0462,475.4613 582,470.7375 C592.5186,465.1881 590.0766,457.4919 600,450.9375 C606.162,446.8671 612.954,443.2947 619.92,440.1759 " fill="none" style="stroke: #A80036; stroke-width: 0.6000000238418579;"/><polygon fill="none" points="553.53,485.0043,540.9834,482.9511,552.072,476.7315,553.53,485.0043" style="stroke: #A80036; stroke-width: 0.6000000238418579;"/><path d="M552.9648,483.9375 C574.8372,483.9375 599.1246,483.9375 620.82,483.9375 " fill="none" style="stroke: #A80036; stroke-width: 0.6000000238418579;"/><polygon fill="none" points="552.9222,488.1375,540.9222,483.9375,552.9222,479.7375,552.9222,488.1375" style="stroke: #A80036; stroke-width: 0.6000000238418579;"/><path d="M1080.396,557.8149 C1102.086,573.5607 1130.85,592.6827 1158.6,605.7375 C1168.944,610.6023 1180.47,614.7759 1191.528,618.2313 " fill="none" style="stroke: #A80036; stroke-width: 0.6000000238418579;"/><polygon fill="#A80036" points="1073.898,553.0473,1075.3817,557.1116,1079.7041,557.3053,1078.2204,553.241,1073.898,553.0473" style="stroke: #A80036; stroke-width: 0.6000000238418579;"/><text fill="#000000" font-family="sans-serif" font-size="7.8" lengthAdjust="spacingAndGlyphs" textLength="12.6" x="1140.6" y="594.6346">use</text><path d="M724.212,540.3243 C740.898,537.4599 759.162,531.1209 770.4,517.5375 C797.46,484.8231 756.996,355.9089 788.4,327.3375 C903.522,222.5967 983.13,342.7881 1135.2,375.9375 C1146.438,378.3879 1170.594,385.4049 1192.872,392.1021 " fill="none" style="stroke: #A80036; stroke-width: 0.6000000238418579;"/><polygon fill="#A80036" points="716.436,541.4385,720.3399,543.3039,723.5633,540.4179,719.6594,538.5524,716.436,541.4385" style="stroke: #A80036; stroke-width: 0.6000000238418579;"/><text fill="#000000" font-family="sans-serif" font-size="7.8" lengthAdjust="spacingAndGlyphs" textLength="12.6" x="964.8" y="304.8346">use</text><path d="M954.006,455.0301 C967.908,458.5041 982.404,462.0765 996,465.3375 C1057.71,480.1395 1092.108,450.5505 1135.2,497.1375 C1183.524,549.3801 1112.112,601.6539 1158.6,655.5375 C1168.086,666.5355 1182.312,672.7125 1196.22,676.1493 " fill="none" style="stroke: #A80036; stroke-width: 0.6000000238418579;"/><polygon fill="#A80036" points="946.35,453.1131,949.2559,456.3187,953.3326,454.8692,950.4267,451.6637,946.35,453.1131" style="stroke: #A80036; stroke-width: 0.6000000238418579;"/><text fill="#000000" font-family="sans-serif" font-size="7.8" lengthAdjust="spacingAndGlyphs" textLength="12.6" x="1037.7" y="463.2346">use</text><path d="M954.138,419.6349 C1009.716,410.2809 1085.886,408.0297 1135.2,449.7375 C1172.106,480.9477 1125.762,520.4721 1158.6,555.9375 C1167.468,565.5141 1179.918,571.4091 1192.416,575.0235 " fill="none" style="stroke: #A80036; stroke-width: 0.6000000238418579;"/><polygon fill="#A80036" points="946.44,420.9981,950.404,422.7323,953.5293,419.7402,949.5654,418.0061,946.44,420.9981" style="stroke: #A80036; stroke-width: 0.6000000238418579;"/><text fill="#000000" font-family="sans-serif" font-size="7.8" lengthAdjust="spacingAndGlyphs" textLength="12.6" x="1037.7" y="411.6346">use</text><path d="M906.06,461.4111 C921.144,476.5593 942.27,495.3849 964.2,507.3375 C973.998,512.6787 985.182,516.8817 995.988,520.1445 " fill="none" style="stroke: #A80036; stroke-width: 0.6000000238418579;"/><polygon fill="#A80036" points="900.582,455.8071,901.3811,460.0594,905.6135,460.9573,904.8145,456.705,900.582,455.8071" style="stroke: #A80036; stroke-width: 0.6000000238418579;"/><text fill="#000000" font-family="sans-serif" font-size="7.8" lengthAdjust="spacingAndGlyphs" textLength="12.6" x="964.8" y="505.2346">use</text><path d="M939.954,415.8033 C948.066,412.8321 956.334,409.8651 964.2,407.1375 C978.222,402.2751 981.336,399.2319 996,396.9375 C1057.122,387.3747 1073.4,394.1103 1135.2,396.9375 C1152.156,397.7133 1170.612,399.1923 1187.238,400.7613 " fill="none" style="stroke: #A80036; stroke-width: 0.6000000238418579;"/><polygon fill="#A80036" points="932.562,418.5267,936.7691,419.5368,939.3196,416.0418,935.1125,415.0317,932.562,418.5267" style="stroke: #A80036; stroke-width: 0.6000000238418579;"/><text fill="#000000" font-family="sans-serif" font-size="7.8" lengthAdjust="spacingAndGlyphs" textLength="12.6" x="1037.7" y="389.4346">use</text><path d="M384.8916,350.7375 C397.3314,350.7375 410.0814,350.7375 422.148,350.7375 " fill="none" style="stroke: #A80036; stroke-width: 0.6000000238418579;"/><polygon fill="none" points="384.843,354.9375,372.843,350.7375,384.843,346.5375,384.843,354.9375" style="stroke: #A80036; stroke-width: 0.6000000238418579;"/><path d="M558.1164,355.4985 C616.224,360.7515 699.93,371.4639 770.4,392.7375 C793.812,399.8049 797.508,407.0223 820.2,416.1375 C822.162,416.9259 824.166,417.7095 826.2,418.4859 " fill="none" style="stroke: #A80036; stroke-width: 0.6000000238418579;"/><polygon fill="#A80036" points="550.2702,354.8085,553.6459,357.515,557.4425,355.4399,554.0668,352.7334,550.2702,354.8085" style="stroke: #A80036; stroke-width: 0.6000000238418579;"/><text fill="#000000" font-family="sans-serif" font-size="7.8" lengthAdjust="spacingAndGlyphs" textLength="12.6" x="678.9" y="357.6346">use</text><path d="M558.0072,341.3661 C615.702,335.6055 698.904,331.4919 770.4,344.1375 C852.306,358.6257 883.446,353.7411 946.2,408.3375 C981.75,439.2663 963.486,467.8317 996,501.9375 C997.782,503.8089 999.72,505.5987 1001.754,507.3045 " fill="none" style="stroke: #A80036; stroke-width: 0.6000000238418579;"/><polygon fill="#A80036" points="550.2168,342.1695,554.0441,344.1873,557.3788,341.4305,553.5515,339.4127,550.2168,342.1695" style="stroke: #A80036; stroke-width: 0.6000000238418579;"/><text fill="#000000" font-family="sans-serif" font-size="7.8" lengthAdjust="spacingAndGlyphs" textLength="12.6" x="789" y="345.0346">use</text><path d="M532.0512,372.7455 C552.4788,382.1457 577.125,392.7267 600,400.5375 C602.3628,401.3445 604.77,402.1347 607.212,402.9063 " fill="none" style="stroke: #A80036; stroke-width: 0.6000000238418579;"/><polygon fill="#A80036" points="524.727,369.3429,526.9808,373.0362,531.2568,372.3764,529.0031,368.6831,524.727,369.3429" style="stroke: #A80036; stroke-width: 0.6000000238418579;"/><text fill="#000000" font-family="sans-serif" font-size="7.8" lengthAdjust="spacingAndGlyphs" textLength="12.6" x="568.8" y="386.4346">use</text><path d="M524.6406,373.7421 C533.367,379.7019 542.379,386.4063 550.2,393.3375 C575.5272,415.7823 572.3574,431.4147 600,450.9375 C606.438,455.4849 613.59,459.5145 620.928,463.0557 " fill="none" style="stroke: #A80036; stroke-width: 0.6000000238418579;"/><polygon fill="#A80036" points="518.0478,369.3381,519.7085,373.3334,524.0352,373.3371,522.3745,369.3418,518.0478,369.3381" style="stroke: #A80036; stroke-width: 0.6000000238418579;"/><text fill="#000000" font-family="sans-serif" font-size="7.8" lengthAdjust="spacingAndGlyphs" textLength="12.6" x="568.8" y="411.6346">use</text><path d="M520.6038,327.0039 C531.7806,317.4009 543.1548,305.3913 550.2,291.9375 C576.3204,242.0583 531.8634,209.5473 568.2,166.5375 C577.779,155.1993 585.336,158.6319 600,156.3375 C752.298,132.5115 798.444,133.4055 946.2,177.3375 C1047.138,207.3489 1060.668,243.6231 1158.6,282.3375 C1179.102,290.4423 1203.384,297.4707 1220.04,301.9155 " fill="none" style="stroke: #A80036; stroke-width: 0.6000000238418579;"/><polygon fill="#A80036" points="514.4436,332.0853,518.7479,331.6458,519.9977,327.5036,515.6934,327.9431,514.4436,332.0853" style="stroke: #A80036; stroke-width: 0.6000000238418579;"/><text fill="#000000" font-family="sans-serif" font-size="7.8" lengthAdjust="spacingAndGlyphs" textLength="12.6" x="876.9" y="144.6346">use</text><path d="M520.5066,326.9523 C531.6732,317.3439 543.066,305.3445 550.2,291.9375 C574.4196,246.4227 529.0164,210.8469 568.2,177.3375 C636.498,118.9275 682.146,160.3899 770.4,177.3375 C861.606,194.8515 1070.94,301.4607 1158.6,332.1375 C1173.492,337.3497 1190.142,342.5019 1204.47,346.7343 " fill="none" style="stroke: #A80036; stroke-width: 0.6000000238418579;"/><polygon fill="#A80036" points="514.3542,332.0385,518.658,331.5944,519.9033,327.4508,515.5995,327.8949,514.3542,332.0385" style="stroke: #A80036; stroke-width: 0.6000000238418579;"/><text fill="#000000" font-family="sans-serif" font-size="7.8" lengthAdjust="spacingAndGlyphs" textLength="12.6" x="876.9" y="189.6346">use</text><path d="M520.6818,327.0447 C531.867,317.4459 543.2262,305.4285 550.2,291.9375 C578.118,237.9315 532.3842,205.4625 568.2,156.3375 C601.9308,110.0715 627.342,101.1375 684.6,101.1375 C684.6,101.1375 684.6,101.1375 1044.6,101.1375 C1121.916,101.1375 1093.716,190.4901 1158.6,232.5375 C1175.184,243.2841 1196.682,249.5205 1213.404,253.0239 " fill="none" style="stroke: #A80036; stroke-width: 0.6000000238418579;"/><polygon fill="#A80036" points="514.515,332.1225,518.8197,331.6871,520.0734,327.546,515.7687,327.9815,514.515,332.1225" style="stroke: #A80036; stroke-width: 0.6000000238418579;"/><text fill="#000000" font-family="sans-serif" font-size="7.8" lengthAdjust="spacingAndGlyphs" textLength="12.6" x="876.9" y="99.0346">use</text><path d="M548.7426,253.0173 C580.0278,255.4857 617.094,258.4107 644.598,260.5809 " fill="none" style="stroke: #A80036; stroke-width: 0.6000000238418579;"/><polygon fill="#A80036" points="540.9222,252.4005,544.3222,255.0763,548.0999,252.967,544.6999,250.2912,540.9222,252.4005" style="stroke: #A80036; stroke-width: 0.6000000238418579;"/><text fill="#000000" font-family="sans-serif" font-size="7.8" lengthAdjust="spacingAndGlyphs" textLength="12.6" x="568.8" y="252.6346">use</text><path d="M548.733,234.8139 C580.8498,227.8935 619.062,219.6597 646.764,213.6897 " fill="none" style="stroke: #A80036; stroke-width: 0.6000000238418579;"/><polygon fill="#A80036" points="540.9222,236.4969,544.947,238.0846,547.9606,234.98,543.9358,233.3923,540.9222,236.4969" style="stroke: #A80036; stroke-width: 0.6000000238418579;"/><text fill="#000000" font-family="sans-serif" font-size="7.8" lengthAdjust="spacingAndGlyphs" textLength="12.6" x="568.8" y="225.6346">use</text><path d="M327.7476,321.4923 C342.7914,302.1123 365.067,277.8519 390.6,264.3375 C403.1082,257.7171 417.7206,253.7025 431.685,251.2941 " fill="none" style="stroke: #A80036; stroke-width: 0.6000000238418579;"/><polygon fill="#A80036" points="322.9284,327.8553,327.0153,326.4349,327.276,322.1161,323.1891,323.5365,322.9284,327.8553" style="stroke: #A80036; stroke-width: 0.6000000238418579;"/><text fill="#000000" font-family="sans-serif" font-size="7.8" lengthAdjust="spacingAndGlyphs" textLength="12.6" x="391.2" y="256.8346">use</text><path d="M203.4144,661.5375 C223.6476,661.5375 244.8522,661.5375 262.7184,661.5375 " fill="none" style="stroke: #A80036; stroke-width: 0.6000000238418579;"/><path d="M335.358,637.4259 C350.7822,622.5543 368.9712,602.2197 379.8,580.5375 C417.714,504.6261 368.9874,463.0935 417.3,393.3375 C424.0308,383.6193 433.7706,375.6753 443.7996,369.3933 " fill="none" style="stroke: #A80036; stroke-width: 0.6000000238418579;"/><polygon fill="#A80036" points="329.6028,642.8493,333.8688,642.1271,334.8429,637.9115,330.5769,638.6337,329.6028,642.8493" style="stroke: #A80036; stroke-width: 0.6000000238418579;"/><text fill="#000000" font-family="sans-serif" font-size="7.8" lengthAdjust="spacingAndGlyphs" textLength="12.6" x="391.2" y="415.2346">use</text><path d="M337.1352,637.5489 C352.878,622.9101 370.7934,602.7675 379.8,580.5375 C401.6976,526.4889 363.2562,369.8457 390.6,318.3375 C399.9816,300.6651 416.0118,286.2711 432.2652,275.2221 " fill="none" style="stroke: #A80036; stroke-width: 0.6000000238418579;"/><polygon fill="#A80036" points="331.2312,642.8823,335.5114,642.2502,336.5741,638.056,332.2939,638.6882,331.2312,642.8823" style="stroke: #A80036; stroke-width: 0.6000000238418579;"/><text fill="#000000" font-family="sans-serif" font-size="7.8" lengthAdjust="spacingAndGlyphs" textLength="12.6" x="391.2" y="297.6346">use</text></g></svg>